<svg width="850" height="850" viewBox="0 0 850 850" fill="none" xmlns="http://www.w3.org/2000/svg">
<path d="M371.07 620.15C364.46 625.14 366.31 632.53 363.13 639.94C359.94 647.37 353.98 647.7 352.61 647.7C351.86 647.7 351.08 647.56 350.51 647.46V617.6H331.56V647.46C331 647.57 330.22 647.7 329.46 647.7C328.09 647.7 322.14 647.37 318.95 639.94C315.76 632.53 317.61 625.14 311 620.15C309.5 619.03 306.47 617.6 302.93 617.6H276.66L262.71 646.46L248.46 617.6H226.09V619.81L252.62 667.27L248.17 676.47C244.61 683.87 234.78 678.66 234.78 678.66L231.64 692.39C231.64 692.39 238.46 696.65 247.11 696.65C255.76 696.65 262.35 691.92 265.8 684.9L282.74 650.33L288.78 638.02L292.26 630.95L292.28 630.92C294.02 630.98 297.17 631.45 298.18 635.04C299.29 638.9 301.11 650.81 307.57 657.39L290.78 691.58V694.73H313.73L325.31 665.16C327.16 665.49 329.19 665.7 331.55 665.7V694.75H350.5V665.7C352.85 665.7 354.9 665.49 356.74 665.16L368.32 694.75H391.26V691.6L374.48 657.41C380.93 650.83 382.77 638.92 383.85 635.06C385.03 630.86 389.12 630.92 390.5 630.92C391.88 630.92 393.69 631.1 393.69 631.1V617.61H379.12C375.61 617.61 372.57 619.04 371.07 620.15ZM448.99 645.66H423.45V617.61H403.4V694.75H423.45V663.48H448.99V694.75H469.05V617.61H448.99V645.66ZM159.65 674.05C158.47 679.69 154.36 680.12 152.96 680.12C151.45 680.12 149.09 679.73 149.09 679.73L148 694.75C148 694.75 152.53 695.53 159.03 695.53C175.52 695.53 177.92 683.73 178.48 681.16C179.75 675.25 184.01 649.83 185.51 635.44H199.88V694.75H219.94V617.61H167.77C167.78 617.61 161.19 666.68 159.65 674.05ZM615.62 635.06C616.81 630.86 620.9 630.92 622.28 630.92C623.66 630.92 625.47 631.1 625.47 631.1V617.61H610.91C607.36 617.61 604.33 619.04 602.82 620.16C596.22 625.15 598.07 632.54 594.88 639.95C591.69 647.38 585.75 647.71 584.37 647.71C580.81 647.71 578.6 647.24 578.6 647.24V617.6H558.55V694.74H578.6V664.57C582.09 665.3 585.33 665.11 588.34 664.84L605.33 694.74H628.3V691.59L606.18 657.46C612.64 650.89 614.53 638.92 615.62 635.06ZM694.67 617.61L670.68 640.25C661.97 648.48 655.74 655.57 654.38 657.16H654.14C654.32 655.29 655.2 645.92 655.2 638.48V617.61H635.15V694.75H641.16L666.48 669.64C675.21 661.41 681.41 654.32 682.78 652.73H683.04C682.85 654.6 681.96 663.98 681.96 671.41V694.76H702.01V617.62H694.67V617.61ZM515.9 640.25C507.19 648.48 500.97 655.57 499.6 657.16H499.35C499.54 655.29 500.42 645.92 500.42 638.48V617.61H480.36V694.75H486.37L511.7 669.64C520.41 661.41 526.61 654.32 527.98 652.73H528.24C528.05 654.6 527.16 663.98 527.16 671.41V694.76H547.22V617.62H539.89L515.9 640.25Z" fill="white"/>
<path d="M201.84 325.74C201.84 325.74 229.61 331.07 275.58 355.46C303.85 370.45 316.66 383.05 319.12 385.41C323.16 389.24 327.01 394.89 327.16 399C327.44 405.61 322.75 410.11 318.58 414.36C313.62 419.43 297.74 433.59 283.75 444.35C223.25 490.99 196.67 505.64 196.67 505.64L197.29 506.58C207.12 503.9 295.42 466.33 295.42 466.33C281.58 479.37 214.54 542.68 214.54 542.68L215.31 543.62C215.31 543.62 343.81 460.8 345.55 459.63C348.45 457.64 352.5 455.17 356.23 455.82C361.51 456.7 361.9 465.36 361.65 469.45C358.12 532 327.1 579.89 327.1 579.89L328.06 580.51C337.55 570.33 387.4 503.82 396.77 481.08C406.15 458.28 401.62 450.36 399.02 434.93C396.45 419.47 402.38 414.26 406.25 409.11C411.86 401.66 414.43 394.38 414.43 394.38C402.4 387.42 394.85 388.98 390.86 389.45C386.86 389.94 384.64 390.57 378.23 388.86C371.83 387.15 367.92 381.33 363.38 374.64C358.85 367.92 357.83 355.9 328.72 345.72C299.61 335.49 201.96 324.84 201.96 324.84L201.84 325.74Z" fill="white"/>
<path d="M458.54 154L457.83 154.17C457.83 154.17 463.05 176.72 460.07 219.13C458.24 245.21 453.06 258.97 452.12 261.55C450.59 265.85 447.63 270.6 444.66 272.09C439.79 274.46 434.87 272.45 430.33 270.75C424.92 268.72 409.07 261.55 396.4 254.65C341.54 224.9 321.75 209.92 321.75 209.92L321.29 210.7C326.52 217.18 383.84 270.64 383.84 270.64C369.5 264.66 299.99 235.55 299.99 235.55L299.56 236.46C299.56 236.46 404 305.01 405.44 305.9C407.9 307.4 411.05 309.59 411.82 312.6C412.92 316.83 406.56 320.03 403.45 321.19C355.55 339.25 309.5 328.23 309.5 328.23L309.35 329.17C320.07 332.89 386.25 351.8 406.39 351.24C426.49 350.71 430.93 344.73 441.61 337.68C452.29 330.62 458.15 333.33 463.31 334.49C470.71 336.22 476.99 335.75 476.99 335.75C478.21 324.45 474.51 319.31 472.87 316.49C471.17 313.64 469.97 312.21 469.12 306.86C468.29 301.52 471.32 296.67 474.83 291.04C478.32 285.43 487 280.72 484.97 255.57C482.94 230.5 458.67 154.4 458.54 154Z" fill="white"/>
<path d="M424.19 461.33C424.34 463.14 424.59 464.16 423.73 467.06C422.86 469.95 420.17 471.67 417.06 473.62C413.95 475.59 408.47 475.89 403.43 488.99C398.39 502.12 392.21 546.39 392.21 546.39L392.65 546.45C392.65 546.45 395.45 533.9 407.15 513.31C414.37 500.65 420.29 494.98 421.38 493.91C423.18 492.13 425.79 490.44 427.68 490.42C430.68 490.39 432.66 492.58 434.54 494.53C436.77 496.85 443.01 504.29 447.71 510.78C468.13 538.97 474.43 551.27 474.43 551.27L474.85 550.93C473.79 546.43 457.87 505.79 457.87 505.79C463.63 512.26 491.53 543.63 491.53 543.63L491.95 543.26C491.95 543.26 456.01 483.68 455.5 482.9C454.63 481.53 453.56 479.67 453.92 477.98C454.39 475.58 458.35 475.52 460.18 475.7C488.59 478.15 509.95 492.89 509.95 492.89L510.25 492.49C505.75 487.99 476.17 464.44 465.95 459.85C455.71 455.3 452.04 457.23 444.99 458.23C437.91 459.19 435.63 456.43 433.32 454.57C430.02 451.97 426.75 450.67 426.75 450.67C423.42 456.03 424.02 459.5 424.19 461.33Z" fill="white"/>
<path d="M532.5 323.78C531.77 325.98 530.64 328.9 528.45 330.04C525.35 331.69 521.67 327.35 520.16 325.13C496.98 291.12 493.98 253.73 493.98 253.73L493.26 253.8C492.34 262.87 492.99 317.48 497.21 333.11C501.45 348.72 506.95 351.01 514.5 358.07C522.06 365.06 521.03 370.16 521.07 374.39C521.14 380.51 522.69 385.35 522.69 385.35C531.75 384.15 535.08 380.32 536.96 378.48C538.85 376.63 539.76 375.42 543.79 373.74C547.81 372.06 552.16 373.51 557.2 375.21C562.26 376.89 567.6 382.76 586.85 376.41C606.1 370.08 661.25 336.6 661.25 336.6L660.95 336.05C660.95 336.05 644.33 344.36 610.62 350.07C589.91 353.58 578.18 352.11 575.97 351.88C572.32 351.5 568.06 350.08 566.35 348.01C563.53 344.68 564.2 340.47 564.68 336.6C565.22 331.98 567.85 318.24 570.83 307.01C583.7 258.53 591.65 240.23 591.65 240.23L590.96 240.02C586.9 245.32 555.93 300.23 555.93 300.23C557.92 287.89 567.51 228.05 567.51 228.05L566.74 227.92C566.73 227.91 532.91 322.49 532.5 323.78Z" fill="white"/>
<path d="M523.88 409.11C513.22 416.07 512.81 420.79 509.4 428.13C506 435.46 501.94 435.96 498.78 437.03C494.19 438.54 490.98 440.89 490.98 440.89C494.07 447.4 497.74 448.93 499.59 449.92C501.44 450.87 502.56 451.25 504.78 453.84C507.02 456.48 506.99 460.09 506.96 464.25C506.93 468.45 503.86 473.87 513.24 486.74C522.7 499.63 561.19 532.72 561.19 532.72L561.48 532.37C561.48 532.37 551.22 521.97 538.77 498.14C531.12 483.46 529.36 474.35 528.98 472.63C528.36 469.84 528.39 466.28 529.51 464.48C531.35 461.57 534.67 461.03 537.69 460.45C541.29 459.75 552.2 458.36 561.31 457.88C600.74 455.72 616.37 457.23 616.37 457.23V456.65C611.39 454.92 562.79 445.09 562.79 445.09C572.49 443.57 619.61 436.21 619.61 436.21L619.52 435.58C619.52 435.58 540.52 433.27 539.44 433.27C537.63 433.27 535.18 433.12 533.76 431.76C531.77 429.85 534.14 426.03 535.44 424.36C555.25 398.73 582.48 387.4 582.48 387.4L582.27 386.87C575.26 388.41 534.54 402.15 523.88 409.11Z" fill="white"/>
</svg>
