<svg width="650" height="648" viewBox="0 0 650 648" fill="none" xmlns="http://www.w3.org/2000/svg">
<rect x="132.882" width="230" height="349.621" transform="rotate(15 132.882 0)" fill="#2F54A1"/>
<path d="M116.953 122.2H122.713V199H136.153V109.4H116.953V122.2ZM157.923 186.2V122.2H167.523V186.2H157.923ZM175.075 199C178.659 199 180.963 196.568 180.963 193.112V115.288C180.963 111.832 178.659 109.4 175.075 109.4H150.371C146.787 109.4 144.483 111.832 144.483 115.288V193.112C144.483 196.568 146.787 199 150.371 199H175.075Z" fill="white"/>
<path d="M125.793 226.384V231.064C125.793 233.656 125.673 235.288 124.593 236.08C124.305 236.32 123.849 236.488 123.441 236.56L123.657 238.216C124.737 238.216 125.385 237.952 125.961 237.496C127.473 236.512 127.785 234.328 127.785 231.064V228.04H131.769V238H133.857V226.384H125.793ZM142.229 226.12C139.013 226.12 136.469 228.4 136.469 232.288C136.469 235.96 138.893 238.264 142.037 238.264C144.845 238.264 147.821 236.392 147.821 232.096C147.821 228.544 145.565 226.12 142.229 226.12ZM142.181 227.704C144.677 227.704 145.661 230.2 145.661 232.168C145.661 234.784 144.149 236.68 142.133 236.68C140.069 236.68 138.605 234.76 138.605 232.216C138.605 230.008 139.685 227.704 142.181 227.704ZM150.481 226.384V238H152.569V232.888H152.977C154.945 232.888 156.025 233.752 156.817 235.624C157.177 236.584 157.585 237.496 157.897 238H160.105C159.577 237.064 159.169 235.936 158.857 235.168C157.945 233.08 156.817 231.832 154.945 231.64L160.009 226.384H157.441L153.073 231.424H152.569V226.384H150.481ZM170.552 238C170.408 237.208 170.36 236.224 170.36 235.216V230.872C170.36 228.544 169.496 226.12 165.944 226.12C164.48 226.12 163.088 226.528 162.128 227.152L162.608 228.544C163.424 228.016 164.552 227.68 165.632 227.68C168.008 227.68 168.272 229.408 168.272 230.368V230.608C163.784 230.584 161.288 232.12 161.288 234.928C161.288 236.608 162.488 238.264 164.84 238.264C166.496 238.264 167.744 237.448 168.392 236.536H168.464L168.632 238H170.552ZM168.32 234.088C168.32 234.304 168.272 234.544 168.2 234.76C167.864 235.744 166.904 236.704 165.392 236.704C164.312 236.704 163.4 236.056 163.4 234.688C163.4 232.432 166.016 232.024 168.32 232.072V234.088ZM173.73 226.384V238H182.61L182.706 241.696H184.338L184.458 236.44L183.258 236.416V226.384H181.17V236.344H175.818V226.384H173.73ZM186.925 226.384V238H189.349C190.597 235.96 191.869 233.728 192.973 231.928C193.645 230.752 194.149 229.816 194.893 228.328H194.965C194.869 230.2 194.821 231.184 194.821 233.08V238H196.837V226.384H194.365L190.741 232.384C189.973 233.728 189.565 234.544 188.869 235.96L188.797 235.936C188.893 234.28 188.917 233.128 188.917 231.28V226.384H186.925ZM200.214 226.384V238H202.638C203.886 235.96 205.158 233.728 206.262 231.928C206.934 230.752 207.438 229.816 208.182 228.328H208.254C208.158 230.2 208.11 231.184 208.11 233.08V238H210.126V226.384H207.654L204.03 232.384C203.262 233.728 202.854 234.544 202.158 235.96L202.086 235.936C202.182 234.28 202.206 233.128 202.206 231.28V226.384H200.214ZM202.038 221.656C202.134 223.312 202.95 224.632 205.062 224.632C206.91 224.632 208.158 223.624 208.254 221.656H206.742C206.622 222.712 206.142 223.48 205.11 223.48C204.15 223.48 203.646 222.688 203.574 221.656H202.038ZM125.097 255.384V267H127.185V257.064H132.585V267H134.697V255.384H125.097ZM143.049 255.12C139.833 255.12 137.289 257.4 137.289 261.288C137.289 264.96 139.713 267.264 142.857 267.264C145.665 267.264 148.641 265.392 148.641 261.096C148.641 257.544 146.385 255.12 143.049 255.12ZM143.001 256.704C145.497 256.704 146.481 259.2 146.481 261.168C146.481 263.784 144.969 265.68 142.953 265.68C140.889 265.68 139.425 263.76 139.425 261.216C139.425 259.008 140.505 256.704 143.001 256.704ZM156.339 267C156.963 267.048 158.307 267.144 159.603 267.144C161.883 267.144 165.723 266.76 165.723 263.712C165.723 262.032 164.475 261.072 162.771 260.832V260.784C164.091 260.496 165.195 259.608 165.195 258.168C165.195 255.576 161.979 255.264 160.035 255.264C158.667 255.264 157.155 255.384 156.339 255.528V267ZM158.355 256.824C158.859 256.776 159.291 256.728 159.987 256.728C162.099 256.728 163.107 257.28 163.107 258.432C163.107 259.8 161.499 260.256 159.939 260.256H158.355V256.824ZM158.331 261.648H159.867C161.883 261.648 163.563 262.008 163.563 263.688C163.563 265.368 161.451 265.704 160.035 265.704C159.363 265.704 158.931 265.68 158.331 265.608V261.648ZM176.307 264.984C175.707 265.248 174.915 265.56 173.715 265.56C171.411 265.56 169.683 263.904 169.683 261.216C169.683 258.792 171.123 256.824 173.787 256.824C174.939 256.824 175.731 257.088 176.235 257.376L176.715 255.744C176.139 255.456 175.035 255.144 173.787 255.144C169.995 255.144 167.547 257.736 167.547 261.312C167.547 264.864 169.827 267.24 173.331 267.24C174.891 267.24 176.115 266.856 176.667 266.568L176.307 264.984ZM188.34 261.576C188.364 261.36 188.412 261.024 188.412 260.592C188.412 258.456 187.404 255.12 183.612 255.12C180.228 255.12 178.164 257.88 178.164 261.384C178.164 264.888 180.3 267.24 183.876 267.24C185.724 267.24 186.996 266.856 187.74 266.52L187.38 265.008C186.588 265.344 185.676 265.608 184.164 265.608C182.052 265.608 180.228 264.432 180.18 261.576H188.34ZM180.204 260.064C180.372 258.6 181.308 256.632 183.444 256.632C185.82 256.632 186.396 258.72 186.372 260.064H180.204ZM190.284 267H192.228L192.516 261.504C192.588 260.232 192.66 258.696 192.708 257.328H192.804C193.092 258.408 193.596 260.088 193.956 261.192L196.02 266.928H197.556L199.788 261.072C200.436 259.296 200.748 258.36 201.06 257.304H201.132C201.18 258.72 201.276 260.208 201.348 261.456L201.612 267H203.628L202.812 255.384H200.196L198.324 260.448C197.868 261.72 197.22 263.568 196.956 264.432H196.908C196.644 263.52 196.14 262.104 195.852 261.24L193.74 255.384H191.148L190.284 267ZM204.703 255.384L208.999 266.088C209.095 266.352 209.143 266.52 209.143 266.64C209.143 266.76 209.071 266.928 208.975 267.144C208.495 268.224 207.775 269.04 207.199 269.496C206.575 270.024 205.879 270.36 205.351 270.528L205.879 272.304C206.407 272.208 207.439 271.848 208.471 270.936C209.911 269.688 210.943 267.648 212.455 263.664L215.623 255.384H213.391L211.087 262.2C210.799 263.04 210.559 263.928 210.343 264.624H210.295C210.103 263.928 209.815 263.016 209.551 262.248L207.007 255.384H204.703ZM222.573 255.384V267H224.661V257.088H229.701V255.384H222.573ZM236.307 255.12C233.091 255.12 230.547 257.4 230.547 261.288C230.547 264.96 232.971 267.264 236.115 267.264C238.923 267.264 241.899 265.392 241.899 261.096C241.899 257.544 239.643 255.12 236.307 255.12ZM236.259 256.704C238.755 256.704 239.739 259.2 239.739 261.168C239.739 263.784 238.227 265.68 236.211 265.68C234.147 265.68 232.683 263.76 232.683 261.216C232.683 259.008 233.763 256.704 236.259 256.704ZM244.559 271.752H246.647V265.44H246.695C247.391 266.592 248.735 267.264 250.271 267.264C253.007 267.264 255.551 265.2 255.551 261.024C255.551 257.496 253.439 255.12 250.631 255.12C248.735 255.12 247.367 255.96 246.503 257.376H246.455L246.359 255.384H244.463C244.511 256.488 244.559 257.688 244.559 259.176V271.752ZM246.647 260.28C246.647 259.992 246.719 259.68 246.791 259.416C247.199 257.832 248.543 256.8 249.983 256.8C252.215 256.8 253.439 258.792 253.439 261.12C253.439 263.784 252.143 265.608 249.911 265.608C248.399 265.608 247.127 264.6 246.743 263.136C246.695 262.872 246.647 262.584 246.647 262.272V260.28ZM263.143 255.12C259.927 255.12 257.383 257.4 257.383 261.288C257.383 264.96 259.807 267.264 262.951 267.264C265.759 267.264 268.735 265.392 268.735 261.096C268.735 257.544 266.479 255.12 263.143 255.12ZM263.095 256.704C265.591 256.704 266.575 259.2 266.575 261.168C266.575 263.784 265.063 265.68 263.047 265.68C260.983 265.68 259.519 263.76 259.519 261.216C259.519 259.008 260.599 256.704 263.095 256.704ZM272.479 255.384V258.408C272.479 260.04 272.263 261.6 271.807 263.04C271.543 263.88 271.159 264.672 270.655 265.416L269.671 265.44L269.767 270.696H271.423L271.519 267H279.559L279.655 270.696H281.311L281.431 265.44L280.231 265.416V255.384H272.479ZM274.351 256.992H278.167V265.392H272.815C273.175 264.744 273.511 264.024 273.751 263.232C274.135 261.936 274.351 260.448 274.351 258.912V256.992ZM282.351 255.384L286.647 266.088C286.743 266.352 286.791 266.52 286.791 266.64C286.791 266.76 286.719 266.928 286.623 267.144C286.143 268.224 285.423 269.04 284.847 269.496C284.223 270.024 283.527 270.36 282.999 270.528L283.527 272.304C284.055 272.208 285.087 271.848 286.119 270.936C287.559 269.688 288.591 267.648 290.103 263.664L293.271 255.384H291.039L288.735 262.2C288.447 263.04 288.207 263.928 287.991 264.624H287.943C287.751 263.928 287.463 263.016 287.199 262.248L284.655 255.384H282.351Z" fill="white"/>
<rect x="316.393" y="93.2222" width="248.592" height="311" transform="rotate(-18.1508 316.393 93.2222)" fill="#1C1D18"/>
<path d="M486.073 115.288C486.073 111.832 483.769 109.4 480.185 109.4H455.481C451.897 109.4 449.593 111.832 449.593 115.288V135H463.033V122.2H472.633V135L449.593 180.44V199H486.073V186.2H463.033V182.232L486.073 136.792V115.288ZM506.548 186.2V122.2H516.148V186.2H506.548ZM523.7 199C527.284 199 529.588 196.568 529.588 193.112V115.288C529.588 111.832 527.284 109.4 523.7 109.4H498.996C495.412 109.4 493.108 111.832 493.108 115.288V193.112C493.108 196.568 495.412 199 498.996 199H523.7Z" fill="white"/>
<path opacity="0.5" d="M425.473 193.87L425.473 190.26L434.593 190.26L434.593 193.87L425.473 193.87ZM421.673 193.87L415.593 193.87L415.593 186.65L411.793 186.65L411.793 197.86L438.393 197.86L438.393 188.018C438.393 186.954 437.671 186.27 436.645 186.27L423.421 186.27C422.395 186.27 421.673 186.954 421.673 188.018L421.673 193.87ZM434.593 180.177L415.593 180.177L415.593 176.187L434.593 176.187L434.593 180.177ZM438.393 173.945C438.393 172.881 437.671 172.197 436.645 172.197L413.541 172.197C412.515 172.197 411.793 172.881 411.793 173.945L411.793 182.419C411.793 183.483 412.515 184.167 413.541 184.167L436.645 184.167C437.671 184.167 438.393 183.483 438.393 182.419L438.393 173.945ZM415.593 164.293L415.593 162.317L438.393 162.317L438.393 158.327L411.793 158.327L411.793 168.055L434.593 169.347L434.593 170.867L438.393 170.867L438.393 165.585L415.593 164.293ZM425.473 152.048L425.473 148.438L434.593 148.438L434.593 152.048L425.473 152.048ZM438.393 146.196C438.393 145.132 437.671 144.448 436.645 144.448L423.421 144.448C422.395 144.448 421.673 145.132 421.673 146.196L421.673 152.048L411.793 152.048L411.793 156.038L438.393 156.038L438.393 146.196ZM438.393 123.914L411.793 123.914L411.793 127.904L434.593 127.904L434.593 131.134L411.793 131.134L411.793 135.124L434.593 135.124L434.593 138.354L411.793 138.354L411.793 142.344L438.393 142.344L438.393 123.914ZM438.393 121.637L438.393 111.757L434.593 111.757L434.593 117.647L425.853 117.647L425.853 111.947L422.053 111.947L422.053 117.647L415.593 117.647L415.593 111.757L411.793 111.757L411.793 121.637L438.393 121.637Z" fill="white"/>
<path d="M419.497 238C419.353 237.208 419.305 236.224 419.305 235.216V230.872C419.305 228.544 418.441 226.12 414.889 226.12C413.425 226.12 412.033 226.528 411.073 227.152L411.553 228.544C412.369 228.016 413.497 227.68 414.577 227.68C416.953 227.68 417.217 229.408 417.217 230.368V230.608C412.729 230.584 410.233 232.12 410.233 234.928C410.233 236.608 411.433 238.264 413.785 238.264C415.441 238.264 416.689 237.448 417.337 236.536H417.409L417.577 238H419.497ZM417.265 234.088C417.265 234.304 417.217 234.544 417.145 234.76C416.809 235.744 415.849 236.704 414.337 236.704C413.257 236.704 412.345 236.056 412.345 234.688C412.345 232.432 414.961 232.024 417.265 232.072V234.088ZM422.723 226.384V238H424.811V232.888H425.219C427.187 232.888 428.267 233.752 429.059 235.624C429.419 236.584 429.827 237.496 430.139 238H432.347C431.819 237.064 431.411 235.936 431.099 235.168C430.187 233.08 429.059 231.832 427.187 231.64L432.251 226.384H429.683L425.315 231.424H424.811V226.384H422.723ZM433.118 226.384V228.064H436.742V238H438.83V228.064H442.454V226.384H433.118ZM444.261 226.384V238H446.685C447.933 235.96 449.205 233.728 450.309 231.928C450.981 230.752 451.485 229.816 452.229 228.328H452.301C452.205 230.2 452.157 231.184 452.157 233.08V238H454.173V226.384H451.701L448.077 232.384C447.309 233.728 446.901 234.544 446.205 235.96L446.133 235.936C446.229 234.28 446.253 233.128 446.253 231.28V226.384H444.261ZM457.55 238C458.174 238.048 459.518 238.144 460.814 238.144C463.094 238.144 466.934 237.76 466.934 234.712C466.934 233.032 465.686 232.072 463.982 231.832V231.784C465.302 231.496 466.406 230.608 466.406 229.168C466.406 226.576 463.19 226.264 461.246 226.264C459.878 226.264 458.366 226.384 457.55 226.528V238ZM459.566 227.824C460.07 227.776 460.502 227.728 461.198 227.728C463.31 227.728 464.318 228.28 464.318 229.432C464.318 230.8 462.71 231.256 461.15 231.256H459.566V227.824ZM459.542 232.648H461.078C463.094 232.648 464.774 233.008 464.774 234.688C464.774 236.368 462.662 236.704 461.246 236.704C460.574 236.704 460.142 236.68 459.542 236.608V232.648ZM469.55 226.384V238H471.638V232.744H477.158V238H479.246V226.384H477.158V231.064H471.638V226.384H469.55ZM487.62 226.12C484.404 226.12 481.86 228.4 481.86 232.288C481.86 235.96 484.284 238.264 487.428 238.264C490.236 238.264 493.212 236.392 493.212 232.096C493.212 228.544 490.956 226.12 487.62 226.12ZM487.572 227.704C490.068 227.704 491.052 230.2 491.052 232.168C491.052 234.784 489.54 236.68 487.524 236.68C485.46 236.68 483.996 234.76 483.996 232.216C483.996 230.008 485.076 227.704 487.572 227.704ZM503.791 235.984C503.191 236.248 502.399 236.56 501.199 236.56C498.895 236.56 497.167 234.904 497.167 232.216C497.167 229.792 498.607 227.824 501.271 227.824C502.423 227.824 503.215 228.088 503.719 228.376L504.199 226.744C503.623 226.456 502.519 226.144 501.271 226.144C497.479 226.144 495.031 228.736 495.031 232.312C495.031 235.864 497.311 238.24 500.815 238.24C502.375 238.24 503.599 237.856 504.151 237.568L503.791 235.984ZM505.516 226.384V228.064H509.14V238H511.228V228.064H514.852V226.384H505.516ZM525.739 232.576C525.763 232.36 525.811 232.024 525.811 231.592C525.811 229.456 524.803 226.12 521.011 226.12C517.627 226.12 515.563 228.88 515.563 232.384C515.563 235.888 517.699 238.24 521.275 238.24C523.123 238.24 524.395 237.856 525.139 237.52L524.779 236.008C523.987 236.344 523.075 236.608 521.563 236.608C519.451 236.608 517.627 235.432 517.579 232.576H525.739ZM517.603 231.064C517.771 229.6 518.707 227.632 520.843 227.632C523.219 227.632 523.795 229.72 523.771 231.064H517.603ZM528.378 226.384V238H530.802C532.05 235.96 533.322 233.728 534.426 231.928C535.098 230.752 535.602 229.816 536.346 228.328H536.418C536.322 230.2 536.274 231.184 536.274 233.08V238H538.29V226.384H535.818L532.194 232.384C531.426 233.728 531.018 234.544 530.322 235.96L530.25 235.936C530.346 234.28 530.37 233.128 530.37 231.28V226.384H528.378ZM530.202 221.656C530.298 223.312 531.114 224.632 533.226 224.632C535.074 224.632 536.322 223.624 536.418 221.656H534.906C534.786 222.712 534.306 223.48 533.274 223.48C532.314 223.48 531.81 222.688 531.738 221.656H530.202ZM416.065 255.12C412.849 255.12 410.305 257.4 410.305 261.288C410.305 264.96 412.729 267.264 415.873 267.264C418.681 267.264 421.657 265.392 421.657 261.096C421.657 257.544 419.401 255.12 416.065 255.12ZM416.017 256.704C418.513 256.704 419.497 259.2 419.497 261.168C419.497 263.784 417.985 265.68 415.969 265.68C413.905 265.68 412.441 263.76 412.441 261.216C412.441 259.008 413.521 256.704 416.017 256.704ZM422.641 255.384V257.064H426.265V267H428.353V257.064H431.977V255.384H422.641ZM437.594 255.384V257.064H441.218V267H443.306V257.064H446.93V255.384H437.594ZM448.785 271.752H450.873V265.44H450.921C451.617 266.592 452.961 267.264 454.497 267.264C457.233 267.264 459.777 265.2 459.777 261.024C459.777 257.496 457.665 255.12 454.857 255.12C452.961 255.12 451.593 255.96 450.729 257.376H450.681L450.585 255.384H448.689C448.737 256.488 448.785 257.688 448.785 259.176V271.752ZM450.873 260.28C450.873 259.992 450.945 259.68 451.017 259.416C451.425 257.832 452.769 256.8 454.209 256.8C456.441 256.8 457.665 258.792 457.665 261.12C457.665 263.784 456.369 265.608 454.137 265.608C452.625 265.608 451.353 264.6 450.969 263.136C450.921 262.872 450.873 262.584 450.873 262.272V260.28ZM471.786 261.576C471.81 261.36 471.858 261.024 471.858 260.592C471.858 258.456 470.85 255.12 467.058 255.12C463.674 255.12 461.61 257.88 461.61 261.384C461.61 264.888 463.746 267.24 467.322 267.24C469.17 267.24 470.442 266.856 471.186 266.52L470.826 265.008C470.034 265.344 469.122 265.608 467.61 265.608C465.498 265.608 463.674 264.432 463.626 261.576H471.786ZM463.65 260.064C463.818 258.6 464.754 256.632 466.89 256.632C469.266 256.632 469.842 258.72 469.818 260.064H463.65ZM474.425 255.384V267H476.513V261.744H482.033V267H484.121V255.384H482.033V260.064H476.513V255.384H474.425ZM487.527 255.384V267H489.951C491.199 264.96 492.471 262.728 493.575 260.928C494.247 259.752 494.751 258.816 495.495 257.328H495.567C495.471 259.2 495.423 260.184 495.423 262.08V267H497.439V255.384H494.967L491.343 261.384C490.575 262.728 490.167 263.544 489.471 264.96L489.399 264.936C489.495 263.28 489.519 262.128 489.519 260.28V255.384H487.527ZM500.864 271.752H502.952V265.44H503C503.696 266.592 505.04 267.264 506.576 267.264C509.312 267.264 511.856 265.2 511.856 261.024C511.856 257.496 509.744 255.12 506.936 255.12C505.04 255.12 503.672 255.96 502.808 257.376H502.76L502.664 255.384H500.768C500.816 256.488 500.864 257.688 500.864 259.176V271.752ZM502.952 260.28C502.952 259.992 503.024 259.68 503.096 259.416C503.504 257.832 504.848 256.8 506.288 256.8C508.52 256.8 509.744 258.792 509.744 261.12C509.744 263.784 508.448 265.608 506.216 265.608C504.704 265.608 503.432 264.6 503.048 263.136C503 262.872 502.952 262.584 502.952 262.272V260.28ZM519.448 255.12C516.232 255.12 513.688 257.4 513.688 261.288C513.688 264.96 516.112 267.264 519.256 267.264C522.064 267.264 525.04 265.392 525.04 261.096C525.04 257.544 522.784 255.12 519.448 255.12ZM519.4 256.704C521.896 256.704 522.88 259.2 522.88 261.168C522.88 263.784 521.368 265.68 519.352 265.68C517.288 265.68 515.824 263.76 515.824 261.216C515.824 259.008 516.904 256.704 519.4 256.704ZM527.652 267C528.276 267.048 529.62 267.144 530.916 267.144C533.196 267.144 537.036 266.76 537.036 263.712C537.036 262.032 535.788 261.072 534.084 260.832V260.784C535.404 260.496 536.508 259.608 536.508 258.168C536.508 255.576 533.292 255.264 531.348 255.264C529.98 255.264 528.468 255.384 527.652 255.528V267ZM529.668 256.824C530.172 256.776 530.604 256.728 531.3 256.728C533.412 256.728 534.42 257.28 534.42 258.432C534.42 259.8 532.812 260.256 531.252 260.256H529.668V256.824ZM529.644 261.648H531.18C533.196 261.648 534.876 262.008 534.876 263.688C534.876 265.368 532.764 265.704 531.348 265.704C530.676 265.704 530.244 265.68 529.644 265.608V261.648ZM544.62 255.12C541.404 255.12 538.86 257.4 538.86 261.288C538.86 264.96 541.284 267.264 544.428 267.264C547.236 267.264 550.212 265.392 550.212 261.096C550.212 257.544 547.956 255.12 544.62 255.12ZM544.572 256.704C547.068 256.704 548.052 259.2 548.052 261.168C548.052 263.784 546.54 265.68 544.524 265.68C542.46 265.68 540.996 263.76 540.996 261.216C540.996 259.008 542.076 256.704 544.572 256.704ZM552.871 255.384V267H554.959V261.888H555.367C557.335 261.888 558.415 262.752 559.207 264.624C559.567 265.584 559.975 266.496 560.287 267H562.495C561.967 266.064 561.559 264.936 561.247 264.168C560.335 262.08 559.207 260.832 557.335 260.64L562.399 255.384H559.831L555.463 260.424H554.959V255.384H552.871ZM412.393 284.384V287.408C412.393 289.04 412.177 290.6 411.721 292.04C411.457 292.88 411.073 293.672 410.569 294.416L409.585 294.44L409.681 299.696H411.337L411.433 296H419.473L419.569 299.696H421.225L421.345 294.44L420.145 294.416V284.384H412.393ZM414.265 285.992H418.081V294.392H412.729C413.089 293.744 413.425 293.024 413.665 292.232C414.049 290.936 414.265 289.448 414.265 287.912V285.992ZM428.698 284.12C425.482 284.12 422.938 286.4 422.938 290.288C422.938 293.96 425.362 296.264 428.506 296.264C431.314 296.264 434.29 294.392 434.29 290.096C434.29 286.544 432.034 284.12 428.698 284.12ZM428.65 285.704C431.146 285.704 432.13 288.2 432.13 290.168C432.13 292.784 430.618 294.68 428.602 294.68C426.538 294.68 425.074 292.76 425.074 290.216C425.074 288.008 426.154 285.704 428.65 285.704ZM442.515 290.816H448.347C448.155 293.12 446.595 294.584 444.267 294.584C442.899 294.584 441.915 294.2 441.363 293.96L440.955 295.472C441.891 295.952 443.091 296.264 444.339 296.264C448.275 296.264 450.507 293.624 450.507 290.24C450.507 288.344 449.907 286.808 448.923 285.776C447.891 284.696 446.379 284.12 444.699 284.12C443.475 284.12 442.131 284.456 441.123 285.032L441.579 286.4C442.203 286.112 443.139 285.752 444.363 285.752C446.955 285.752 448.179 287.384 448.371 289.376H442.515V290.816ZM453.168 284.384V296H455.256V290.888H455.664C457.632 290.888 458.712 291.752 459.504 293.624C459.864 294.584 460.272 295.496 460.584 296H462.792C462.264 295.064 461.856 293.936 461.544 293.168C460.632 291.08 459.504 289.832 457.632 289.64L462.696 284.384H460.128L455.76 289.424H455.256V284.384H453.168ZM472.432 293.984C471.832 294.248 471.04 294.56 469.84 294.56C467.536 294.56 465.808 292.904 465.808 290.216C465.808 287.792 467.248 285.824 469.912 285.824C471.064 285.824 471.856 286.088 472.36 286.376L472.84 284.744C472.264 284.456 471.16 284.144 469.912 284.144C466.12 284.144 463.672 286.736 463.672 290.312C463.672 293.864 465.952 296.24 469.456 296.24C471.016 296.24 472.24 295.856 472.792 295.568L472.432 293.984ZM475.27 284.384V296H477.358V290.888H477.766C479.734 290.888 480.814 291.752 481.606 293.624C481.966 294.584 482.374 295.496 482.686 296H484.894C484.366 295.064 483.958 293.936 483.646 293.168C482.734 291.08 481.606 289.832 479.734 289.64L484.798 284.384H482.23L477.862 289.424H477.358V284.384H475.27ZM485.382 284.384L489.678 295.088C489.774 295.352 489.822 295.52 489.822 295.64C489.822 295.76 489.75 295.928 489.654 296.144C489.174 297.224 488.454 298.04 487.878 298.496C487.254 299.024 486.558 299.36 486.03 299.528L486.558 301.304C487.086 301.208 488.118 300.848 489.15 299.936C490.59 298.688 491.622 296.648 493.134 292.664L496.302 284.384H494.07L491.766 291.2C491.478 292.04 491.238 292.928 491.022 293.624H490.974C490.782 292.928 490.494 292.016 490.23 291.248L487.686 284.384H485.382ZM498.215 300.752H500.303V294.44H500.351C501.047 295.592 502.391 296.264 503.927 296.264C506.663 296.264 509.207 294.2 509.207 290.024C509.207 286.496 507.095 284.12 504.287 284.12C502.391 284.12 501.023 284.96 500.159 286.376H500.111L500.015 284.384H498.119C498.167 285.488 498.215 286.688 498.215 288.176V300.752ZM500.303 289.28C500.303 288.992 500.375 288.68 500.447 288.416C500.855 286.832 502.199 285.8 503.639 285.8C505.871 285.8 507.095 287.792 507.095 290.12C507.095 292.784 505.799 294.608 503.567 294.608C502.055 294.608 500.783 293.6 500.399 292.136C500.351 291.872 500.303 291.584 500.303 291.272V289.28ZM519.799 293.984C519.199 294.248 518.407 294.56 517.207 294.56C514.903 294.56 513.175 292.904 513.175 290.216C513.175 287.792 514.615 285.824 517.279 285.824C518.431 285.824 519.223 286.088 519.727 286.376L520.207 284.744C519.631 284.456 518.527 284.144 517.279 284.144C513.487 284.144 511.039 286.736 511.039 290.312C511.039 293.864 513.319 296.24 516.823 296.24C518.383 296.24 519.607 295.856 520.159 295.568L519.799 293.984ZM522.589 284.384V296H525.013C526.261 293.96 527.533 291.728 528.637 289.928C529.309 288.752 529.813 287.816 530.557 286.328H530.629C530.533 288.2 530.485 289.184 530.485 291.08V296H532.501V284.384H530.029L526.405 290.384C525.637 291.728 525.229 292.544 524.533 293.96L524.461 293.936C524.557 292.28 524.581 291.128 524.581 289.28V284.384H522.589ZM535.878 284.384V296H538.302C539.55 293.96 540.822 291.728 541.926 289.928C542.598 288.752 543.102 287.816 543.846 286.328H543.918C543.822 288.2 543.774 289.184 543.774 291.08V296H545.79V284.384H543.318L539.694 290.384C538.926 291.728 538.518 292.544 537.822 293.96L537.75 293.936C537.846 292.28 537.87 291.128 537.87 289.28V284.384H535.878ZM537.702 279.656C537.798 281.312 538.614 282.632 540.726 282.632C542.574 282.632 543.822 281.624 543.918 279.656H542.406C542.286 280.712 541.806 281.48 540.774 281.48C539.814 281.48 539.31 280.688 539.238 279.656H537.702Z" fill="white"/>
<rect y="357.033" width="255.942" height="300" transform="rotate(-14.4884 0 357.033)" fill="#E41636"/>
<path d="M124.792 449V432.36H129.912V419.56H124.792V405.48L111.352 408.04V419.56H103.416L120.696 359.4H106.616L88.9521 420.84V432.36H111.352V449H124.792Z" fill="white"/>
<path d="M93.0641 485.984C92.4641 486.248 91.6721 486.56 90.4721 486.56C88.1681 486.56 86.4401 484.904 86.4401 482.216C86.4401 479.792 87.8801 477.824 90.5441 477.824C91.6961 477.824 92.4881 478.088 92.9921 478.376L93.4721 476.744C92.8961 476.456 91.7921 476.144 90.5441 476.144C86.7521 476.144 84.3041 478.736 84.3041 482.312C84.3041 485.864 86.5841 488.24 90.0881 488.24C91.6481 488.24 92.8721 487.856 93.4241 487.568L93.0641 485.984ZM105.097 482.576C105.121 482.36 105.169 482.024 105.169 481.592C105.169 479.456 104.161 476.12 100.369 476.12C96.9853 476.12 94.9213 478.88 94.9213 482.384C94.9213 485.888 97.0573 488.24 100.633 488.24C102.481 488.24 103.753 487.856 104.497 487.52L104.137 486.008C103.345 486.344 102.433 486.608 100.921 486.608C98.8093 486.608 96.9853 485.432 96.9373 482.576H105.097ZM96.9613 481.064C97.1293 479.6 98.0653 477.632 100.201 477.632C102.577 477.632 103.153 479.72 103.129 481.064H96.9613ZM116.137 488C115.993 487.208 115.945 486.224 115.945 485.216V480.872C115.945 478.544 115.081 476.12 111.529 476.12C110.065 476.12 108.673 476.528 107.713 477.152L108.193 478.544C109.009 478.016 110.137 477.68 111.217 477.68C113.593 477.68 113.857 479.408 113.857 480.368V480.608C109.369 480.584 106.873 482.12 106.873 484.928C106.873 486.608 108.073 488.264 110.425 488.264C112.081 488.264 113.329 487.448 113.977 486.536H114.049L114.217 488H116.137ZM113.905 484.088C113.905 484.304 113.857 484.544 113.785 484.76C113.449 485.744 112.489 486.704 110.977 486.704C109.897 486.704 108.985 486.056 108.985 484.688C108.985 482.432 111.601 482.024 113.905 482.072V484.088ZM119.315 476.384V488H121.403V482.744H126.923V488H129.011V476.384H126.923V481.064H121.403V476.384H119.315ZM140.384 485.984C139.784 486.248 138.992 486.56 137.792 486.56C135.488 486.56 133.76 484.904 133.76 482.216C133.76 479.792 135.2 477.824 137.864 477.824C139.016 477.824 139.808 478.088 140.312 478.376L140.792 476.744C140.216 476.456 139.112 476.144 137.864 476.144C134.072 476.144 131.624 478.736 131.624 482.312C131.624 485.864 133.904 488.24 137.408 488.24C138.968 488.24 140.192 487.856 140.744 487.568L140.384 485.984ZM151.645 488C151.501 487.208 151.453 486.224 151.453 485.216V480.872C151.453 478.544 150.589 476.12 147.037 476.12C145.573 476.12 144.181 476.528 143.221 477.152L143.701 478.544C144.517 478.016 145.645 477.68 146.725 477.68C149.101 477.68 149.365 479.408 149.365 480.368V480.608C144.877 480.584 142.381 482.12 142.381 484.928C142.381 486.608 143.581 488.264 145.933 488.264C147.589 488.264 148.837 487.448 149.485 486.536H149.557L149.725 488H151.645ZM149.413 484.088C149.413 484.304 149.365 484.544 149.293 484.76C148.957 485.744 147.997 486.704 146.485 486.704C145.405 486.704 144.493 486.056 144.493 484.688C144.493 482.432 147.109 482.024 149.413 482.072V484.088ZM85.0961 505.384V517H87.5201C88.7681 514.96 90.0401 512.728 91.1441 510.928C91.8161 509.752 92.3201 508.816 93.0641 507.328H93.1361C93.0401 509.2 92.9921 510.184 92.9921 512.08V517H95.0081V505.384H92.5361L88.9121 511.384C88.1441 512.728 87.7361 513.544 87.0401 514.96L86.9681 514.936C87.0641 513.28 87.0881 512.128 87.0881 510.28V505.384H85.0961ZM97.6892 517H99.6332L99.9212 511.504C99.9932 510.232 100.065 508.696 100.113 507.328H100.209C100.497 508.408 101.001 510.088 101.361 511.192L103.425 516.928H104.961L107.193 511.072C107.841 509.296 108.153 508.36 108.465 507.304H108.537C108.585 508.72 108.681 510.208 108.753 511.456L109.017 517H111.033L110.217 505.384H107.601L105.729 510.448C105.273 511.72 104.625 513.568 104.361 514.432H104.313C104.049 513.52 103.545 512.104 103.257 511.24L101.145 505.384H98.5532L97.6892 517ZM113.017 517H114.961L115.249 511.504C115.321 510.232 115.393 508.696 115.441 507.328H115.537C115.825 508.408 116.329 510.088 116.689 511.192L118.753 516.928H120.289L122.521 511.072C123.169 509.296 123.481 508.36 123.793 507.304H123.865C123.913 508.72 124.009 510.208 124.081 511.456L124.345 517H126.361L125.545 505.384H122.929L121.057 510.448C120.601 511.72 119.953 513.568 119.689 514.432H119.641C119.377 513.52 118.873 512.104 118.585 511.24L116.473 505.384H113.881L113.017 517ZM138.425 511.576C138.449 511.36 138.497 511.024 138.497 510.592C138.497 508.456 137.489 505.12 133.697 505.12C130.313 505.12 128.249 507.88 128.249 511.384C128.249 514.888 130.385 517.24 133.961 517.24C135.809 517.24 137.081 516.856 137.825 516.52L137.465 515.008C136.673 515.344 135.761 515.608 134.249 515.608C132.137 515.608 130.313 514.432 130.265 511.576H138.425ZM130.289 510.064C130.457 508.6 131.393 506.632 133.529 506.632C135.905 506.632 136.481 508.72 136.457 510.064H130.289ZM141.113 521.752H143.201V515.44H143.249C143.945 516.592 145.289 517.264 146.825 517.264C149.561 517.264 152.105 515.2 152.105 511.024C152.105 507.496 149.993 505.12 147.185 505.12C145.289 505.12 143.921 505.96 143.057 507.376H143.009L142.913 505.384H141.017C141.065 506.488 141.113 507.688 141.113 509.176V521.752ZM143.201 510.28C143.201 509.992 143.273 509.68 143.345 509.416C143.753 507.832 145.097 506.8 146.537 506.8C148.769 506.8 149.993 508.792 149.993 511.12C149.993 513.784 148.697 515.608 146.465 515.608C144.953 515.608 143.681 514.6 143.297 513.136C143.249 512.872 143.201 512.584 143.201 512.272V510.28ZM162.697 514.984C162.097 515.248 161.305 515.56 160.105 515.56C157.801 515.56 156.073 513.904 156.073 511.216C156.073 508.792 157.513 506.824 160.177 506.824C161.329 506.824 162.121 507.088 162.625 507.376L163.105 505.744C162.529 505.456 161.425 505.144 160.177 505.144C156.385 505.144 153.937 507.736 153.937 511.312C153.937 514.864 156.217 517.24 159.721 517.24C161.281 517.24 162.505 516.856 163.057 516.568L162.697 514.984ZM165.487 505.384V517H167.911C169.159 514.96 170.431 512.728 171.535 510.928C172.207 509.752 172.711 508.816 173.455 507.328H173.527C173.431 509.2 173.383 510.184 173.383 512.08V517H175.399V505.384H172.927L169.303 511.384C168.535 512.728 168.127 513.544 167.431 514.96L167.359 514.936C167.455 513.28 167.479 512.128 167.479 510.28V505.384H165.487ZM178.776 517C179.4 517.048 180.744 517.144 182.04 517.144C184.32 517.144 188.16 516.76 188.16 513.712C188.16 512.032 186.912 511.072 185.208 510.832V510.784C186.528 510.496 187.632 509.608 187.632 508.168C187.632 505.576 184.416 505.264 182.472 505.264C181.104 505.264 179.592 505.384 178.776 505.528V517ZM180.792 506.824C181.296 506.776 181.728 506.728 182.424 506.728C184.536 506.728 185.544 507.28 185.544 508.432C185.544 509.8 183.936 510.256 182.376 510.256H180.792V506.824ZM180.768 511.648H182.304C184.32 511.648 186 512.008 186 513.688C186 515.368 183.888 515.704 182.472 515.704C181.8 515.704 181.368 515.68 180.768 515.608V511.648ZM190.776 505.384V517H192.864V511.744H198.384V517H200.472V505.384H198.384V510.064H192.864V505.384H190.776ZM203.877 505.384V516.952C204.741 517.048 205.821 517.12 206.997 517.12C208.533 517.12 210.405 516.856 211.677 515.776C212.421 515.152 212.877 514.312 212.877 513.088C212.877 510.232 210.357 509.2 207.861 509.2C207.093 509.2 206.421 509.248 205.965 509.344V505.384H203.877ZM205.965 510.832C206.397 510.76 206.925 510.712 207.525 510.712C209.109 510.712 210.789 511.288 210.789 513.16C210.789 514.96 209.037 515.632 207.429 515.632C206.829 515.632 206.373 515.584 205.965 515.536V510.832ZM214.341 505.384V517H216.429V505.384H214.341ZM218.518 505.384L222.454 511.072L218.326 517H220.654L222.334 514.384C222.766 513.688 223.174 513.064 223.558 512.368H223.606C224.014 513.064 224.398 513.712 224.854 514.384L226.558 517H228.958L224.878 511L228.838 505.384H226.558L224.926 507.856C224.542 508.48 224.158 509.08 223.774 509.776H223.702C223.318 509.128 222.958 508.528 222.526 507.88L220.87 505.384H218.518ZM85.6241 540.816H91.4561C91.2641 543.12 89.7041 544.584 87.3761 544.584C86.0081 544.584 85.0241 544.2 84.4721 543.96L84.0641 545.472C85.0001 545.952 86.2001 546.264 87.4481 546.264C91.3841 546.264 93.6161 543.624 93.6161 540.24C93.6161 538.344 93.0161 536.808 92.0321 535.776C91.0001 534.696 89.4881 534.12 87.8081 534.12C86.5841 534.12 85.2401 534.456 84.2321 535.032L84.6881 536.4C85.3121 536.112 86.2481 535.752 87.4721 535.752C90.0641 535.752 91.2881 537.384 91.4801 539.376H85.6241V540.816ZM96.2769 534.384V546H98.3649V540.888H98.7729C100.741 540.888 101.821 541.752 102.613 543.624C102.973 544.584 103.381 545.496 103.693 546H105.901C105.373 545.064 104.965 543.936 104.653 543.168C103.741 541.08 102.613 539.832 100.741 539.64L105.805 534.384H103.237L98.8689 539.424H98.3649V534.384H96.2769ZM115.541 543.984C114.941 544.248 114.149 544.56 112.949 544.56C110.645 544.56 108.917 542.904 108.917 540.216C108.917 537.792 110.357 535.824 113.021 535.824C114.173 535.824 114.965 536.088 115.469 536.376L115.949 534.744C115.373 534.456 114.269 534.144 113.021 534.144C109.229 534.144 106.781 536.736 106.781 540.312C106.781 543.864 109.061 546.24 112.565 546.24C114.125 546.24 115.349 545.856 115.901 545.568L115.541 543.984ZM118.378 534.384V546H120.466V540.888H120.874C122.842 540.888 123.922 541.752 124.714 543.624C125.074 544.584 125.482 545.496 125.794 546H128.002C127.474 545.064 127.066 543.936 126.754 543.168C125.842 541.08 124.714 539.832 122.842 539.64L127.906 534.384H125.338L120.97 539.424H120.466V534.384H118.378ZM128.491 534.384L132.787 545.088C132.883 545.352 132.931 545.52 132.931 545.64C132.931 545.76 132.859 545.928 132.763 546.144C132.283 547.224 131.563 548.04 130.987 548.496C130.363 549.024 129.667 549.36 129.139 549.528L129.667 551.304C130.195 551.208 131.227 550.848 132.259 549.936C133.699 548.688 134.731 546.648 136.243 542.664L139.411 534.384H137.179L134.875 541.2C134.587 542.04 134.347 542.928 134.131 543.624H134.083C133.891 542.928 133.603 542.016 133.339 541.248L130.795 534.384H128.491ZM141.324 550.752H143.412V544.44H143.46C144.156 545.592 145.5 546.264 147.036 546.264C149.772 546.264 152.316 544.2 152.316 540.024C152.316 536.496 150.204 534.12 147.396 534.12C145.5 534.12 144.132 534.96 143.268 536.376H143.22L143.124 534.384H141.228C141.276 535.488 141.324 536.688 141.324 538.176V550.752ZM143.412 539.28C143.412 538.992 143.484 538.68 143.556 538.416C143.964 536.832 145.308 535.8 146.748 535.8C148.98 535.8 150.204 537.792 150.204 540.12C150.204 542.784 148.908 544.608 146.676 544.608C145.164 544.608 143.892 543.6 143.508 542.136C143.46 541.872 143.412 541.584 143.412 541.272V539.28ZM162.908 543.984C162.308 544.248 161.516 544.56 160.316 544.56C158.012 544.56 156.284 542.904 156.284 540.216C156.284 537.792 157.724 535.824 160.388 535.824C161.54 535.824 162.332 536.088 162.836 536.376L163.316 534.744C162.74 534.456 161.636 534.144 160.388 534.144C156.596 534.144 154.148 536.736 154.148 540.312C154.148 543.864 156.428 546.24 159.932 546.24C161.492 546.24 162.716 545.856 163.268 545.568L162.908 543.984ZM165.698 534.384V546H168.122C169.37 543.96 170.642 541.728 171.746 539.928C172.418 538.752 172.922 537.816 173.666 536.328H173.738C173.642 538.2 173.594 539.184 173.594 541.08V546H175.61V534.384H173.138L169.514 540.384C168.746 541.728 168.338 542.544 167.642 543.96L167.57 543.936C167.666 542.28 167.69 541.128 167.69 539.28V534.384H165.698ZM178.987 534.384V546H181.411C182.659 543.96 183.931 541.728 185.035 539.928C185.707 538.752 186.211 537.816 186.955 536.328H187.027C186.931 538.2 186.883 539.184 186.883 541.08V546H188.899V534.384H186.427L182.803 540.384C182.035 541.728 181.627 542.544 180.931 543.96L180.859 543.936C180.955 542.28 180.979 541.128 180.979 539.28V534.384H178.987ZM180.811 529.656C180.907 531.312 181.723 532.632 183.835 532.632C185.683 532.632 186.931 531.624 187.027 529.656H185.515C185.395 530.712 184.915 531.48 183.883 531.48C182.923 531.48 182.419 530.688 182.347 529.656H180.811ZM85.0961 563.384V575H87.1841V569.744H92.7041V575H94.7921V563.384H92.7041V568.064H87.1841V563.384H85.0961ZM106.598 575C106.454 574.208 106.406 573.224 106.406 572.216V567.872C106.406 565.544 105.542 563.12 101.99 563.12C100.526 563.12 99.1337 563.528 98.1737 564.152L98.6537 565.544C99.4697 565.016 100.598 564.68 101.678 564.68C104.054 564.68 104.318 566.408 104.318 567.368V567.608C99.8297 567.584 97.3337 569.12 97.3337 571.928C97.3337 573.608 98.5337 575.264 100.886 575.264C102.542 575.264 103.79 574.448 104.438 573.536H104.51L104.678 575H106.598ZM104.366 571.088C104.366 571.304 104.318 571.544 104.246 571.76C103.91 572.744 102.95 573.704 101.438 573.704C100.358 573.704 99.4457 573.056 99.4457 571.688C99.4457 569.432 102.062 569.024 104.366 569.072V571.088ZM122.83 572.984C122.23 573.248 121.438 573.56 120.238 573.56C117.934 573.56 116.206 571.904 116.206 569.216C116.206 566.792 117.646 564.824 120.31 564.824C121.462 564.824 122.254 565.088 122.758 565.376L123.238 563.744C122.662 563.456 121.558 563.144 120.31 563.144C116.518 563.144 114.07 565.736 114.07 569.312C114.07 572.864 116.35 575.24 119.854 575.24C121.414 575.24 122.638 574.856 123.19 574.568L122.83 572.984ZM134.09 575C133.946 574.208 133.898 573.224 133.898 572.216V567.872C133.898 565.544 133.034 563.12 129.482 563.12C128.018 563.12 126.626 563.528 125.666 564.152L126.146 565.544C126.962 565.016 128.09 564.68 129.17 564.68C131.546 564.68 131.81 566.408 131.81 567.368V567.608C127.322 567.584 124.826 569.12 124.826 571.928C124.826 573.608 126.026 575.264 128.378 575.264C130.034 575.264 131.282 574.448 131.93 573.536H132.002L132.17 575H134.09ZM131.858 571.088C131.858 571.304 131.81 571.544 131.738 571.76C131.402 572.744 130.442 573.704 128.93 573.704C127.85 573.704 126.938 573.056 126.938 571.688C126.938 569.432 129.554 569.024 131.858 569.072V571.088ZM136.572 575H138.516L138.804 569.504C138.876 568.232 138.948 566.696 138.996 565.328H139.092C139.38 566.408 139.884 568.088 140.244 569.192L142.308 574.928H143.844L146.076 569.072C146.724 567.296 147.036 566.36 147.348 565.304H147.42C147.468 566.72 147.564 568.208 147.636 569.456L147.9 575H149.916L149.1 563.384H146.484L144.612 568.448C144.156 569.72 143.508 571.568 143.244 572.432H143.196C142.932 571.52 142.428 570.104 142.14 569.24L140.028 563.384H137.436L136.572 575ZM157.564 563.12C154.348 563.12 151.804 565.4 151.804 569.288C151.804 572.96 154.228 575.264 157.372 575.264C160.18 575.264 163.156 573.392 163.156 569.096C163.156 565.544 160.9 563.12 157.564 563.12ZM157.516 564.704C160.012 564.704 160.996 567.2 160.996 569.168C160.996 571.784 159.484 573.68 157.468 573.68C155.404 573.68 153.94 571.76 153.94 569.216C153.94 567.008 155.02 564.704 157.516 564.704ZM165.816 563.384V575H167.904V569.888H168.312C170.28 569.888 171.36 570.752 172.152 572.624C172.512 573.584 172.92 574.496 173.232 575H175.44C174.912 574.064 174.504 572.936 174.192 572.168C173.28 570.08 172.152 568.832 170.28 568.64L175.344 563.384H172.776L168.408 568.424H167.904V563.384H165.816ZM185.887 575C185.743 574.208 185.695 573.224 185.695 572.216V567.872C185.695 565.544 184.831 563.12 181.279 563.12C179.815 563.12 178.423 563.528 177.463 564.152L177.943 565.544C178.759 565.016 179.887 564.68 180.967 564.68C183.343 564.68 183.607 566.408 183.607 567.368V567.608C179.119 567.584 176.623 569.12 176.623 571.928C176.623 573.608 177.823 575.264 180.175 575.264C181.831 575.264 183.079 574.448 183.727 573.536H183.799L183.967 575H185.887ZM183.655 571.088C183.655 571.304 183.607 571.544 183.535 571.76C183.199 572.744 182.239 573.704 180.727 573.704C179.647 573.704 178.735 573.056 178.735 571.688C178.735 569.432 181.351 569.024 183.655 569.072V571.088ZM187.461 563.384V565.064H191.085V575H193.173V565.064H196.797V563.384H187.461ZM206.84 575C206.696 574.208 206.648 573.224 206.648 572.216V567.872C206.648 565.544 205.784 563.12 202.232 563.12C200.768 563.12 199.376 563.528 198.416 564.152L198.896 565.544C199.712 565.016 200.84 564.68 201.92 564.68C204.296 564.68 204.56 566.408 204.56 567.368V567.608C200.072 567.584 197.576 569.12 197.576 571.928C197.576 573.608 198.776 575.264 201.128 575.264C202.784 575.264 204.032 574.448 204.68 573.536H204.752L204.92 575H206.84ZM204.608 571.088C204.608 571.304 204.56 571.544 204.488 571.76C204.152 572.744 203.192 573.704 201.68 573.704C200.6 573.704 199.688 573.056 199.688 571.688C199.688 569.432 202.304 569.024 204.608 569.072V571.088ZM208.698 563.384L212.634 569.072L208.506 575H210.834L212.514 572.384C212.946 571.688 213.354 571.064 213.738 570.368H213.786C214.194 571.064 214.578 571.712 215.034 572.384L216.738 575H219.138L215.058 569L219.018 563.384H216.738L215.106 565.856C214.722 566.48 214.338 567.08 213.954 567.776H213.882C213.498 567.128 213.138 566.528 212.706 565.88L211.05 563.384H208.698Z" fill="white"/>
<rect x="317.393" y="328" width="312" height="258" fill="white" stroke="black" stroke-width="2"/>
<path d="M405.272 401.64V436.2H395.672V419.56H382.232V443.112C382.232 446.568 384.536 449 388.12 449H412.824C416.408 449 418.712 446.568 418.712 443.112V394.728C418.712 391.272 416.408 388.84 412.824 388.84H395.672V372.2H418.072V359.4H382.232V406.76H395.672V401.64H405.272Z" fill="black"/>
<path d="M371.097 476.384V488H373.185V482.744H378.705V488H380.793V476.384H378.705V481.064H373.185V476.384H371.097ZM389.166 476.12C385.95 476.12 383.406 478.4 383.406 482.288C383.406 485.96 385.83 488.264 388.974 488.264C391.782 488.264 394.758 486.392 394.758 482.096C394.758 478.544 392.502 476.12 389.166 476.12ZM389.118 477.704C391.614 477.704 392.598 480.2 392.598 482.168C392.598 484.784 391.086 486.68 389.07 486.68C387.006 486.68 385.542 484.76 385.542 482.216C385.542 480.008 386.622 477.704 389.118 477.704ZM396.992 476.384V480.44C396.992 483.104 398.6 484.232 400.808 484.232C401.912 484.232 403.16 483.872 403.952 483.344H404V488H406.088V476.384H404V481.856C403.352 482.336 402.416 482.672 401.504 482.672C399.656 482.672 399.104 481.664 399.104 480.2V476.384H396.992ZM409.487 476.384V488H411.575V482.744H417.095V488H419.183V476.384H417.095V481.064H411.575V476.384H409.487ZM422.589 476.384V487.952C423.453 488.048 424.533 488.12 425.709 488.12C427.245 488.12 429.117 487.856 430.389 486.776C431.133 486.152 431.589 485.312 431.589 484.088C431.589 481.232 429.069 480.2 426.573 480.2C425.805 480.2 425.133 480.248 424.677 480.344V476.384H422.589ZM424.677 481.832C425.109 481.76 425.637 481.712 426.237 481.712C427.821 481.712 429.501 482.288 429.501 484.16C429.501 485.96 427.749 486.632 426.141 486.632C425.541 486.632 425.085 486.584 424.677 486.536V481.832ZM433.053 476.384V488H435.141V476.384H433.053ZM437.23 476.384L441.166 482.072L437.038 488H439.366L441.046 485.384C441.478 484.688 441.886 484.064 442.27 483.368H442.318C442.726 484.064 443.11 484.712 443.566 485.384L445.27 488H447.67L443.59 482L447.55 476.384H445.27L443.638 478.856C443.254 479.48 442.87 480.08 442.486 480.776H442.414C442.03 480.128 441.67 479.528 441.238 478.88L439.582 476.384H437.23ZM455.753 482.696H456.809C458.561 482.696 460.193 483.128 460.193 484.688C460.193 485.84 459.089 486.68 457.337 486.68C456.233 486.68 455.105 486.344 454.265 485.888L453.713 487.304C454.745 487.88 456.113 488.24 457.481 488.24C459.929 488.24 462.497 487.304 462.497 484.784C462.497 483.08 461.057 482.024 459.329 481.88V481.832C460.625 481.568 461.945 480.632 461.945 479.192C461.945 476.936 459.785 476.144 458.009 476.144C456.665 476.144 455.321 476.48 454.145 477.2L454.673 478.496C455.489 477.992 456.545 477.68 457.481 477.68C458.801 477.68 459.737 478.328 459.737 479.36C459.737 480.44 458.537 481.256 456.761 481.256H455.753V482.696ZM473.481 488C473.337 487.208 473.289 486.224 473.289 485.216V480.872C473.289 478.544 472.425 476.12 468.873 476.12C467.409 476.12 466.017 476.528 465.057 477.152L465.537 478.544C466.353 478.016 467.481 477.68 468.561 477.68C470.937 477.68 471.201 479.408 471.201 480.368V480.608C466.713 480.584 464.217 482.12 464.217 484.928C464.217 486.608 465.417 488.264 467.769 488.264C469.425 488.264 470.673 487.448 471.321 486.536H471.393L471.561 488H473.481ZM471.249 484.088C471.249 484.304 471.201 484.544 471.129 484.76C470.793 485.744 469.833 486.704 468.321 486.704C467.241 486.704 466.329 486.056 466.329 484.688C466.329 482.432 468.945 482.024 471.249 482.072V484.088ZM485.587 470.696C484.795 470.984 483.643 471.176 482.707 471.32C480.451 471.704 478.843 472.448 477.715 474.056C476.467 475.688 475.915 477.848 475.915 480.488C475.915 484.352 477.259 488.264 481.339 488.264C484.747 488.264 486.715 485.912 486.715 482.12C486.715 478.424 484.627 476.384 481.771 476.384C480.115 476.384 478.483 477.32 477.739 479H477.667C477.763 477.776 478.195 476.216 478.939 475.16C479.827 473.888 481.195 473.264 483.067 472.976C483.835 472.856 484.891 472.664 485.491 472.448L485.587 470.696ZM484.579 482.288C484.579 484.424 483.715 486.68 481.387 486.68C479.083 486.68 478.147 483.92 478.147 482C478.147 481.064 478.339 480.224 478.723 479.528C479.203 478.592 480.091 477.944 481.339 477.944C483.835 477.944 484.579 480.392 484.579 482.288ZM498.723 482.576C498.747 482.36 498.795 482.024 498.795 481.592C498.795 479.456 497.787 476.12 493.995 476.12C490.611 476.12 488.547 478.88 488.547 482.384C488.547 485.888 490.683 488.24 494.259 488.24C496.107 488.24 497.379 487.856 498.123 487.52L497.763 486.008C496.971 486.344 496.059 486.608 494.547 486.608C492.435 486.608 490.611 485.432 490.563 482.576H498.723ZM490.587 481.064C490.755 479.6 491.691 477.632 493.827 477.632C496.203 477.632 496.779 479.72 496.755 481.064H490.587ZM501.362 476.384V488H503.45V478.088H508.49V476.384H501.362ZM515.096 476.12C511.88 476.12 509.336 478.4 509.336 482.288C509.336 485.96 511.76 488.264 514.904 488.264C517.712 488.264 520.688 486.392 520.688 482.096C520.688 478.544 518.432 476.12 515.096 476.12ZM515.048 477.704C517.544 477.704 518.528 480.2 518.528 482.168C518.528 484.784 517.016 486.68 515 486.68C512.936 486.68 511.472 484.76 511.472 482.216C511.472 480.008 512.552 477.704 515.048 477.704ZM523.3 488C523.924 488.048 525.268 488.144 526.564 488.144C528.844 488.144 532.684 487.76 532.684 484.712C532.684 483.032 531.436 482.072 529.732 481.832V481.784C531.052 481.496 532.156 480.608 532.156 479.168C532.156 476.576 528.94 476.264 526.996 476.264C525.628 476.264 524.116 476.384 523.3 476.528V488ZM525.316 477.824C525.82 477.776 526.252 477.728 526.948 477.728C529.06 477.728 530.068 478.28 530.068 479.432C530.068 480.8 528.46 481.256 526.9 481.256H525.316V477.824ZM525.292 482.648H526.828C528.844 482.648 530.524 483.008 530.524 484.688C530.524 486.368 528.412 486.704 526.996 486.704C526.324 486.704 525.892 486.68 525.292 486.608V482.648ZM371.097 505.384V517H373.185V511.744H378.705V517H380.793V505.384H378.705V510.064H373.185V505.384H371.097ZM392.598 517C392.454 516.208 392.406 515.224 392.406 514.216V509.872C392.406 507.544 391.542 505.12 387.99 505.12C386.526 505.12 385.134 505.528 384.174 506.152L384.654 507.544C385.47 507.016 386.598 506.68 387.678 506.68C390.054 506.68 390.318 508.408 390.318 509.368V509.608C385.83 509.584 383.334 511.12 383.334 513.928C383.334 515.608 384.534 517.264 386.886 517.264C388.542 517.264 389.79 516.448 390.438 515.536H390.51L390.678 517H392.598ZM390.366 513.088C390.366 513.304 390.318 513.544 390.246 513.76C389.91 514.744 388.95 515.704 387.438 515.704C386.358 515.704 385.446 515.056 385.446 513.688C385.446 511.432 388.062 511.024 390.366 511.072V513.088ZM400.166 516.208C400.934 516.712 402.47 517.264 404.222 517.264C407.966 517.264 409.91 515.08 409.91 512.584C409.91 510.4 408.35 508.96 406.43 508.576V508.528C408.35 507.832 409.31 506.464 409.31 504.856C409.31 502.96 407.918 501.136 404.846 501.136C403.166 501.136 401.582 501.736 400.766 502.336L401.318 503.872C401.99 503.392 403.19 502.84 404.438 502.84C406.382 502.84 407.174 503.944 407.174 505.192C407.174 507.04 405.23 507.832 403.694 507.832H402.518V509.416H403.694C405.734 509.416 407.702 510.352 407.726 512.536C407.75 513.832 406.91 515.56 404.198 515.56C402.734 515.56 401.342 514.96 400.742 514.576L400.166 516.208ZM412.183 510.184V511.624H422.743V510.184H412.183ZM433.855 501.4H426.391L425.383 508.888C425.959 508.816 426.655 508.72 427.543 508.72C430.663 508.72 432.007 510.16 432.031 512.176C432.031 514.264 430.327 515.56 428.335 515.56C426.919 515.56 425.647 515.08 424.999 514.696L424.471 516.304C425.215 516.784 426.655 517.264 428.359 517.264C431.743 517.264 434.167 514.984 434.167 511.936C434.167 509.968 433.159 508.624 431.935 507.928C430.975 507.352 429.775 507.088 428.575 507.088C427.999 507.088 427.663 507.136 427.303 507.184L427.903 503.176H433.855V501.4ZM442.606 505.384V517H444.694V511.888H445.102C447.07 511.888 448.15 512.752 448.942 514.624C449.302 515.584 449.71 516.496 450.022 517H452.23C451.702 516.064 451.294 514.936 450.982 514.168C450.07 512.08 448.942 510.832 447.07 510.64L452.134 505.384H449.566L445.198 510.424H444.694V505.384H442.606ZM453.346 517H455.29L455.578 511.504C455.65 510.232 455.722 508.696 455.77 507.328H455.866C456.154 508.408 456.658 510.088 457.018 511.192L459.082 516.928H460.618L462.85 511.072C463.498 509.296 463.81 508.36 464.122 507.304H464.194C464.242 508.72 464.338 510.208 464.41 511.456L464.674 517H466.69L465.874 505.384H463.258L461.386 510.448C460.93 511.72 460.282 513.568 460.018 514.432H459.97C459.706 513.52 459.202 512.104 458.914 511.24L456.802 505.384H454.21L453.346 517ZM474.456 505.384V517H476.544V507.064H481.944V517H484.056V505.384H474.456ZM492.409 505.12C489.193 505.12 486.649 507.4 486.649 511.288C486.649 514.96 489.073 517.264 492.217 517.264C495.025 517.264 498.001 515.392 498.001 511.096C498.001 507.544 495.745 505.12 492.409 505.12ZM492.361 506.704C494.857 506.704 495.841 509.2 495.841 511.168C495.841 513.784 494.329 515.68 492.313 515.68C490.249 515.68 488.785 513.76 488.785 511.216C488.785 509.008 489.865 506.704 492.361 506.704ZM505.698 505.384V517H507.786V507.064H513.186V517H515.298V505.384H505.698ZM527.083 517C526.939 516.208 526.891 515.224 526.891 514.216V509.872C526.891 507.544 526.027 505.12 522.475 505.12C521.011 505.12 519.619 505.528 518.659 506.152L519.139 507.544C519.955 507.016 521.083 506.68 522.163 506.68C524.539 506.68 524.803 508.408 524.803 509.368V509.608C520.315 509.584 517.819 511.12 517.819 513.928C517.819 515.608 519.019 517.264 521.371 517.264C523.027 517.264 524.275 516.448 524.923 515.536H524.995L525.163 517H527.083ZM524.851 513.088C524.851 513.304 524.803 513.544 524.731 513.76C524.395 514.744 523.435 515.704 521.923 515.704C520.843 515.704 519.931 515.056 519.931 513.688C519.931 511.432 522.547 511.024 524.851 511.072V513.088ZM530.309 521.752H532.397V515.44H532.445C533.141 516.592 534.485 517.264 536.021 517.264C538.757 517.264 541.301 515.2 541.301 511.024C541.301 507.496 539.189 505.12 536.381 505.12C534.485 505.12 533.117 505.96 532.253 507.376H532.205L532.109 505.384H530.213C530.261 506.488 530.309 507.688 530.309 509.176V521.752ZM532.397 510.28C532.397 509.992 532.469 509.68 532.541 509.416C532.949 507.832 534.293 506.8 535.733 506.8C537.965 506.8 539.189 508.792 539.189 511.12C539.189 513.784 537.893 515.608 535.661 515.608C534.149 515.608 532.877 514.6 532.493 513.136C532.445 512.872 532.397 512.584 532.397 512.272V510.28ZM543.973 505.384V517H546.061V511.888H546.469C548.437 511.888 549.517 512.752 550.309 514.624C550.669 515.584 551.077 516.496 551.389 517H553.597C553.069 516.064 552.661 514.936 552.349 514.168C551.437 512.08 550.309 510.832 548.437 510.64L553.501 505.384H550.933L546.565 510.424H546.061V505.384H543.973ZM564.044 517C563.9 516.208 563.852 515.224 563.852 514.216V509.872C563.852 507.544 562.988 505.12 559.436 505.12C557.972 505.12 556.58 505.528 555.62 506.152L556.1 507.544C556.916 507.016 558.044 506.68 559.124 506.68C561.5 506.68 561.764 508.408 561.764 509.368V509.608C557.276 509.584 554.78 511.12 554.78 513.928C554.78 515.608 555.98 517.264 558.332 517.264C559.988 517.264 561.236 516.448 561.884 515.536H561.956L562.124 517H564.044ZM561.812 513.088C561.812 513.304 561.764 513.544 561.692 513.76C561.356 514.744 560.396 515.704 558.884 515.704C557.804 515.704 556.892 515.056 556.892 513.688C556.892 511.432 559.508 511.024 561.812 511.072V513.088ZM566.526 517H568.47L568.758 511.504C568.83 510.232 568.902 508.696 568.95 507.328H569.046C569.334 508.408 569.838 510.088 570.198 511.192L572.262 516.928H573.798L576.03 511.072C576.678 509.296 576.99 508.36 577.302 507.304H577.374C577.422 508.72 577.518 510.208 577.59 511.456L577.854 517H579.87L579.054 505.384H576.438L574.566 510.448C574.11 511.72 573.462 513.568 573.198 514.432H573.15C572.886 513.52 572.382 512.104 572.094 511.24L569.982 505.384H567.39L566.526 517ZM385.257 546H387.297L386.289 529.824H383.625L380.745 537.648C380.025 539.688 379.449 541.464 379.041 543.096H378.969C378.561 541.416 378.009 539.64 377.337 537.648L374.577 529.824H371.913L370.785 546H372.777L373.209 539.064C373.353 536.64 373.473 533.928 373.521 531.912H373.569C374.025 533.832 374.673 535.92 375.441 538.2L378.057 545.904H379.641L382.497 538.056C383.313 535.824 383.985 533.808 384.537 531.912H384.609C384.585 533.928 384.729 536.64 384.849 538.896L385.257 546ZM395.354 534.12C392.138 534.12 389.594 536.4 389.594 540.288C389.594 543.96 392.018 546.264 395.162 546.264C397.97 546.264 400.946 544.392 400.946 540.096C400.946 536.544 398.69 534.12 395.354 534.12ZM395.306 535.704C397.802 535.704 398.786 538.2 398.786 540.168C398.786 542.784 397.274 544.68 395.258 544.68C393.194 544.68 391.73 542.76 391.73 540.216C391.73 538.008 392.81 535.704 395.306 535.704ZM411.526 543.984C410.926 544.248 410.134 544.56 408.934 544.56C406.63 544.56 404.902 542.904 404.902 540.216C404.902 537.792 406.342 535.824 409.006 535.824C410.158 535.824 410.95 536.088 411.454 536.376L411.934 534.744C411.358 534.456 410.254 534.144 409.006 534.144C405.214 534.144 402.766 536.736 402.766 540.312C402.766 543.864 405.046 546.24 408.55 546.24C410.11 546.24 411.334 545.856 411.886 545.568L411.526 543.984ZM414.364 534.384V546H416.452V540.888H416.86C418.828 540.888 419.908 541.752 420.7 543.624C421.06 544.584 421.468 545.496 421.78 546H423.988C423.46 545.064 423.052 543.936 422.74 543.168C421.828 541.08 420.7 539.832 418.828 539.64L423.892 534.384H421.324L416.956 539.424H416.452V534.384H414.364ZM425.8 546C426.424 546.048 427.768 546.144 429.064 546.144C431.344 546.144 435.184 545.76 435.184 542.712C435.184 541.032 433.936 540.072 432.232 539.832V539.784C433.552 539.496 434.656 538.608 434.656 537.168C434.656 534.576 431.44 534.264 429.496 534.264C428.128 534.264 426.616 534.384 425.8 534.528V546ZM427.816 535.824C428.32 535.776 428.752 535.728 429.448 535.728C431.56 535.728 432.568 536.28 432.568 537.432C432.568 538.8 430.96 539.256 429.4 539.256H427.816V535.824ZM427.792 540.648H429.328C431.344 540.648 433.024 541.008 433.024 542.688C433.024 544.368 430.912 544.704 429.496 544.704C428.824 544.704 428.392 544.68 427.792 544.608V540.648ZM437.8 534.384V545.952C438.664 546.048 439.744 546.12 440.92 546.12C442.456 546.12 444.328 545.856 445.6 544.776C446.344 544.152 446.8 543.312 446.8 542.088C446.8 539.232 444.28 538.2 441.784 538.2C441.016 538.2 440.344 538.248 439.888 538.344V534.384H437.8ZM439.888 539.832C440.32 539.76 440.848 539.712 441.448 539.712C443.032 539.712 444.712 540.288 444.712 542.16C444.712 543.96 442.96 544.632 441.352 544.632C440.752 544.632 440.296 544.584 439.888 544.536V539.832ZM448.264 534.384V546H450.352V534.384H448.264Z" fill="black"/>
</svg>
