<svg width="1200" height="411" viewBox="0 0 1200 411" fill="none" xmlns="http://www.w3.org/2000/svg">
<rect x="90.4885" width="230" height="349.621" transform="rotate(15 90.4885 0)" fill="#2F54A1"/>
<path d="M74.56 122.2H80.32V199H93.76V109.4H74.56V122.2ZM115.53 186.2V122.2H125.13V186.2H115.53ZM132.682 199C136.266 199 138.57 196.568 138.57 193.112V115.288C138.57 111.832 136.266 109.4 132.682 109.4H107.978C104.394 109.4 102.09 111.832 102.09 115.288V193.112C102.09 196.568 104.394 199 107.978 199H132.682Z" fill="white"/>
<path d="M83.4 226.384V231.064C83.4 233.656 83.28 235.288 82.2 236.08C81.912 236.32 81.456 236.488 81.048 236.56L81.264 238.216C82.344 238.216 82.992 237.952 83.568 237.496C85.08 236.512 85.392 234.328 85.392 231.064V228.04H89.376V238H91.464V226.384H83.4ZM99.8361 226.12C96.6201 226.12 94.0761 228.4 94.0761 232.288C94.0761 235.96 96.5001 238.264 99.6441 238.264C102.452 238.264 105.428 236.392 105.428 232.096C105.428 228.544 103.172 226.12 99.8361 226.12ZM99.7881 227.704C102.284 227.704 103.268 230.2 103.268 232.168C103.268 234.784 101.756 236.68 99.7401 236.68C97.6761 236.68 96.2121 234.76 96.2121 232.216C96.2121 230.008 97.2921 227.704 99.7881 227.704ZM108.088 226.384V238H110.176V232.888H110.584C112.552 232.888 113.632 233.752 114.424 235.624C114.784 236.584 115.192 237.496 115.504 238H117.712C117.184 237.064 116.776 235.936 116.464 235.168C115.552 233.08 114.424 231.832 112.552 231.64L117.616 226.384H115.048L110.68 231.424H110.176V226.384H108.088ZM128.159 238C128.015 237.208 127.967 236.224 127.967 235.216V230.872C127.967 228.544 127.103 226.12 123.551 226.12C122.087 226.12 120.695 226.528 119.735 227.152L120.215 228.544C121.031 228.016 122.159 227.68 123.239 227.68C125.615 227.68 125.879 229.408 125.879 230.368V230.608C121.391 230.584 118.895 232.12 118.895 234.928C118.895 236.608 120.095 238.264 122.447 238.264C124.103 238.264 125.351 237.448 125.999 236.536H126.071L126.239 238H128.159ZM125.927 234.088C125.927 234.304 125.879 234.544 125.807 234.76C125.471 235.744 124.511 236.704 122.999 236.704C121.919 236.704 121.007 236.056 121.007 234.688C121.007 232.432 123.623 232.024 125.927 232.072V234.088ZM131.337 226.384V238H140.217L140.313 241.696H141.945L142.065 236.44L140.865 236.416V226.384H138.777V236.344H133.425V226.384H131.337ZM144.532 226.384V238H146.956C148.204 235.96 149.476 233.728 150.58 231.928C151.252 230.752 151.756 229.816 152.5 228.328H152.572C152.476 230.2 152.428 231.184 152.428 233.08V238H154.444V226.384H151.972L148.348 232.384C147.58 233.728 147.172 234.544 146.476 235.96L146.404 235.936C146.5 234.28 146.524 233.128 146.524 231.28V226.384H144.532ZM157.821 226.384V238H160.245C161.493 235.96 162.765 233.728 163.869 231.928C164.541 230.752 165.045 229.816 165.789 228.328H165.861C165.765 230.2 165.717 231.184 165.717 233.08V238H167.733V226.384H165.261L161.637 232.384C160.869 233.728 160.461 234.544 159.765 235.96L159.693 235.936C159.789 234.28 159.813 233.128 159.813 231.28V226.384H157.821ZM159.645 221.656C159.741 223.312 160.557 224.632 162.669 224.632C164.517 224.632 165.765 223.624 165.861 221.656H164.349C164.229 222.712 163.749 223.48 162.717 223.48C161.757 223.48 161.253 222.688 161.181 221.656H159.645ZM82.704 255.384V267H84.792V257.064H90.192V267H92.304V255.384H82.704ZM100.656 255.12C97.4404 255.12 94.8964 257.4 94.8964 261.288C94.8964 264.96 97.3204 267.264 100.464 267.264C103.272 267.264 106.248 265.392 106.248 261.096C106.248 257.544 103.992 255.12 100.656 255.12ZM100.608 256.704C103.104 256.704 104.088 259.2 104.088 261.168C104.088 263.784 102.576 265.68 100.56 265.68C98.4964 265.68 97.0324 263.76 97.0324 261.216C97.0324 259.008 98.1124 256.704 100.608 256.704ZM113.946 267C114.57 267.048 115.914 267.144 117.21 267.144C119.49 267.144 123.33 266.76 123.33 263.712C123.33 262.032 122.082 261.072 120.378 260.832V260.784C121.698 260.496 122.802 259.608 122.802 258.168C122.802 255.576 119.586 255.264 117.642 255.264C116.274 255.264 114.762 255.384 113.946 255.528V267ZM115.962 256.824C116.466 256.776 116.898 256.728 117.594 256.728C119.706 256.728 120.714 257.28 120.714 258.432C120.714 259.8 119.106 260.256 117.546 260.256H115.962V256.824ZM115.938 261.648H117.474C119.49 261.648 121.17 262.008 121.17 263.688C121.17 265.368 119.058 265.704 117.642 265.704C116.97 265.704 116.538 265.68 115.938 265.608V261.648ZM133.914 264.984C133.314 265.248 132.522 265.56 131.322 265.56C129.018 265.56 127.29 263.904 127.29 261.216C127.29 258.792 128.73 256.824 131.394 256.824C132.546 256.824 133.338 257.088 133.842 257.376L134.322 255.744C133.746 255.456 132.642 255.144 131.394 255.144C127.602 255.144 125.154 257.736 125.154 261.312C125.154 264.864 127.434 267.24 130.938 267.24C132.498 267.24 133.722 266.856 134.274 266.568L133.914 264.984ZM145.947 261.576C145.971 261.36 146.019 261.024 146.019 260.592C146.019 258.456 145.011 255.12 141.219 255.12C137.835 255.12 135.771 257.88 135.771 261.384C135.771 264.888 137.907 267.24 141.483 267.24C143.331 267.24 144.603 266.856 145.347 266.52L144.987 265.008C144.195 265.344 143.283 265.608 141.771 265.608C139.659 265.608 137.835 264.432 137.787 261.576H145.947ZM137.811 260.064C137.979 258.6 138.915 256.632 141.051 256.632C143.427 256.632 144.003 258.72 143.979 260.064H137.811ZM147.891 267H149.835L150.123 261.504C150.195 260.232 150.267 258.696 150.315 257.328H150.411C150.699 258.408 151.203 260.088 151.563 261.192L153.627 266.928H155.163L157.395 261.072C158.043 259.296 158.355 258.36 158.667 257.304H158.739C158.787 258.72 158.883 260.208 158.955 261.456L159.219 267H161.235L160.419 255.384H157.803L155.931 260.448C155.475 261.72 154.827 263.568 154.563 264.432H154.515C154.251 263.52 153.747 262.104 153.459 261.24L151.347 255.384H148.755L147.891 267ZM162.31 255.384L166.606 266.088C166.702 266.352 166.75 266.52 166.75 266.64C166.75 266.76 166.678 266.928 166.582 267.144C166.102 268.224 165.382 269.04 164.806 269.496C164.182 270.024 163.486 270.36 162.958 270.528L163.486 272.304C164.014 272.208 165.046 271.848 166.078 270.936C167.518 269.688 168.55 267.648 170.062 263.664L173.23 255.384H170.998L168.694 262.2C168.406 263.04 168.166 263.928 167.95 264.624H167.902C167.71 263.928 167.422 263.016 167.158 262.248L164.614 255.384H162.31ZM180.181 255.384V267H182.269V257.088H187.309V255.384H180.181ZM193.914 255.12C190.698 255.12 188.154 257.4 188.154 261.288C188.154 264.96 190.578 267.264 193.722 267.264C196.53 267.264 199.506 265.392 199.506 261.096C199.506 257.544 197.25 255.12 193.914 255.12ZM193.866 256.704C196.362 256.704 197.346 259.2 197.346 261.168C197.346 263.784 195.834 265.68 193.818 265.68C191.754 265.68 190.29 263.76 190.29 261.216C190.29 259.008 191.37 256.704 193.866 256.704ZM202.166 271.752H204.254V265.44H204.302C204.998 266.592 206.342 267.264 207.878 267.264C210.614 267.264 213.158 265.2 213.158 261.024C213.158 257.496 211.046 255.12 208.238 255.12C206.342 255.12 204.974 255.96 204.11 257.376H204.062L203.966 255.384H202.07C202.118 256.488 202.166 257.688 202.166 259.176V271.752ZM204.254 260.28C204.254 259.992 204.326 259.68 204.398 259.416C204.806 257.832 206.15 256.8 207.59 256.8C209.822 256.8 211.046 258.792 211.046 261.12C211.046 263.784 209.75 265.608 207.518 265.608C206.006 265.608 204.734 264.6 204.35 263.136C204.302 262.872 204.254 262.584 204.254 262.272V260.28ZM220.75 255.12C217.534 255.12 214.99 257.4 214.99 261.288C214.99 264.96 217.414 267.264 220.558 267.264C223.366 267.264 226.342 265.392 226.342 261.096C226.342 257.544 224.086 255.12 220.75 255.12ZM220.702 256.704C223.198 256.704 224.182 259.2 224.182 261.168C224.182 263.784 222.67 265.68 220.654 265.68C218.59 265.68 217.126 263.76 217.126 261.216C217.126 259.008 218.206 256.704 220.702 256.704ZM230.086 255.384V258.408C230.086 260.04 229.87 261.6 229.414 263.04C229.15 263.88 228.766 264.672 228.262 265.416L227.278 265.44L227.374 270.696H229.03L229.126 267H237.166L237.262 270.696H238.918L239.038 265.44L237.838 265.416V255.384H230.086ZM231.958 256.992H235.774V265.392H230.422C230.782 264.744 231.118 264.024 231.358 263.232C231.742 261.936 231.958 260.448 231.958 258.912V256.992ZM239.958 255.384L244.254 266.088C244.35 266.352 244.398 266.52 244.398 266.64C244.398 266.76 244.326 266.928 244.23 267.144C243.75 268.224 243.03 269.04 242.454 269.496C241.83 270.024 241.134 270.36 240.606 270.528L241.134 272.304C241.662 272.208 242.694 271.848 243.726 270.936C245.166 269.688 246.198 267.648 247.71 263.664L250.878 255.384H248.646L246.342 262.2C246.054 263.04 245.814 263.928 245.598 264.624H245.55C245.358 263.928 245.07 263.016 244.806 262.248L242.262 255.384H239.958Z" fill="white"/>
<rect x="274" y="93.2222" width="248.592" height="311" transform="rotate(-18.1508 274 93.2222)" fill="#1C1D18"/>
<path d="M443.68 115.288C443.68 111.832 441.376 109.4 437.792 109.4H413.088C409.504 109.4 407.2 111.832 407.2 115.288V135H420.64V122.2H430.24V135L407.2 180.44V199H443.68V186.2H420.64V182.232L443.68 136.792V115.288ZM464.155 186.2V122.2H473.755V186.2H464.155ZM481.307 199C484.891 199 487.195 196.568 487.195 193.112V115.288C487.195 111.832 484.891 109.4 481.307 109.4H456.603C453.019 109.4 450.715 111.832 450.715 115.288V193.112C450.715 196.568 453.019 199 456.603 199H481.307Z" fill="white"/>
<path opacity="0.5" d="M383.08 193.87L383.08 190.26L392.2 190.26L392.2 193.87L383.08 193.87ZM379.28 193.87L373.2 193.87L373.2 186.65L369.4 186.65L369.4 197.86L396 197.86L396 188.018C396 186.954 395.278 186.27 394.252 186.27L381.028 186.27C380.002 186.27 379.28 186.954 379.28 188.018L379.28 193.87ZM392.2 180.177L373.2 180.177L373.2 176.187L392.2 176.187L392.2 180.177ZM396 173.945C396 172.881 395.278 172.197 394.252 172.197L371.148 172.197C370.122 172.197 369.4 172.881 369.4 173.945L369.4 182.419C369.4 183.483 370.122 184.167 371.148 184.167L394.252 184.167C395.278 184.167 396 183.483 396 182.419L396 173.945ZM373.2 164.293L373.2 162.317L396 162.317L396 158.327L369.4 158.327L369.4 168.055L392.2 169.347L392.2 170.867L396 170.867L396 165.585L373.2 164.293ZM383.08 152.048L383.08 148.438L392.2 148.438L392.2 152.048L383.08 152.048ZM396 146.196C396 145.132 395.278 144.448 394.252 144.448L381.028 144.448C380.002 144.448 379.28 145.132 379.28 146.196L379.28 152.048L369.4 152.048L369.4 156.038L396 156.038L396 146.196ZM396 123.914L369.4 123.914L369.4 127.904L392.2 127.904L392.2 131.134L369.4 131.134L369.4 135.124L392.2 135.124L392.2 138.354L369.4 138.354L369.4 142.344L396 142.344L396 123.914ZM396 121.637L396 111.757L392.2 111.757L392.2 117.647L383.46 117.647L383.46 111.947L379.66 111.947L379.66 117.647L373.2 117.647L373.2 111.757L369.4 111.757L369.4 121.637L396 121.637Z" fill="white"/>
<path d="M377.104 238C376.96 237.208 376.912 236.224 376.912 235.216V230.872C376.912 228.544 376.048 226.12 372.496 226.12C371.032 226.12 369.64 226.528 368.68 227.152L369.16 228.544C369.976 228.016 371.104 227.68 372.184 227.68C374.56 227.68 374.824 229.408 374.824 230.368V230.608C370.336 230.584 367.84 232.12 367.84 234.928C367.84 236.608 369.04 238.264 371.392 238.264C373.048 238.264 374.296 237.448 374.944 236.536H375.016L375.184 238H377.104ZM374.872 234.088C374.872 234.304 374.824 234.544 374.752 234.76C374.416 235.744 373.456 236.704 371.944 236.704C370.864 236.704 369.952 236.056 369.952 234.688C369.952 232.432 372.568 232.024 374.872 232.072V234.088ZM380.33 226.384V238H382.418V232.888H382.826C384.794 232.888 385.874 233.752 386.666 235.624C387.026 236.584 387.434 237.496 387.746 238H389.954C389.426 237.064 389.018 235.936 388.706 235.168C387.794 233.08 386.666 231.832 384.794 231.64L389.858 226.384H387.29L382.922 231.424H382.418V226.384H380.33ZM390.725 226.384V228.064H394.349V238H396.437V228.064H400.061V226.384H390.725ZM401.868 226.384V238H404.292C405.54 235.96 406.812 233.728 407.916 231.928C408.588 230.752 409.092 229.816 409.836 228.328H409.908C409.812 230.2 409.764 231.184 409.764 233.08V238H411.78V226.384H409.308L405.684 232.384C404.916 233.728 404.508 234.544 403.812 235.96L403.74 235.936C403.836 234.28 403.86 233.128 403.86 231.28V226.384H401.868ZM415.157 238C415.781 238.048 417.125 238.144 418.421 238.144C420.701 238.144 424.541 237.76 424.541 234.712C424.541 233.032 423.293 232.072 421.589 231.832V231.784C422.909 231.496 424.013 230.608 424.013 229.168C424.013 226.576 420.797 226.264 418.853 226.264C417.485 226.264 415.973 226.384 415.157 226.528V238ZM417.173 227.824C417.677 227.776 418.109 227.728 418.805 227.728C420.917 227.728 421.925 228.28 421.925 229.432C421.925 230.8 420.317 231.256 418.757 231.256H417.173V227.824ZM417.149 232.648H418.685C420.701 232.648 422.381 233.008 422.381 234.688C422.381 236.368 420.269 236.704 418.853 236.704C418.181 236.704 417.749 236.68 417.149 236.608V232.648ZM427.157 226.384V238H429.245V232.744H434.765V238H436.853V226.384H434.765V231.064H429.245V226.384H427.157ZM445.227 226.12C442.011 226.12 439.467 228.4 439.467 232.288C439.467 235.96 441.891 238.264 445.035 238.264C447.843 238.264 450.819 236.392 450.819 232.096C450.819 228.544 448.563 226.12 445.227 226.12ZM445.179 227.704C447.675 227.704 448.659 230.2 448.659 232.168C448.659 234.784 447.147 236.68 445.131 236.68C443.067 236.68 441.603 234.76 441.603 232.216C441.603 230.008 442.683 227.704 445.179 227.704ZM461.399 235.984C460.799 236.248 460.007 236.56 458.807 236.56C456.503 236.56 454.775 234.904 454.775 232.216C454.775 229.792 456.215 227.824 458.879 227.824C460.031 227.824 460.823 228.088 461.327 228.376L461.807 226.744C461.231 226.456 460.127 226.144 458.879 226.144C455.087 226.144 452.639 228.736 452.639 232.312C452.639 235.864 454.919 238.24 458.423 238.24C459.983 238.24 461.207 237.856 461.759 237.568L461.399 235.984ZM463.123 226.384V228.064H466.747V238H468.835V228.064H472.459V226.384H463.123ZM483.346 232.576C483.37 232.36 483.418 232.024 483.418 231.592C483.418 229.456 482.41 226.12 478.618 226.12C475.234 226.12 473.17 228.88 473.17 232.384C473.17 235.888 475.306 238.24 478.882 238.24C480.73 238.24 482.002 237.856 482.746 237.52L482.386 236.008C481.594 236.344 480.682 236.608 479.17 236.608C477.058 236.608 475.234 235.432 475.186 232.576H483.346ZM475.21 231.064C475.378 229.6 476.314 227.632 478.45 227.632C480.826 227.632 481.402 229.72 481.378 231.064H475.21ZM485.985 226.384V238H488.409C489.657 235.96 490.929 233.728 492.033 231.928C492.705 230.752 493.209 229.816 493.953 228.328H494.025C493.929 230.2 493.881 231.184 493.881 233.08V238H495.897V226.384H493.425L489.801 232.384C489.033 233.728 488.625 234.544 487.929 235.96L487.857 235.936C487.953 234.28 487.977 233.128 487.977 231.28V226.384H485.985ZM487.809 221.656C487.905 223.312 488.721 224.632 490.833 224.632C492.681 224.632 493.929 223.624 494.025 221.656H492.513C492.393 222.712 491.913 223.48 490.881 223.48C489.921 223.48 489.417 222.688 489.345 221.656H487.809ZM373.672 255.12C370.456 255.12 367.912 257.4 367.912 261.288C367.912 264.96 370.336 267.264 373.48 267.264C376.288 267.264 379.264 265.392 379.264 261.096C379.264 257.544 377.008 255.12 373.672 255.12ZM373.624 256.704C376.12 256.704 377.104 259.2 377.104 261.168C377.104 263.784 375.592 265.68 373.576 265.68C371.512 265.68 370.048 263.76 370.048 261.216C370.048 259.008 371.128 256.704 373.624 256.704ZM380.248 255.384V257.064H383.872V267H385.96V257.064H389.584V255.384H380.248ZM395.202 255.384V257.064H398.826V267H400.914V257.064H404.538V255.384H395.202ZM406.393 271.752H408.481V265.44H408.529C409.225 266.592 410.569 267.264 412.105 267.264C414.841 267.264 417.385 265.2 417.385 261.024C417.385 257.496 415.273 255.12 412.465 255.12C410.569 255.12 409.201 255.96 408.337 257.376H408.289L408.193 255.384H406.297C406.345 256.488 406.393 257.688 406.393 259.176V271.752ZM408.481 260.28C408.481 259.992 408.553 259.68 408.625 259.416C409.033 257.832 410.377 256.8 411.817 256.8C414.049 256.8 415.273 258.792 415.273 261.12C415.273 263.784 413.977 265.608 411.745 265.608C410.233 265.608 408.961 264.6 408.577 263.136C408.529 262.872 408.481 262.584 408.481 262.272V260.28ZM429.393 261.576C429.417 261.36 429.465 261.024 429.465 260.592C429.465 258.456 428.457 255.12 424.665 255.12C421.281 255.12 419.217 257.88 419.217 261.384C419.217 264.888 421.353 267.24 424.929 267.24C426.777 267.24 428.049 266.856 428.793 266.52L428.433 265.008C427.641 265.344 426.729 265.608 425.217 265.608C423.105 265.608 421.281 264.432 421.233 261.576H429.393ZM421.257 260.064C421.425 258.6 422.361 256.632 424.497 256.632C426.873 256.632 427.449 258.72 427.425 260.064H421.257ZM432.032 255.384V267H434.12V261.744H439.64V267H441.728V255.384H439.64V260.064H434.12V255.384H432.032ZM445.134 255.384V267H447.558C448.806 264.96 450.078 262.728 451.182 260.928C451.854 259.752 452.358 258.816 453.102 257.328H453.174C453.078 259.2 453.03 260.184 453.03 262.08V267H455.046V255.384H452.574L448.95 261.384C448.182 262.728 447.774 263.544 447.078 264.96L447.006 264.936C447.102 263.28 447.126 262.128 447.126 260.28V255.384H445.134ZM458.471 271.752H460.559V265.44H460.607C461.303 266.592 462.647 267.264 464.183 267.264C466.919 267.264 469.463 265.2 469.463 261.024C469.463 257.496 467.351 255.12 464.543 255.12C462.647 255.12 461.279 255.96 460.415 257.376H460.367L460.271 255.384H458.375C458.423 256.488 458.471 257.688 458.471 259.176V271.752ZM460.559 260.28C460.559 259.992 460.631 259.68 460.703 259.416C461.111 257.832 462.455 256.8 463.895 256.8C466.127 256.8 467.351 258.792 467.351 261.12C467.351 263.784 466.055 265.608 463.823 265.608C462.311 265.608 461.039 264.6 460.655 263.136C460.607 262.872 460.559 262.584 460.559 262.272V260.28ZM477.055 255.12C473.839 255.12 471.295 257.4 471.295 261.288C471.295 264.96 473.719 267.264 476.863 267.264C479.671 267.264 482.647 265.392 482.647 261.096C482.647 257.544 480.391 255.12 477.055 255.12ZM477.007 256.704C479.503 256.704 480.487 259.2 480.487 261.168C480.487 263.784 478.975 265.68 476.959 265.68C474.895 265.68 473.431 263.76 473.431 261.216C473.431 259.008 474.511 256.704 477.007 256.704ZM485.259 267C485.883 267.048 487.227 267.144 488.523 267.144C490.803 267.144 494.643 266.76 494.643 263.712C494.643 262.032 493.395 261.072 491.691 260.832V260.784C493.011 260.496 494.115 259.608 494.115 258.168C494.115 255.576 490.899 255.264 488.955 255.264C487.587 255.264 486.075 255.384 485.259 255.528V267ZM487.275 256.824C487.779 256.776 488.211 256.728 488.907 256.728C491.019 256.728 492.027 257.28 492.027 258.432C492.027 259.8 490.419 260.256 488.859 260.256H487.275V256.824ZM487.251 261.648H488.787C490.803 261.648 492.483 262.008 492.483 263.688C492.483 265.368 490.371 265.704 488.955 265.704C488.283 265.704 487.851 265.68 487.251 265.608V261.648ZM502.227 255.12C499.011 255.12 496.467 257.4 496.467 261.288C496.467 264.96 498.891 267.264 502.035 267.264C504.843 267.264 507.819 265.392 507.819 261.096C507.819 257.544 505.563 255.12 502.227 255.12ZM502.179 256.704C504.675 256.704 505.659 259.2 505.659 261.168C505.659 263.784 504.147 265.68 502.131 265.68C500.067 265.68 498.603 263.76 498.603 261.216C498.603 259.008 499.683 256.704 502.179 256.704ZM510.479 255.384V267H512.567V261.888H512.975C514.943 261.888 516.023 262.752 516.815 264.624C517.175 265.584 517.583 266.496 517.895 267H520.103C519.575 266.064 519.167 264.936 518.855 264.168C517.943 262.08 516.815 260.832 514.943 260.64L520.007 255.384H517.439L513.071 260.424H512.567V255.384H510.479ZM370 284.384V287.408C370 289.04 369.784 290.6 369.328 292.04C369.064 292.88 368.68 293.672 368.176 294.416L367.192 294.44L367.288 299.696H368.944L369.04 296H377.08L377.176 299.696H378.832L378.952 294.44L377.752 294.416V284.384H370ZM371.872 285.992H375.688V294.392H370.336C370.696 293.744 371.032 293.024 371.272 292.232C371.656 290.936 371.872 289.448 371.872 287.912V285.992ZM386.305 284.12C383.089 284.12 380.545 286.4 380.545 290.288C380.545 293.96 382.969 296.264 386.113 296.264C388.921 296.264 391.897 294.392 391.897 290.096C391.897 286.544 389.641 284.12 386.305 284.12ZM386.257 285.704C388.753 285.704 389.737 288.2 389.737 290.168C389.737 292.784 388.225 294.68 386.209 294.68C384.145 294.68 382.681 292.76 382.681 290.216C382.681 288.008 383.761 285.704 386.257 285.704ZM400.123 290.816H405.955C405.763 293.12 404.203 294.584 401.875 294.584C400.507 294.584 399.523 294.2 398.971 293.96L398.563 295.472C399.499 295.952 400.699 296.264 401.947 296.264C405.883 296.264 408.115 293.624 408.115 290.24C408.115 288.344 407.515 286.808 406.531 285.776C405.499 284.696 403.987 284.12 402.307 284.12C401.083 284.12 399.739 284.456 398.731 285.032L399.187 286.4C399.811 286.112 400.747 285.752 401.971 285.752C404.563 285.752 405.787 287.384 405.979 289.376H400.123V290.816ZM410.775 284.384V296H412.863V290.888H413.271C415.239 290.888 416.319 291.752 417.111 293.624C417.471 294.584 417.879 295.496 418.191 296H420.399C419.871 295.064 419.463 293.936 419.151 293.168C418.239 291.08 417.111 289.832 415.239 289.64L420.303 284.384H417.735L413.367 289.424H412.863V284.384H410.775ZM430.039 293.984C429.439 294.248 428.647 294.56 427.447 294.56C425.143 294.56 423.415 292.904 423.415 290.216C423.415 287.792 424.855 285.824 427.519 285.824C428.671 285.824 429.463 286.088 429.967 286.376L430.447 284.744C429.871 284.456 428.767 284.144 427.519 284.144C423.727 284.144 421.279 286.736 421.279 290.312C421.279 293.864 423.559 296.24 427.063 296.24C428.623 296.24 429.847 295.856 430.399 295.568L430.039 293.984ZM432.877 284.384V296H434.965V290.888H435.373C437.341 290.888 438.421 291.752 439.213 293.624C439.573 294.584 439.981 295.496 440.293 296H442.501C441.973 295.064 441.565 293.936 441.253 293.168C440.341 291.08 439.213 289.832 437.341 289.64L442.405 284.384H439.837L435.469 289.424H434.965V284.384H432.877ZM442.989 284.384L447.285 295.088C447.381 295.352 447.429 295.52 447.429 295.64C447.429 295.76 447.357 295.928 447.261 296.144C446.781 297.224 446.061 298.04 445.485 298.496C444.861 299.024 444.165 299.36 443.637 299.528L444.165 301.304C444.693 301.208 445.725 300.848 446.757 299.936C448.197 298.688 449.229 296.648 450.741 292.664L453.909 284.384H451.677L449.373 291.2C449.085 292.04 448.845 292.928 448.629 293.624H448.581C448.389 292.928 448.101 292.016 447.837 291.248L445.293 284.384H442.989ZM455.822 300.752H457.91V294.44H457.958C458.654 295.592 459.998 296.264 461.534 296.264C464.27 296.264 466.814 294.2 466.814 290.024C466.814 286.496 464.702 284.12 461.894 284.12C459.998 284.12 458.63 284.96 457.766 286.376H457.718L457.622 284.384H455.726C455.774 285.488 455.822 286.688 455.822 288.176V300.752ZM457.91 289.28C457.91 288.992 457.982 288.68 458.054 288.416C458.462 286.832 459.806 285.8 461.246 285.8C463.478 285.8 464.702 287.792 464.702 290.12C464.702 292.784 463.406 294.608 461.174 294.608C459.662 294.608 458.39 293.6 458.006 292.136C457.958 291.872 457.91 291.584 457.91 291.272V289.28ZM477.406 293.984C476.806 294.248 476.014 294.56 474.814 294.56C472.51 294.56 470.782 292.904 470.782 290.216C470.782 287.792 472.222 285.824 474.886 285.824C476.038 285.824 476.83 286.088 477.334 286.376L477.814 284.744C477.238 284.456 476.134 284.144 474.886 284.144C471.094 284.144 468.646 286.736 468.646 290.312C468.646 293.864 470.926 296.24 474.43 296.24C475.99 296.24 477.214 295.856 477.766 295.568L477.406 293.984ZM480.196 284.384V296H482.62C483.868 293.96 485.14 291.728 486.244 289.928C486.916 288.752 487.42 287.816 488.164 286.328H488.236C488.14 288.2 488.092 289.184 488.092 291.08V296H490.108V284.384H487.636L484.012 290.384C483.244 291.728 482.836 292.544 482.14 293.96L482.068 293.936C482.164 292.28 482.188 291.128 482.188 289.28V284.384H480.196ZM493.485 284.384V296H495.909C497.157 293.96 498.429 291.728 499.533 289.928C500.205 288.752 500.709 287.816 501.453 286.328H501.525C501.429 288.2 501.381 289.184 501.381 291.08V296H503.397V284.384H500.925L497.301 290.384C496.533 291.728 496.125 292.544 495.429 293.96L495.357 293.936C495.453 292.28 495.477 291.128 495.477 289.28V284.384H493.485ZM495.309 279.656C495.405 281.312 496.221 282.632 498.333 282.632C500.181 282.632 501.429 281.624 501.525 279.656H500.013C499.893 280.712 499.413 281.48 498.381 281.48C497.421 281.48 496.917 280.688 496.845 279.656H495.309Z" fill="white"/>
<rect x="649.646" y="54" width="255.942" height="300" transform="rotate(15 649.646 54)" fill="#E41636"/>
<path d="M694.399 199V182.36H699.519V169.56H694.399V155.48L680.959 158.04V169.56H673.023L690.303 109.4H676.223L658.559 170.84V182.36H680.959V199H694.399Z" fill="white"/>
<path d="M662.671 235.984C662.071 236.248 661.279 236.56 660.079 236.56C657.775 236.56 656.047 234.904 656.047 232.216C656.047 229.792 657.487 227.824 660.151 227.824C661.303 227.824 662.095 228.088 662.599 228.376L663.079 226.744C662.503 226.456 661.399 226.144 660.151 226.144C656.359 226.144 653.911 228.736 653.911 232.312C653.911 235.864 656.191 238.24 659.695 238.24C661.255 238.24 662.479 237.856 663.031 237.568L662.671 235.984ZM674.705 232.576C674.729 232.36 674.777 232.024 674.777 231.592C674.777 229.456 673.769 226.12 669.977 226.12C666.593 226.12 664.529 228.88 664.529 232.384C664.529 235.888 666.665 238.24 670.241 238.24C672.089 238.24 673.361 237.856 674.105 237.52L673.745 236.008C672.953 236.344 672.041 236.608 670.529 236.608C668.417 236.608 666.593 235.432 666.545 232.576H674.705ZM666.569 231.064C666.737 229.6 667.673 227.632 669.809 227.632C672.185 227.632 672.761 229.72 672.737 231.064H666.569ZM685.744 238C685.6 237.208 685.552 236.224 685.552 235.216V230.872C685.552 228.544 684.688 226.12 681.136 226.12C679.672 226.12 678.28 226.528 677.32 227.152L677.8 228.544C678.616 228.016 679.744 227.68 680.824 227.68C683.2 227.68 683.464 229.408 683.464 230.368V230.608C678.976 230.584 676.48 232.12 676.48 234.928C676.48 236.608 677.68 238.264 680.032 238.264C681.688 238.264 682.936 237.448 683.584 236.536H683.656L683.824 238H685.744ZM683.512 234.088C683.512 234.304 683.464 234.544 683.392 234.76C683.056 235.744 682.096 236.704 680.584 236.704C679.504 236.704 678.592 236.056 678.592 234.688C678.592 232.432 681.208 232.024 683.512 232.072V234.088ZM688.922 226.384V238H691.01V232.744H696.53V238H698.618V226.384H696.53V231.064H691.01V226.384H688.922ZM709.992 235.984C709.392 236.248 708.6 236.56 707.4 236.56C705.096 236.56 703.368 234.904 703.368 232.216C703.368 229.792 704.808 227.824 707.472 227.824C708.624 227.824 709.416 228.088 709.92 228.376L710.4 226.744C709.824 226.456 708.72 226.144 707.472 226.144C703.68 226.144 701.232 228.736 701.232 232.312C701.232 235.864 703.512 238.24 707.016 238.24C708.576 238.24 709.8 237.856 710.352 237.568L709.992 235.984ZM721.252 238C721.108 237.208 721.06 236.224 721.06 235.216V230.872C721.06 228.544 720.196 226.12 716.644 226.12C715.18 226.12 713.788 226.528 712.828 227.152L713.308 228.544C714.124 228.016 715.252 227.68 716.332 227.68C718.708 227.68 718.972 229.408 718.972 230.368V230.608C714.484 230.584 711.988 232.12 711.988 234.928C711.988 236.608 713.188 238.264 715.54 238.264C717.196 238.264 718.444 237.448 719.092 236.536H719.164L719.332 238H721.252ZM719.02 234.088C719.02 234.304 718.972 234.544 718.9 234.76C718.564 235.744 717.604 236.704 716.092 236.704C715.012 236.704 714.1 236.056 714.1 234.688C714.1 232.432 716.716 232.024 719.02 232.072V234.088ZM654.703 255.384V267H657.127C658.375 264.96 659.647 262.728 660.751 260.928C661.423 259.752 661.927 258.816 662.671 257.328H662.743C662.647 259.2 662.599 260.184 662.599 262.08V267H664.615V255.384H662.143L658.519 261.384C657.751 262.728 657.343 263.544 656.647 264.96L656.575 264.936C656.671 263.28 656.695 262.128 656.695 260.28V255.384H654.703ZM667.296 267H669.24L669.528 261.504C669.6 260.232 669.672 258.696 669.72 257.328H669.816C670.104 258.408 670.608 260.088 670.968 261.192L673.032 266.928H674.568L676.8 261.072C677.448 259.296 677.76 258.36 678.072 257.304H678.144C678.192 258.72 678.288 260.208 678.36 261.456L678.624 267H680.64L679.824 255.384H677.208L675.336 260.448C674.88 261.72 674.232 263.568 673.968 264.432H673.92C673.656 263.52 673.152 262.104 672.864 261.24L670.752 255.384H668.16L667.296 267ZM682.625 267H684.569L684.857 261.504C684.929 260.232 685.001 258.696 685.049 257.328H685.145C685.433 258.408 685.937 260.088 686.297 261.192L688.361 266.928H689.897L692.129 261.072C692.777 259.296 693.089 258.36 693.401 257.304H693.473C693.521 258.72 693.617 260.208 693.689 261.456L693.953 267H695.969L695.153 255.384H692.537L690.665 260.448C690.209 261.72 689.561 263.568 689.297 264.432H689.249C688.985 263.52 688.481 262.104 688.193 261.24L686.081 255.384H683.489L682.625 267ZM708.033 261.576C708.057 261.36 708.105 261.024 708.105 260.592C708.105 258.456 707.097 255.12 703.305 255.12C699.921 255.12 697.857 257.88 697.857 261.384C697.857 264.888 699.993 267.24 703.569 267.24C705.417 267.24 706.689 266.856 707.433 266.52L707.073 265.008C706.281 265.344 705.369 265.608 703.857 265.608C701.745 265.608 699.921 264.432 699.873 261.576H708.033ZM699.897 260.064C700.065 258.6 701.001 256.632 703.137 256.632C705.513 256.632 706.089 258.72 706.065 260.064H699.897ZM710.72 271.752H712.808V265.44H712.856C713.552 266.592 714.896 267.264 716.432 267.264C719.168 267.264 721.712 265.2 721.712 261.024C721.712 257.496 719.6 255.12 716.792 255.12C714.896 255.12 713.528 255.96 712.664 257.376H712.616L712.52 255.384H710.624C710.672 256.488 710.72 257.688 710.72 259.176V271.752ZM712.808 260.28C712.808 259.992 712.88 259.68 712.952 259.416C713.36 257.832 714.704 256.8 716.144 256.8C718.376 256.8 719.6 258.792 719.6 261.12C719.6 263.784 718.304 265.608 716.072 265.608C714.56 265.608 713.288 264.6 712.904 263.136C712.856 262.872 712.808 262.584 712.808 262.272V260.28ZM732.304 264.984C731.704 265.248 730.912 265.56 729.712 265.56C727.408 265.56 725.68 263.904 725.68 261.216C725.68 258.792 727.12 256.824 729.784 256.824C730.936 256.824 731.728 257.088 732.232 257.376L732.712 255.744C732.136 255.456 731.032 255.144 729.784 255.144C725.992 255.144 723.544 257.736 723.544 261.312C723.544 264.864 725.824 267.24 729.328 267.24C730.888 267.24 732.112 266.856 732.664 266.568L732.304 264.984ZM735.094 255.384V267H737.518C738.766 264.96 740.038 262.728 741.142 260.928C741.814 259.752 742.318 258.816 743.062 257.328H743.134C743.038 259.2 742.99 260.184 742.99 262.08V267H745.006V255.384H742.534L738.91 261.384C738.142 262.728 737.734 263.544 737.038 264.96L736.966 264.936C737.062 263.28 737.086 262.128 737.086 260.28V255.384H735.094ZM748.383 267C749.007 267.048 750.351 267.144 751.647 267.144C753.927 267.144 757.767 266.76 757.767 263.712C757.767 262.032 756.519 261.072 754.815 260.832V260.784C756.135 260.496 757.239 259.608 757.239 258.168C757.239 255.576 754.023 255.264 752.079 255.264C750.711 255.264 749.199 255.384 748.383 255.528V267ZM750.399 256.824C750.903 256.776 751.335 256.728 752.031 256.728C754.143 256.728 755.151 257.28 755.151 258.432C755.151 259.8 753.543 260.256 751.983 260.256H750.399V256.824ZM750.375 261.648H751.911C753.927 261.648 755.607 262.008 755.607 263.688C755.607 265.368 753.495 265.704 752.079 265.704C751.407 265.704 750.975 265.68 750.375 265.608V261.648ZM760.383 255.384V267H762.471V261.744H767.991V267H770.079V255.384H767.991V260.064H762.471V255.384H760.383ZM773.485 255.384V266.952C774.349 267.048 775.429 267.12 776.605 267.12C778.141 267.12 780.013 266.856 781.285 265.776C782.029 265.152 782.485 264.312 782.485 263.088C782.485 260.232 779.965 259.2 777.469 259.2C776.701 259.2 776.029 259.248 775.573 259.344V255.384H773.485ZM775.573 260.832C776.005 260.76 776.533 260.712 777.133 260.712C778.717 260.712 780.397 261.288 780.397 263.16C780.397 264.96 778.645 265.632 777.037 265.632C776.437 265.632 775.981 265.584 775.573 265.536V260.832ZM783.949 255.384V267H786.037V255.384H783.949ZM788.126 255.384L792.062 261.072L787.934 267H790.262L791.942 264.384C792.374 263.688 792.782 263.064 793.166 262.368H793.214C793.622 263.064 794.006 263.712 794.462 264.384L796.166 267H798.566L794.486 261L798.446 255.384H796.166L794.534 257.856C794.15 258.48 793.766 259.08 793.382 259.776H793.31C792.926 259.128 792.566 258.528 792.134 257.88L790.478 255.384H788.126ZM655.231 290.816H661.063C660.871 293.12 659.311 294.584 656.983 294.584C655.615 294.584 654.631 294.2 654.079 293.96L653.671 295.472C654.607 295.952 655.807 296.264 657.055 296.264C660.991 296.264 663.223 293.624 663.223 290.24C663.223 288.344 662.623 286.808 661.639 285.776C660.607 284.696 659.095 284.12 657.415 284.12C656.191 284.12 654.847 284.456 653.839 285.032L654.295 286.4C654.919 286.112 655.855 285.752 657.079 285.752C659.671 285.752 660.895 287.384 661.087 289.376H655.231V290.816ZM665.884 284.384V296H667.972V290.888H668.38C670.348 290.888 671.428 291.752 672.22 293.624C672.58 294.584 672.988 295.496 673.3 296H675.508C674.98 295.064 674.572 293.936 674.26 293.168C673.348 291.08 672.22 289.832 670.348 289.64L675.412 284.384H672.844L668.476 289.424H667.972V284.384H665.884ZM685.148 293.984C684.548 294.248 683.756 294.56 682.556 294.56C680.252 294.56 678.524 292.904 678.524 290.216C678.524 287.792 679.964 285.824 682.628 285.824C683.78 285.824 684.572 286.088 685.076 286.376L685.556 284.744C684.98 284.456 683.876 284.144 682.628 284.144C678.836 284.144 676.388 286.736 676.388 290.312C676.388 293.864 678.668 296.24 682.172 296.24C683.732 296.24 684.956 295.856 685.508 295.568L685.148 293.984ZM687.986 284.384V296H690.074V290.888H690.482C692.45 290.888 693.53 291.752 694.322 293.624C694.682 294.584 695.09 295.496 695.402 296H697.61C697.082 295.064 696.674 293.936 696.362 293.168C695.45 291.08 694.322 289.832 692.45 289.64L697.514 284.384H694.946L690.578 289.424H690.074V284.384H687.986ZM698.098 284.384L702.394 295.088C702.49 295.352 702.538 295.52 702.538 295.64C702.538 295.76 702.466 295.928 702.37 296.144C701.89 297.224 701.17 298.04 700.594 298.496C699.97 299.024 699.274 299.36 698.746 299.528L699.274 301.304C699.802 301.208 700.834 300.848 701.866 299.936C703.306 298.688 704.338 296.648 705.85 292.664L709.018 284.384H706.786L704.482 291.2C704.194 292.04 703.954 292.928 703.738 293.624H703.69C703.498 292.928 703.21 292.016 702.946 291.248L700.402 284.384H698.098ZM710.931 300.752H713.019V294.44H713.067C713.763 295.592 715.107 296.264 716.643 296.264C719.379 296.264 721.923 294.2 721.923 290.024C721.923 286.496 719.811 284.12 717.003 284.12C715.107 284.12 713.739 284.96 712.875 286.376H712.827L712.731 284.384H710.835C710.883 285.488 710.931 286.688 710.931 288.176V300.752ZM713.019 289.28C713.019 288.992 713.091 288.68 713.163 288.416C713.571 286.832 714.915 285.8 716.355 285.8C718.587 285.8 719.811 287.792 719.811 290.12C719.811 292.784 718.515 294.608 716.283 294.608C714.771 294.608 713.499 293.6 713.115 292.136C713.067 291.872 713.019 291.584 713.019 291.272V289.28ZM732.515 293.984C731.915 294.248 731.123 294.56 729.923 294.56C727.619 294.56 725.891 292.904 725.891 290.216C725.891 287.792 727.331 285.824 729.995 285.824C731.147 285.824 731.939 286.088 732.443 286.376L732.923 284.744C732.347 284.456 731.243 284.144 729.995 284.144C726.203 284.144 723.755 286.736 723.755 290.312C723.755 293.864 726.035 296.24 729.539 296.24C731.099 296.24 732.323 295.856 732.875 295.568L732.515 293.984ZM735.305 284.384V296H737.729C738.977 293.96 740.249 291.728 741.353 289.928C742.025 288.752 742.529 287.816 743.273 286.328H743.345C743.249 288.2 743.201 289.184 743.201 291.08V296H745.217V284.384H742.745L739.121 290.384C738.353 291.728 737.945 292.544 737.249 293.96L737.177 293.936C737.273 292.28 737.297 291.128 737.297 289.28V284.384H735.305ZM748.594 284.384V296H751.018C752.266 293.96 753.538 291.728 754.642 289.928C755.314 288.752 755.818 287.816 756.562 286.328H756.634C756.538 288.2 756.49 289.184 756.49 291.08V296H758.506V284.384H756.034L752.41 290.384C751.642 291.728 751.234 292.544 750.538 293.96L750.466 293.936C750.562 292.28 750.586 291.128 750.586 289.28V284.384H748.594ZM750.418 279.656C750.514 281.312 751.33 282.632 753.442 282.632C755.29 282.632 756.538 281.624 756.634 279.656H755.122C755.002 280.712 754.522 281.48 753.49 281.48C752.53 281.48 752.026 280.688 751.954 279.656H750.418ZM654.703 313.384V325H656.791V319.744H662.311V325H664.399V313.384H662.311V318.064H656.791V313.384H654.703ZM676.205 325C676.061 324.208 676.013 323.224 676.013 322.216V317.872C676.013 315.544 675.149 313.12 671.597 313.12C670.133 313.12 668.741 313.528 667.781 314.152L668.261 315.544C669.077 315.016 670.205 314.68 671.285 314.68C673.661 314.68 673.925 316.408 673.925 317.368V317.608C669.437 317.584 666.941 319.12 666.941 321.928C666.941 323.608 668.141 325.264 670.493 325.264C672.149 325.264 673.397 324.448 674.045 323.536H674.117L674.285 325H676.205ZM673.973 321.088C673.973 321.304 673.925 321.544 673.853 321.76C673.517 322.744 672.557 323.704 671.045 323.704C669.965 323.704 669.053 323.056 669.053 321.688C669.053 319.432 671.669 319.024 673.973 319.072V321.088ZM692.437 322.984C691.837 323.248 691.045 323.56 689.845 323.56C687.541 323.56 685.813 321.904 685.813 319.216C685.813 316.792 687.253 314.824 689.917 314.824C691.069 314.824 691.861 315.088 692.365 315.376L692.845 313.744C692.269 313.456 691.165 313.144 689.917 313.144C686.125 313.144 683.677 315.736 683.677 319.312C683.677 322.864 685.957 325.24 689.461 325.24C691.021 325.24 692.245 324.856 692.797 324.568L692.437 322.984ZM703.697 325C703.553 324.208 703.505 323.224 703.505 322.216V317.872C703.505 315.544 702.641 313.12 699.089 313.12C697.625 313.12 696.233 313.528 695.273 314.152L695.753 315.544C696.569 315.016 697.697 314.68 698.777 314.68C701.153 314.68 701.417 316.408 701.417 317.368V317.608C696.929 317.584 694.433 319.12 694.433 321.928C694.433 323.608 695.633 325.264 697.985 325.264C699.641 325.264 700.889 324.448 701.537 323.536H701.609L701.777 325H703.697ZM701.465 321.088C701.465 321.304 701.417 321.544 701.345 321.76C701.009 322.744 700.049 323.704 698.537 323.704C697.457 323.704 696.545 323.056 696.545 321.688C696.545 319.432 699.161 319.024 701.465 319.072V321.088ZM706.179 325H708.123L708.411 319.504C708.483 318.232 708.555 316.696 708.603 315.328H708.699C708.987 316.408 709.491 318.088 709.851 319.192L711.915 324.928H713.451L715.683 319.072C716.331 317.296 716.643 316.36 716.955 315.304H717.027C717.075 316.72 717.171 318.208 717.243 319.456L717.507 325H719.523L718.707 313.384H716.091L714.219 318.448C713.763 319.72 713.115 321.568 712.851 322.432H712.803C712.539 321.52 712.035 320.104 711.747 319.24L709.635 313.384H707.043L706.179 325ZM727.171 313.12C723.955 313.12 721.411 315.4 721.411 319.288C721.411 322.96 723.835 325.264 726.979 325.264C729.787 325.264 732.763 323.392 732.763 319.096C732.763 315.544 730.507 313.12 727.171 313.12ZM727.123 314.704C729.619 314.704 730.603 317.2 730.603 319.168C730.603 321.784 729.091 323.68 727.075 323.68C725.011 323.68 723.547 321.76 723.547 319.216C723.547 317.008 724.627 314.704 727.123 314.704ZM735.423 313.384V325H737.511V319.888H737.919C739.887 319.888 740.967 320.752 741.759 322.624C742.119 323.584 742.527 324.496 742.839 325H745.047C744.519 324.064 744.111 322.936 743.799 322.168C742.887 320.08 741.759 318.832 739.887 318.64L744.951 313.384H742.383L738.015 318.424H737.511V313.384H735.423ZM755.494 325C755.35 324.208 755.302 323.224 755.302 322.216V317.872C755.302 315.544 754.438 313.12 750.886 313.12C749.422 313.12 748.03 313.528 747.07 314.152L747.55 315.544C748.366 315.016 749.494 314.68 750.574 314.68C752.95 314.68 753.214 316.408 753.214 317.368V317.608C748.726 317.584 746.23 319.12 746.23 321.928C746.23 323.608 747.43 325.264 749.782 325.264C751.438 325.264 752.686 324.448 753.334 323.536H753.406L753.574 325H755.494ZM753.262 321.088C753.262 321.304 753.214 321.544 753.142 321.76C752.806 322.744 751.846 323.704 750.334 323.704C749.254 323.704 748.342 323.056 748.342 321.688C748.342 319.432 750.958 319.024 753.262 319.072V321.088ZM757.068 313.384V315.064H760.692V325H762.78V315.064H766.404V313.384H757.068ZM776.447 325C776.303 324.208 776.255 323.224 776.255 322.216V317.872C776.255 315.544 775.391 313.12 771.839 313.12C770.375 313.12 768.983 313.528 768.023 314.152L768.503 315.544C769.319 315.016 770.447 314.68 771.527 314.68C773.903 314.68 774.167 316.408 774.167 317.368V317.608C769.679 317.584 767.183 319.12 767.183 321.928C767.183 323.608 768.383 325.264 770.735 325.264C772.391 325.264 773.639 324.448 774.287 323.536H774.359L774.527 325H776.447ZM774.215 321.088C774.215 321.304 774.167 321.544 774.095 321.76C773.759 322.744 772.799 323.704 771.287 323.704C770.207 323.704 769.295 323.056 769.295 321.688C769.295 319.432 771.911 319.024 774.215 319.072V321.088ZM778.305 313.384L782.241 319.072L778.113 325H780.441L782.121 322.384C782.553 321.688 782.961 321.064 783.345 320.368H783.393C783.801 321.064 784.185 321.712 784.641 322.384L786.345 325H788.745L784.665 319L788.625 313.384H786.345L784.713 315.856C784.329 316.48 783.945 317.08 783.561 317.776H783.489C783.105 317.128 782.745 316.528 782.313 315.88L780.657 313.384H778.305Z" fill="white"/>
<rect x="887" y="78" width="312" height="258" fill="white" stroke="black" stroke-width="2"/>
<path d="M974.879 151.64V186.2H965.279V169.56H951.839V193.112C951.839 196.568 954.143 199 957.727 199H982.431C986.015 199 988.319 196.568 988.319 193.112V144.728C988.319 141.272 986.015 138.84 982.431 138.84H965.279V122.2H987.679V109.4H951.839V156.76H965.279V151.64H974.879Z" fill="black"/>
<path d="M940.704 226.384V238H942.792V232.744H948.312V238H950.4V226.384H948.312V231.064H942.792V226.384H940.704ZM958.774 226.12C955.558 226.12 953.014 228.4 953.014 232.288C953.014 235.96 955.438 238.264 958.582 238.264C961.39 238.264 964.366 236.392 964.366 232.096C964.366 228.544 962.11 226.12 958.774 226.12ZM958.726 227.704C961.222 227.704 962.206 230.2 962.206 232.168C962.206 234.784 960.694 236.68 958.678 236.68C956.614 236.68 955.15 234.76 955.15 232.216C955.15 230.008 956.23 227.704 958.726 227.704ZM966.599 226.384V230.44C966.599 233.104 968.207 234.232 970.415 234.232C971.519 234.232 972.767 233.872 973.559 233.344H973.607V238H975.695V226.384H973.607V231.856C972.959 232.336 972.023 232.672 971.111 232.672C969.263 232.672 968.711 231.664 968.711 230.2V226.384H966.599ZM979.095 226.384V238H981.183V232.744H986.703V238H988.791V226.384H986.703V231.064H981.183V226.384H979.095ZM992.196 226.384V237.952C993.06 238.048 994.14 238.12 995.316 238.12C996.852 238.12 998.724 237.856 999.996 236.776C1000.74 236.152 1001.2 235.312 1001.2 234.088C1001.2 231.232 998.676 230.2 996.18 230.2C995.412 230.2 994.74 230.248 994.284 230.344V226.384H992.196ZM994.284 231.832C994.716 231.76 995.244 231.712 995.844 231.712C997.428 231.712 999.108 232.288 999.108 234.16C999.108 235.96 997.356 236.632 995.748 236.632C995.148 236.632 994.692 236.584 994.284 236.536V231.832ZM1002.66 226.384V238H1004.75V226.384H1002.66ZM1006.84 226.384L1010.77 232.072L1006.65 238H1008.97L1010.65 235.384C1011.09 234.688 1011.49 234.064 1011.88 233.368H1011.93C1012.33 234.064 1012.72 234.712 1013.17 235.384L1014.88 238H1017.28L1013.2 232L1017.16 226.384H1014.88L1013.25 228.856C1012.86 229.48 1012.48 230.08 1012.09 230.776H1012.02C1011.64 230.128 1011.28 229.528 1010.85 228.88L1009.19 226.384H1006.84ZM1025.36 232.696H1026.42C1028.17 232.696 1029.8 233.128 1029.8 234.688C1029.8 235.84 1028.7 236.68 1026.94 236.68C1025.84 236.68 1024.71 236.344 1023.87 235.888L1023.32 237.304C1024.35 237.88 1025.72 238.24 1027.09 238.24C1029.54 238.24 1032.1 237.304 1032.1 234.784C1032.1 233.08 1030.66 232.024 1028.94 231.88V231.832C1030.23 231.568 1031.55 230.632 1031.55 229.192C1031.55 226.936 1029.39 226.144 1027.62 226.144C1026.27 226.144 1024.93 226.48 1023.75 227.2L1024.28 228.496C1025.1 227.992 1026.15 227.68 1027.09 227.68C1028.41 227.68 1029.34 228.328 1029.34 229.36C1029.34 230.44 1028.14 231.256 1026.37 231.256H1025.36V232.696ZM1043.09 238C1042.94 237.208 1042.9 236.224 1042.9 235.216V230.872C1042.9 228.544 1042.03 226.12 1038.48 226.12C1037.02 226.12 1035.62 226.528 1034.66 227.152L1035.14 228.544C1035.96 228.016 1037.09 227.68 1038.17 227.68C1040.54 227.68 1040.81 229.408 1040.81 230.368V230.608C1036.32 230.584 1033.82 232.12 1033.82 234.928C1033.82 236.608 1035.02 238.264 1037.38 238.264C1039.03 238.264 1040.28 237.448 1040.93 236.536H1041L1041.17 238H1043.09ZM1040.86 234.088C1040.86 234.304 1040.81 234.544 1040.74 234.76C1040.4 235.744 1039.44 236.704 1037.93 236.704C1036.85 236.704 1035.94 236.056 1035.94 234.688C1035.94 232.432 1038.55 232.024 1040.86 232.072V234.088ZM1055.19 220.696C1054.4 220.984 1053.25 221.176 1052.31 221.32C1050.06 221.704 1048.45 222.448 1047.32 224.056C1046.07 225.688 1045.52 227.848 1045.52 230.488C1045.52 234.352 1046.87 238.264 1050.95 238.264C1054.35 238.264 1056.32 235.912 1056.32 232.12C1056.32 228.424 1054.23 226.384 1051.38 226.384C1049.72 226.384 1048.09 227.32 1047.35 229H1047.27C1047.37 227.776 1047.8 226.216 1048.55 225.16C1049.43 223.888 1050.8 223.264 1052.67 222.976C1053.44 222.856 1054.5 222.664 1055.1 222.448L1055.19 220.696ZM1054.19 232.288C1054.19 234.424 1053.32 236.68 1050.99 236.68C1048.69 236.68 1047.75 233.92 1047.75 232C1047.75 231.064 1047.95 230.224 1048.33 229.528C1048.81 228.592 1049.7 227.944 1050.95 227.944C1053.44 227.944 1054.19 230.392 1054.19 232.288ZM1068.33 232.576C1068.35 232.36 1068.4 232.024 1068.4 231.592C1068.4 229.456 1067.39 226.12 1063.6 226.12C1060.22 226.12 1058.15 228.88 1058.15 232.384C1058.15 235.888 1060.29 238.24 1063.87 238.24C1065.71 238.24 1066.99 237.856 1067.73 237.52L1067.37 236.008C1066.58 236.344 1065.67 236.608 1064.15 236.608C1062.04 236.608 1060.22 235.432 1060.17 232.576H1068.33ZM1060.19 231.064C1060.36 229.6 1061.3 227.632 1063.43 227.632C1065.81 227.632 1066.39 229.72 1066.36 231.064H1060.19ZM1070.97 226.384V238H1073.06V228.088H1078.1V226.384H1070.97ZM1084.7 226.12C1081.49 226.12 1078.94 228.4 1078.94 232.288C1078.94 235.96 1081.37 238.264 1084.51 238.264C1087.32 238.264 1090.3 236.392 1090.3 232.096C1090.3 228.544 1088.04 226.12 1084.7 226.12ZM1084.66 227.704C1087.15 227.704 1088.14 230.2 1088.14 232.168C1088.14 234.784 1086.62 236.68 1084.61 236.68C1082.54 236.68 1081.08 234.76 1081.08 232.216C1081.08 230.008 1082.16 227.704 1084.66 227.704ZM1092.91 238C1093.53 238.048 1094.88 238.144 1096.17 238.144C1098.45 238.144 1102.29 237.76 1102.29 234.712C1102.29 233.032 1101.04 232.072 1099.34 231.832V231.784C1100.66 231.496 1101.76 230.608 1101.76 229.168C1101.76 226.576 1098.55 226.264 1096.6 226.264C1095.24 226.264 1093.72 226.384 1092.91 226.528V238ZM1094.92 227.824C1095.43 227.776 1095.86 227.728 1096.56 227.728C1098.67 227.728 1099.68 228.28 1099.68 229.432C1099.68 230.8 1098.07 231.256 1096.51 231.256H1094.92V227.824ZM1094.9 232.648H1096.44C1098.45 232.648 1100.13 233.008 1100.13 234.688C1100.13 236.368 1098.02 236.704 1096.6 236.704C1095.93 236.704 1095.5 236.68 1094.9 236.608V232.648ZM940.704 255.384V267H942.792V261.744H948.312V267H950.4V255.384H948.312V260.064H942.792V255.384H940.704ZM962.206 267C962.062 266.208 962.014 265.224 962.014 264.216V259.872C962.014 257.544 961.15 255.12 957.598 255.12C956.134 255.12 954.742 255.528 953.782 256.152L954.262 257.544C955.078 257.016 956.206 256.68 957.286 256.68C959.662 256.68 959.926 258.408 959.926 259.368V259.608C955.438 259.584 952.942 261.12 952.942 263.928C952.942 265.608 954.142 267.264 956.494 267.264C958.15 267.264 959.398 266.448 960.046 265.536H960.118L960.286 267H962.206ZM959.974 263.088C959.974 263.304 959.926 263.544 959.854 263.76C959.518 264.744 958.558 265.704 957.046 265.704C955.966 265.704 955.054 265.056 955.054 263.688C955.054 261.432 957.67 261.024 959.974 261.072V263.088ZM969.774 266.208C970.542 266.712 972.078 267.264 973.83 267.264C977.574 267.264 979.518 265.08 979.518 262.584C979.518 260.4 977.958 258.96 976.038 258.576V258.528C977.958 257.832 978.918 256.464 978.918 254.856C978.918 252.96 977.526 251.136 974.454 251.136C972.774 251.136 971.19 251.736 970.374 252.336L970.926 253.872C971.598 253.392 972.798 252.84 974.046 252.84C975.99 252.84 976.782 253.944 976.782 255.192C976.782 257.04 974.838 257.832 973.302 257.832H972.126V259.416H973.302C975.342 259.416 977.31 260.352 977.334 262.536C977.358 263.832 976.518 265.56 973.806 265.56C972.342 265.56 970.95 264.96 970.35 264.576L969.774 266.208ZM981.79 260.184V261.624H992.35V260.184H981.79ZM1003.46 251.4H995.998L994.99 258.888C995.566 258.816 996.262 258.72 997.15 258.72C1000.27 258.72 1001.61 260.16 1001.64 262.176C1001.64 264.264 999.934 265.56 997.942 265.56C996.526 265.56 995.254 265.08 994.606 264.696L994.078 266.304C994.822 266.784 996.262 267.264 997.966 267.264C1001.35 267.264 1003.77 264.984 1003.77 261.936C1003.77 259.968 1002.77 258.624 1001.54 257.928C1000.58 257.352 999.382 257.088 998.182 257.088C997.606 257.088 997.27 257.136 996.91 257.184L997.51 253.176H1003.46V251.4ZM1012.21 255.384V267H1014.3V261.888H1014.71C1016.68 261.888 1017.76 262.752 1018.55 264.624C1018.91 265.584 1019.32 266.496 1019.63 267H1021.84C1021.31 266.064 1020.9 264.936 1020.59 264.168C1019.68 262.08 1018.55 260.832 1016.68 260.64L1021.74 255.384H1019.17L1014.8 260.424H1014.3V255.384H1012.21ZM1022.95 267H1024.9L1025.19 261.504C1025.26 260.232 1025.33 258.696 1025.38 257.328H1025.47C1025.76 258.408 1026.27 260.088 1026.63 261.192L1028.69 266.928H1030.23L1032.46 261.072C1033.11 259.296 1033.42 258.36 1033.73 257.304H1033.8C1033.85 258.72 1033.95 260.208 1034.02 261.456L1034.28 267H1036.3L1035.48 255.384H1032.87L1030.99 260.448C1030.54 261.72 1029.89 263.568 1029.63 264.432H1029.58C1029.31 263.52 1028.81 262.104 1028.52 261.24L1026.41 255.384H1023.82L1022.95 267ZM1044.06 255.384V267H1046.15V257.064H1051.55V267H1053.66V255.384H1044.06ZM1062.02 255.12C1058.8 255.12 1056.26 257.4 1056.26 261.288C1056.26 264.96 1058.68 267.264 1061.82 267.264C1064.63 267.264 1067.61 265.392 1067.61 261.096C1067.61 257.544 1065.35 255.12 1062.02 255.12ZM1061.97 256.704C1064.46 256.704 1065.45 259.2 1065.45 261.168C1065.45 263.784 1063.94 265.68 1061.92 265.68C1059.86 265.68 1058.39 263.76 1058.39 261.216C1058.39 259.008 1059.47 256.704 1061.97 256.704ZM1075.31 255.384V267H1077.39V257.064H1082.79V267H1084.91V255.384H1075.31ZM1096.69 267C1096.55 266.208 1096.5 265.224 1096.5 264.216V259.872C1096.5 257.544 1095.63 255.12 1092.08 255.12C1090.62 255.12 1089.23 255.528 1088.27 256.152L1088.75 257.544C1089.56 257.016 1090.69 256.68 1091.77 256.68C1094.15 256.68 1094.41 258.408 1094.41 259.368V259.608C1089.92 259.584 1087.43 261.12 1087.43 263.928C1087.43 265.608 1088.63 267.264 1090.98 267.264C1092.63 267.264 1093.88 266.448 1094.53 265.536H1094.6L1094.77 267H1096.69ZM1094.46 263.088C1094.46 263.304 1094.41 263.544 1094.34 263.76C1094 264.744 1093.04 265.704 1091.53 265.704C1090.45 265.704 1089.54 265.056 1089.54 263.688C1089.54 261.432 1092.15 261.024 1094.46 261.072V263.088ZM1099.92 271.752H1102V265.44H1102.05C1102.75 266.592 1104.09 267.264 1105.63 267.264C1108.36 267.264 1110.91 265.2 1110.91 261.024C1110.91 257.496 1108.8 255.12 1105.99 255.12C1104.09 255.12 1102.72 255.96 1101.86 257.376H1101.81L1101.72 255.384H1099.82C1099.87 256.488 1099.92 257.688 1099.92 259.176V271.752ZM1102 260.28C1102 259.992 1102.08 259.68 1102.15 259.416C1102.56 257.832 1103.9 256.8 1105.34 256.8C1107.57 256.8 1108.8 258.792 1108.8 261.12C1108.8 263.784 1107.5 265.608 1105.27 265.608C1103.76 265.608 1102.48 264.6 1102.1 263.136C1102.05 262.872 1102 262.584 1102 262.272V260.28ZM1113.58 255.384V267H1115.67V261.888H1116.08C1118.04 261.888 1119.12 262.752 1119.92 264.624C1120.28 265.584 1120.68 266.496 1121 267H1123.2C1122.68 266.064 1122.27 264.936 1121.96 264.168C1121.04 262.08 1119.92 260.832 1118.04 260.64L1123.11 255.384H1120.54L1116.17 260.424H1115.67V255.384H1113.58ZM1133.65 267C1133.51 266.208 1133.46 265.224 1133.46 264.216V259.872C1133.46 257.544 1132.59 255.12 1129.04 255.12C1127.58 255.12 1126.19 255.528 1125.23 256.152L1125.71 257.544C1126.52 257.016 1127.65 256.68 1128.73 256.68C1131.11 256.68 1131.37 258.408 1131.37 259.368V259.608C1126.88 259.584 1124.39 261.12 1124.39 263.928C1124.39 265.608 1125.59 267.264 1127.94 267.264C1129.59 267.264 1130.84 266.448 1131.49 265.536H1131.56L1131.73 267H1133.65ZM1131.42 263.088C1131.42 263.304 1131.37 263.544 1131.3 263.76C1130.96 264.744 1130 265.704 1128.49 265.704C1127.41 265.704 1126.5 265.056 1126.5 263.688C1126.5 261.432 1129.11 261.024 1131.42 261.072V263.088ZM1136.13 267H1138.08L1138.37 261.504C1138.44 260.232 1138.51 258.696 1138.56 257.328H1138.65C1138.94 258.408 1139.45 260.088 1139.81 261.192L1141.87 266.928H1143.41L1145.64 261.072C1146.29 259.296 1146.6 258.36 1146.91 257.304H1146.98C1147.03 258.72 1147.12 260.208 1147.2 261.456L1147.46 267H1149.48L1148.66 255.384H1146.05L1144.17 260.448C1143.72 261.72 1143.07 263.568 1142.81 264.432H1142.76C1142.49 263.52 1141.99 262.104 1141.7 261.24L1139.59 255.384H1137L1136.13 267ZM954.864 296H956.904L955.896 279.824H953.232L950.352 287.648C949.632 289.688 949.056 291.464 948.648 293.096H948.576C948.168 291.416 947.616 289.64 946.944 287.648L944.184 279.824H941.52L940.392 296H942.384L942.816 289.064C942.96 286.64 943.08 283.928 943.128 281.912H943.176C943.632 283.832 944.28 285.92 945.048 288.2L947.664 295.904H949.248L952.104 288.056C952.92 285.824 953.592 283.808 954.144 281.912H954.216C954.192 283.928 954.336 286.64 954.456 288.896L954.864 296ZM964.961 284.12C961.745 284.12 959.201 286.4 959.201 290.288C959.201 293.96 961.625 296.264 964.769 296.264C967.577 296.264 970.553 294.392 970.553 290.096C970.553 286.544 968.297 284.12 964.961 284.12ZM964.913 285.704C967.409 285.704 968.393 288.2 968.393 290.168C968.393 292.784 966.881 294.68 964.865 294.68C962.801 294.68 961.337 292.76 961.337 290.216C961.337 288.008 962.417 285.704 964.913 285.704ZM981.133 293.984C980.533 294.248 979.741 294.56 978.541 294.56C976.237 294.56 974.509 292.904 974.509 290.216C974.509 287.792 975.949 285.824 978.613 285.824C979.765 285.824 980.557 286.088 981.061 286.376L981.541 284.744C980.965 284.456 979.861 284.144 978.613 284.144C974.821 284.144 972.373 286.736 972.373 290.312C972.373 293.864 974.653 296.24 978.157 296.24C979.717 296.24 980.941 295.856 981.493 295.568L981.133 293.984ZM983.971 284.384V296H986.059V290.888H986.467C988.435 290.888 989.515 291.752 990.307 293.624C990.667 294.584 991.075 295.496 991.387 296H993.595C993.067 295.064 992.659 293.936 992.347 293.168C991.435 291.08 990.307 289.832 988.435 289.64L993.499 284.384H990.931L986.563 289.424H986.059V284.384H983.971ZM995.407 296C996.031 296.048 997.375 296.144 998.671 296.144C1000.95 296.144 1004.79 295.76 1004.79 292.712C1004.79 291.032 1003.54 290.072 1001.84 289.832V289.784C1003.16 289.496 1004.26 288.608 1004.26 287.168C1004.26 284.576 1001.05 284.264 999.103 284.264C997.735 284.264 996.223 284.384 995.407 284.528V296ZM997.423 285.824C997.927 285.776 998.359 285.728 999.055 285.728C1001.17 285.728 1002.18 286.28 1002.18 287.432C1002.18 288.8 1000.57 289.256 999.007 289.256H997.423V285.824ZM997.399 290.648H998.935C1000.95 290.648 1002.63 291.008 1002.63 292.688C1002.63 294.368 1000.52 294.704 999.103 294.704C998.431 294.704 997.999 294.68 997.399 294.608V290.648ZM1007.41 284.384V295.952C1008.27 296.048 1009.35 296.12 1010.53 296.12C1012.06 296.12 1013.94 295.856 1015.21 294.776C1015.95 294.152 1016.41 293.312 1016.41 292.088C1016.41 289.232 1013.89 288.2 1011.39 288.2C1010.62 288.2 1009.95 288.248 1009.5 288.344V284.384H1007.41ZM1009.5 289.832C1009.93 289.76 1010.46 289.712 1011.06 289.712C1012.64 289.712 1014.32 290.288 1014.32 292.16C1014.32 293.96 1012.57 294.632 1010.96 294.632C1010.36 294.632 1009.9 294.584 1009.5 294.536V289.832ZM1017.87 284.384V296H1019.96V284.384H1017.87Z" fill="black"/>
</svg>
