<svg width="166" height="20" viewBox="0 0 166 20" fill="none" xmlns="http://www.w3.org/2000/svg">
<g clip-path="url(#clip0_231_116)">
<path d="M127.296 10.8333C126.842 10.1522 126.434 9.4855 125.925 9.0797L124.084 8.56521L126.572 6.35506C127.789 5.43477 128.652 5.00724 129.415 4.93477V4.02897H123.999V4.93477L125.101 5.65216L122.258 8.32608H121.688V5.66666L123.198 4.89129V4.02173H116.041V4.89129L117.613 5.66666V12.6739L116.026 13.3768V14.2464H123.206V13.3768L121.696 12.6739V9.52173H122.32C122.928 10.8478 124.4 13.913 125.987 14.2464H129.908V13.3478C128.752 13.0507 128.005 11.9058 127.296 10.8406" fill="white"/>
<path d="M109.532 12.9709H108.707V8.76078C108.823 8.73904 108.985 8.73904 109.077 8.73904C110.587 8.73904 111.296 9.84774 111.296 10.9709C111.296 11.9854 110.787 12.9419 109.532 12.9637M110.965 7.44919C110.202 7.44919 109.432 7.55788 108.707 7.79701V5.65933L110.279 4.88397V4.0144H103.061V4.88397L104.632 5.65933V12.6666L103.045 13.3695V14.239H109.855C112.952 14.239 115.325 13.2825 115.325 10.7535C115.325 8.46368 113.168 7.44919 110.972 7.44919" fill="white"/>
<path d="M95.4877 13.0434C94.9793 13.0434 94.3707 12.7825 93.9008 12.413V8.0579C93.9162 6.91297 94.2552 5.97094 95.4338 5.97094C96.8667 5.97094 97.5292 7.24631 97.5292 9.05065C97.5292 10.855 97.275 13.0362 95.4877 13.0362M97.4291 3.81152C96.0193 3.81152 94.4477 4.42022 93.662 5.82602V3.90573L88.2308 4.42022V5.28978L89.8178 6.02891V18.4347L88.2308 19.1376V20.0072H95.4877V19.1376L93.9008 18.4347V14.0289C94.648 14.2898 95.4492 14.4709 96.2196 14.4709C100.041 14.4709 101.689 12.3115 101.689 8.95645C101.689 6.4637 100.357 3.82602 97.4368 3.82602" fill="white"/>
<path d="M160.137 13.3043C158.72 13.3043 158.466 11.2536 158.466 9.34051C158.466 7.42747 158.443 4.93471 160.137 4.93471C161.57 4.93471 161.825 6.98544 161.825 8.89848C161.825 10.8115 161.84 13.3115 160.137 13.3115M160.137 3.81152C157.333 3.81152 154.29 5.42022 154.29 9.15935C154.29 11.5796 155.685 14.4709 160.137 14.4709C162.98 14.4709 166 12.8622 166 9.12312C166 6.70283 164.606 3.81152 160.137 3.81152Z" fill="white"/>
<path d="M142.812 4.89129L144.406 5.66666V12.6739L142.812 13.3768V14.2464H150.069V13.3768L148.482 12.6739V5.33332H150.7L152.133 7.84057H153.25L153.643 4.02173H142.812V4.89129Z" fill="white"/>
<path d="M136.048 13.3043C134.638 13.3043 134.384 11.2536 134.384 9.34051C134.384 7.42747 134.361 4.93471 136.048 4.93471C137.481 4.93471 137.735 6.98544 137.735 8.89848C137.735 10.8115 137.75 13.3115 136.048 13.3115M136.048 3.81152C133.244 3.81152 130.201 5.42022 130.201 9.15935C130.201 11.5796 131.595 14.4709 136.048 14.4709C138.891 14.4709 141.91 12.8622 141.91 9.12312C141.91 6.70283 140.516 3.81152 136.048 3.81152Z" fill="white"/>
<path d="M55.8597 9.21006L53.6025 8.54339L55.644 7.60136C56.4298 6.1231 57.6239 5.27527 59.1569 4.92745V4.02165H53.7412V4.92745L54.8428 5.64484L52.0001 8.31875H51.4301V5.65933L52.94 4.88397V4.0144H45.7832V4.88397L47.3548 5.65933V12.6666L45.7678 13.3695V14.239H52.9477V13.3695L51.4378 12.6666V9.5144H52.0618C52.6704 10.8405 54.1418 13.9057 55.7287 14.239H59.6499V13.355C58.0784 12.5072 56.6917 11.3985 55.8674 9.20281" fill="white"/>
<path d="M24.8137 11.7755C24.4593 12.1088 23.9663 12.4204 23.4809 12.4204C22.8723 12.4204 22.2021 11.9784 22.2021 11.1088C22.2021 9.6885 23.3808 9.2827 24.8137 9.16676V11.7682V11.7755ZM28.8967 10.8914V7.21749C28.8967 4.63053 26.678 3.80444 23.5041 3.80444C20.8771 3.80444 18.8587 4.50734 18.8587 5.86966C18.8587 6.44212 19.2285 7.05082 20.0528 7.45662H21.1698L22.4872 5.22473V5.23923C22.7414 5.07256 23.0572 4.97836 23.3885 4.97836C24.2128 4.97836 24.8214 5.51459 24.8214 7.26821V8.24647C24.3284 8.1885 23.8199 8.15227 23.2883 8.15227C21.1929 8.15227 18.1885 8.81894 18.1885 11.4349C18.1885 12.9494 19.3055 14.4639 21.5781 14.4639C22.9494 14.4639 24.4208 13.9494 25.1295 12.7465C25.4608 13.6668 26.6395 14.4639 27.8952 14.4639C28.9968 14.4639 30.0368 14.1305 30.5838 13.5363V12.3552C30.291 12.4639 30.0522 12.5218 29.8981 12.5218C29.1124 12.5218 28.8967 11.7465 28.8967 10.8769" fill="white"/>
<path d="M38.4416 13.0434C37.9331 13.0434 37.3245 12.7825 36.8546 12.413V8.0579C36.8777 6.91297 37.209 5.97094 38.3877 5.97094C39.8205 5.97094 40.4831 7.24631 40.4831 9.05065C40.4831 10.855 40.2288 13.0362 38.4416 13.0362M40.3829 3.81152C38.9731 3.81152 37.4016 4.42022 36.6158 5.82602V3.90573L31.2001 4.42022V5.28978L32.787 6.08689V18.4347L31.2001 19.1376V20.0072H38.4339V19.1376L36.8469 18.4347V14.0289C37.5942 14.2898 38.3954 14.4709 39.158 14.4709C42.9791 14.4709 44.6277 12.3115 44.6277 8.95645C44.6277 6.4637 43.2949 3.82602 40.3752 3.82602" fill="white"/>
<path d="M15.1224 1.80435L16.8095 0.905797V0H0.0616298V0.905797L1.72564 1.80435V12.6377L0 13.3406V14.2464H7.27232V13.3406L5.92417 12.6594V1.52899H10.9239V12.6594L9.56803 13.3406V14.2464H16.8481V13.3406L15.1224 12.6377V1.80435Z" fill="white"/>
<path d="M58.3943 6.95654C57.9012 6.95654 57.4929 7.30437 57.4929 7.73191C57.4929 8.15944 57.9012 8.52901 58.3943 8.52901C58.8488 8.52901 59.234 8.17393 59.234 7.73191C59.234 7.28988 58.8411 6.95654 58.3943 6.95654Z" fill="white"/>
<path d="M76.4981 0H64.2569V0.905797L65.9671 1.81159V12.6377L64.2415 13.3406V14.2464H71.8913V13.3406L70.1656 12.6377V1.55072H73.147L74.9496 4.46377H76.0821L76.4981 0Z" fill="white"/>
<path d="M81.3051 13.3043C79.8954 13.3043 79.6411 11.2536 79.6411 9.34051C79.6411 7.42747 79.618 4.93471 81.3051 4.93471C82.738 4.93471 82.9923 6.98544 82.9923 8.89848C82.9923 10.8115 83.0154 13.3115 81.3051 13.3115M81.3051 3.81152C78.501 3.81152 75.458 5.42022 75.458 9.15935C75.458 11.5796 76.8524 14.4709 81.3051 14.4709C84.1478 14.4709 87.1677 12.8622 87.1677 9.12312C87.1677 6.70283 85.7733 3.81152 81.3051 3.81152Z" fill="white"/>
</g>
<defs>
<clipPath id="clip0_231_116">
<rect width="166" height="20" fill="white"/>
</clipPath>
</defs>
</svg>
