<svg width="108" height="20" viewBox="0 0 108 20" fill="none" xmlns="http://www.w3.org/2000/svg">
<g clip-path="url(#clip0_231_144)">
<path d="M16.4228 0.331299L10.6174 10.9863L4.82197 0.331299H0V19.5333H3.55752V5.10922L9.1221 15.5032H12.1277L17.6923 5.10922V19.5333H21.2448V0.331299H16.4228Z" fill="white"/>
<path d="M32.1481 19.5936H28.2544L30.5124 14.7203L23.1515 0.401611H27.4466L32.5094 10.6199L36.95 0.401611H40.8387L32.1481 19.5936Z" fill="white"/>
<path d="M56.85 0.331299H68.6465V3.65376H60.4075V8.2259H66.8652V11.5433H60.4075V16.2108H68.6465V19.5333H56.85V0.331299Z" fill="white"/>
<path d="M89.9013 10.0376C89.9013 15.5885 85.4958 20 79.7858 20C74.0757 20 69.6702 15.5885 69.6702 10.0376C69.6702 4.48683 74.0506 0 79.7858 0C85.5209 0 89.9013 4.48683 89.9013 10.0376ZM86.3488 9.96236C86.3488 6.32873 83.6293 3.32246 79.7858 3.32246C75.9422 3.32246 73.2277 6.33375 73.2277 9.96236C73.2277 13.591 75.9774 16.6775 79.7556 16.6775C83.5339 16.6775 86.3488 13.591 86.3488 9.96236Z" fill="white"/>
<path d="M104.453 0.331299V8.04021H96.0178V0.331299H92.4653V19.5333H96.0178V11.3627H104.453V19.5333H108V0.331299H104.453Z" fill="white"/>
<path d="M50.4424 9.44553C52.028 8.7178 53.1871 7.21215 53.1871 5.26987C53.1871 2.05281 50.7535 0.00512695 47.4067 0.00512695C43.4428 0.00512695 41.4909 2.41918 41.4658 5.32006H45.0234C45.0986 4.12558 46.0068 3.32257 47.3766 3.32257C48.7465 3.32257 49.6396 4.17577 49.6396 5.68141C49.6396 7.02646 48.7766 7.88468 47.3265 7.88468H45.766V11.2071H47.5874C49.5091 11.2071 50.2568 12.502 50.2568 13.9022C50.2568 15.3025 49.3787 16.497 47.3265 16.497C45.2742 16.497 44.5718 15.167 44.4313 14.1331H40.8336C40.8537 17.7316 43.7037 19.8144 47.196 19.8144C51.0947 19.8144 53.8193 17.6915 53.8193 14.1632C53.8193 11.438 52.1986 9.88217 50.4424 9.44051" fill="white"/>
</g>
<defs>
<clipPath id="clip0_231_144">
<rect width="108" height="20" fill="white"/>
</clipPath>
</defs>
</svg>
