<svg width="151" height="42" viewBox="0 0 151 42" fill="none" xmlns="http://www.w3.org/2000/svg">
<path d="M37.802 11.4895C33.9847 11.4895 31.6199 12.9495 31.0344 16.4093L28.776 30.6744C28.3882 33.8757 30.4641 35.5334 34.1444 35.5334C37.8248 35.5334 40.2961 34.1571 40.874 30.6972H40.8816L43.1172 16.5994C43.6951 13.1396 41.6192 11.4819 37.802 11.4819V11.4895ZM38.2354 15.8999L35.8021 31.1535C35.6804 31.8531 35.2318 32.2561 34.5779 32.2561C34.2661 32.2561 34.0152 32.1572 33.8631 31.9747C33.6958 31.777 33.6426 31.4805 33.7034 31.1079L36.1291 15.8694C36.2431 15.1547 36.6994 14.7517 37.3609 14.7517C37.6727 14.7517 37.9236 14.8505 38.0757 15.033C38.243 15.2307 38.2962 15.5273 38.2354 15.8999Z" fill="white"/>
<path d="M98.8089 35.2978L103.447 5.98438H98.3602L93.7218 35.2978H98.8089Z" fill="white"/>
<path d="M57.253 5.97681L52.6146 35.2902H57.7016L62.3401 5.97681H57.253ZM55.0098 11.6494L55.0326 11.4821C53.2305 11.2388 51.2306 11.6114 49.9379 13.2082L49.0255 11.733H45.9839L42.2503 35.3054H47.3374L50.1128 17.8086C50.493 15.4058 52.7818 15.7099 54.3026 16.0749L55.0098 11.6494Z" fill="white"/>
<path d="M71.4877 5.99194L70.4611 12.5086C69.7996 11.8318 68.7502 11.4896 67.3967 11.4896C64.6669 11.4896 63.359 12.8964 62.9255 15.6262L60.4238 31.4425C59.9904 34.1572 61.4124 35.5411 64.1346 35.5411C65.8683 35.5411 67.1001 34.9784 68.0126 33.8606L68.8871 35.313H71.9363L76.5823 5.99955H71.4953L71.4877 5.99194ZM69.9973 15.9076L67.564 31.1612C67.4423 31.8608 66.9937 32.2638 66.3397 32.2638C66.028 32.2638 65.7771 32.1649 65.625 31.9824C65.4577 31.7847 65.4045 31.4882 65.4653 31.1156L67.891 15.8771C68.0126 15.1624 68.4613 14.7594 69.1228 14.7594C69.4346 14.7594 69.6855 14.8582 69.8376 15.0407C70.0049 15.2384 70.0581 15.535 69.9973 15.9076Z" fill="white"/>
<path d="M124.944 11.4744C121.073 11.4744 118.769 12.7747 118.146 16.3942L117.864 17.953C117.477 20.1049 117.956 21.9983 119.682 23.3898L122.617 26.0056C123.202 26.4923 123.377 27.0778 123.301 27.7545L122.761 31.1459C122.64 31.8455 122.191 32.2485 121.537 32.2485C121.225 32.2485 120.975 32.1496 120.822 31.9671C120.655 31.7694 120.602 31.4729 120.663 31.1003L121.317 26.9865H116.45L115.827 30.6212C115.386 33.8605 117.553 35.5182 121.058 35.5182C125.21 35.5182 127.316 34.1495 127.925 30.6897L128.274 28.5986C128.662 26.4466 128.366 24.3327 126.655 23.002L123.522 20.2418C122.914 19.7703 122.701 19.2228 122.838 18.4548V18.4244L123.225 15.8619C123.347 15.1471 123.796 14.7441 124.457 14.7441C124.769 14.7441 125.012 14.8429 125.172 15.0254C125.339 15.2231 125.392 15.5197 125.332 15.8923L124.784 19.3521H129.734L130.183 16.6223C130.753 13.6035 129.316 11.4744 124.936 11.4744H124.944Z" fill="white"/>
<path d="M139.125 11.4744C135.255 11.4744 132.951 12.7747 132.327 16.3942L132.046 17.953C131.658 20.1049 132.137 21.9983 133.871 23.3898L136.806 26.0056C137.392 26.4923 137.566 27.0778 137.483 27.7545L136.943 31.1459C136.821 31.8455 136.373 32.2485 135.719 32.2485C135.407 32.2485 135.156 32.1496 135.004 31.9671C134.837 31.7694 134.783 31.4729 134.844 31.1003L135.506 26.9865H130.639L130.023 30.6212C129.582 33.8605 131.749 35.5182 135.255 35.5182C139.407 35.5182 141.513 34.1495 142.121 30.6897L142.479 28.5986C142.866 26.4466 142.57 24.3327 140.859 23.002L137.726 20.2418C137.118 19.7703 136.905 19.2228 137.042 18.4548V18.4244L137.43 15.8619C137.551 15.1471 138 14.7441 138.661 14.7441C138.973 14.7441 139.224 14.8429 139.376 15.0254C139.543 15.2231 139.597 15.5197 139.536 15.8923L138.981 19.3521H143.931L144.38 16.6223C144.95 13.6035 143.513 11.4744 139.133 11.4744H139.125Z" fill="white"/>
<path d="M110.717 11.4819C106.915 11.4819 104.459 12.9571 103.881 16.4169L103.417 19.3673H108.443L108.998 15.8847C109.12 15.1699 109.569 14.7669 110.23 14.7669C110.542 14.7669 110.793 14.8657 110.945 15.0482C111.112 15.2459 111.165 15.5425 111.105 15.9151L110.405 20.409L105.729 22.8803C103.539 24.0361 102.451 25.5569 102.063 27.975L101.508 31.4348C101.067 34.1571 102.497 35.541 105.219 35.541C106.953 35.541 108.162 34.9631 109.089 33.8605L109.964 35.3129H113.021L116.017 16.5158C116.595 13.056 114.237 11.4971 110.724 11.4971L110.717 11.4819ZM108.671 31.1687C108.55 31.8683 108.101 32.2713 107.447 32.2713C107.135 32.2713 106.884 32.1724 106.732 31.9899C106.603 31.8378 106.542 31.6401 106.55 31.3892C106.55 31.3056 106.55 31.2143 106.573 31.1155L107.234 26.9713C107.379 26.1044 107.774 25.5493 108.572 25.1159L109.751 24.5152L108.671 31.1687Z" fill="white"/>
<path d="M89.9426 5.74854C86.1254 5.74854 83.464 7.30735 82.9165 10.7748L79.776 30.3019C79.2514 33.6476 81.2132 35.541 85.5931 35.5486C89.2886 35.5486 91.7828 34.005 92.3379 30.5452L93.4785 23.6864H88.3153V23.7396L87.1443 31.0546C87.0303 31.7922 86.5588 32.2181 85.8668 32.2181C85.5399 32.2181 85.2737 32.1116 85.1064 31.9215C84.924 31.7086 84.8631 31.4044 84.924 31.009L88.2849 10.1817C88.399 9.44408 88.8628 9.01825 89.5624 9.01825C89.8894 9.01825 90.1555 9.11711 90.3228 9.31481C90.5053 9.52772 90.5661 9.83188 90.4977 10.2273L89.5092 16.2877H94.6343L95.5087 10.8888C96.0562 7.42902 93.7598 5.74854 89.9426 5.74854Z" fill="white"/>
<path d="M0.876892 41.1224H27.8407L28.1296 40.1719C29.62 40.9171 31.5818 41.13 34.1368 41.13H76.9929L77.3579 38.8793C79.3198 40.4077 81.9888 41.13 85.5931 41.13H136.608C146.281 41.13 147.338 35.1077 147.908 31.8456L150.189 17.6641C150.934 13.5655 149.55 10.8433 148.25 9.28448C146.212 6.82839 143.14 5.58134 139.11 5.58134C136.251 5.58134 133.81 6.16685 131.825 7.32265C129.985 6.16685 127.674 5.58134 124.936 5.58134C122.039 5.58134 119.568 6.18205 117.568 7.36828C115.705 6.18966 113.401 5.58894 110.709 5.58894C110.298 5.58894 109.888 5.60415 109.485 5.62696L110.374 0H89.935C87.5625 0 85.2433 0.638734 83.2054 1.82496L83.4715 0H52.1963L51.2838 5.79425H38.5775L40.334 0H0.876892V41.13M147.946 17.2763L145.657 31.4806C145.079 34.7655 144.364 38.8564 136.601 38.8564H85.5855C81.8367 38.8564 79.3122 38.0428 77.7914 36.1646C76.377 34.4157 76.0348 32.72 76.0348 32.72L75.0539 38.8488H34.1368C30.2359 38.8488 28.084 37.731 26.951 36.484C26.9282 36.4612 26.913 36.446 26.8978 36.4232L26.1602 38.8488H3.15809V2.25839H37.2772L35.5207 8.05264H53.2456L54.1581 2.25839H80.8558L80.0498 7.77129L81.3652 6.25049C83.5704 3.71075 86.6956 2.25839 89.9502 2.25839H107.721L106.755 8.34159L107.599 8.15909C108.565 7.94618 109.614 7.83973 110.717 7.83973C113.393 7.83973 115.56 8.51648 117.172 9.84718L117.53 10.1513L117.902 9.86239C119.651 8.51648 122.024 7.83212 124.944 7.83212C127.674 7.83212 129.848 8.49367 131.415 9.79395L131.772 10.0905L132.145 9.80916C133.894 8.49367 136.236 7.82452 139.118 7.82452C142.433 7.82452 144.919 8.79022 146.501 10.7064C147.49 11.9003 148.547 13.999 147.946 17.2535V17.2763Z" fill="white"/>
<path d="M0.876892 41.1224H27.8407L28.1296 40.1719C29.62 40.9171 31.5818 41.13 34.1368 41.13H76.9929L77.3579 38.8793C79.3198 40.4077 81.9888 41.13 85.5931 41.13H136.608C146.281 41.13 147.338 35.1077 147.908 31.8456L150.189 17.6641C150.934 13.5655 149.55 10.8433 148.25 9.28448C146.212 6.82839 143.14 5.58134 139.11 5.58134C136.251 5.58134 133.81 6.16685 131.825 7.32265C129.985 6.16685 127.674 5.58134 124.936 5.58134C122.039 5.58134 119.568 6.18205 117.568 7.36828C115.705 6.18966 113.401 5.58894 110.709 5.58894C110.298 5.58894 109.888 5.60415 109.485 5.62696L110.374 0H89.935C87.5625 0 85.2433 0.638734 83.2054 1.82496L83.4715 0H52.1963L51.2838 5.79425H38.5775L40.334 0H0.876892V41.13M147.946 17.2763L145.657 31.4806C145.079 34.7655 144.364 38.8564 136.601 38.8564H85.5855C81.8367 38.8564 79.3122 38.0428 77.7914 36.1646C76.377 34.4157 76.0348 32.72 76.0348 32.72L75.0539 38.8488H34.1368C30.2359 38.8488 28.084 37.731 26.951 36.484C26.9282 36.4612 26.913 36.446 26.8978 36.4232L26.1602 38.8488H3.15809V2.25839H37.2772L35.5207 8.05264H53.2456L54.1581 2.25839H80.8558L80.0498 7.77129L81.3652 6.25049C83.5704 3.71075 86.6956 2.25839 89.9502 2.25839H107.721L106.755 8.34159L107.599 8.15909C108.565 7.94618 109.614 7.83973 110.717 7.83973C113.393 7.83973 115.56 8.51648 117.172 9.84718L117.53 10.1513L117.902 9.86239C119.651 8.51648 122.024 7.83212 124.944 7.83212C127.674 7.83212 129.848 8.49367 131.415 9.79395L131.772 10.0905L132.145 9.80916C133.894 8.49367 136.236 7.82452 139.118 7.82452C142.433 7.82452 144.919 8.79022 146.501 10.7064C147.49 11.9003 148.547 13.999 147.946 17.2535V17.2763Z" fill="white"/>
<path d="M23.1338 35.176L32.137 5.90063H27.0347L22.4191 20.7512H22.0845L22.1377 5.90063H16.5412L12.1309 20.7512H11.8039V5.90063H6.79285V35.176H12.1537L17.1647 18.4092H17.4917L17.773 35.176H23.1338Z" fill="white"/>
</svg>
