<svg width="77" height="76" viewBox="0 0 77 76" fill="none" xmlns="http://www.w3.org/2000/svg">
<path d="M31.0038 64.7887C30.0851 65.4823 30.3422 66.5094 29.9002 67.5393C29.4568 68.572 28.6285 68.6178 28.4381 68.6178C28.3338 68.6178 28.2254 68.5984 28.1462 68.5845V64.4343H25.5124V68.5845C25.4346 68.5998 25.3261 68.6178 25.2205 68.6178C25.0301 68.6178 24.2031 68.572 23.7598 67.5393C23.3164 66.5094 23.5735 65.4823 22.6548 64.7887C22.4463 64.6331 22.0252 64.4343 21.5332 64.4343H17.882L15.9432 68.4455L13.9626 64.4343H10.8535V64.7415L14.5408 71.3378L13.9223 72.6165C13.4275 73.645 12.0613 72.9209 12.0613 72.9209L11.6248 74.8291C11.6248 74.8291 12.5727 75.4212 13.775 75.4212C14.9772 75.4212 15.8931 74.7638 16.3726 73.7881L18.7271 68.9834L19.5665 67.2724L20.0502 66.2898L20.053 66.2856C20.2948 66.294 20.7326 66.3593 20.873 66.8583C21.0273 67.3947 21.2802 69.0501 22.1781 69.9646L19.8445 74.7166V75.1544H23.0343L24.6437 71.0445C24.9009 71.0904 25.183 71.1196 25.511 71.1196V75.1572H28.1448V71.1196C28.4714 71.1196 28.7563 71.0904 29.0121 71.0445L30.6215 75.1572H33.8099V74.7193L31.4777 69.9674C32.3742 69.0529 32.6299 67.3975 32.78 66.861C32.944 66.2773 33.5125 66.2856 33.7043 66.2856C33.8961 66.2856 34.1476 66.3106 34.1476 66.3106V64.4357H32.1226C31.6348 64.4357 31.2122 64.6345 31.0038 64.7887ZM41.8336 68.3343H38.2839V64.4357H35.4972V75.1572H38.2839V70.811H41.8336V75.1572H44.6217V64.4357H41.8336V68.3343ZM1.61919 72.2801C1.45519 73.064 0.883954 73.1238 0.689373 73.1238C0.479503 73.1238 0.151495 73.0696 0.151495 73.0696L0 75.1572C0 75.1572 0.629609 75.2656 1.53302 75.2656C3.82491 75.2656 4.15848 73.6255 4.23631 73.2683C4.41282 72.4469 5.00491 68.9139 5.21339 66.9139H7.21063V75.1572H9.9987V64.4357H2.74776C2.74915 64.4357 1.83323 71.2558 1.61919 72.2801ZM64.9929 66.861C65.1583 66.2773 65.7268 66.2856 65.9186 66.2856C66.1104 66.2856 66.362 66.3106 66.362 66.3106V64.4357H64.3383C63.8449 64.4357 63.4238 64.6345 63.2139 64.7901C62.2966 65.4837 62.5537 66.5108 62.1104 67.5407C61.667 68.5733 60.8414 68.6192 60.6496 68.6192C60.1548 68.6192 59.8477 68.5539 59.8477 68.5539V64.4343H57.061V75.1558H59.8477V70.9625C60.3327 71.064 60.783 71.0376 61.2014 71.0001L63.5628 75.1558H66.7553V74.7179L63.6809 69.9743C64.5788 69.0612 64.8414 67.3975 64.9929 66.861ZM75.9798 64.4357L72.6455 67.5824C71.435 68.7262 70.5691 69.7116 70.3801 69.9326H70.3467C70.3717 69.6727 70.494 68.3704 70.494 67.3364V64.4357H67.7073V75.1572H68.5427L72.0618 71.6672C73.2752 70.5233 74.1369 69.5379 74.3273 69.3169H74.3634C74.337 69.5768 74.2133 70.8805 74.2133 71.9132V75.1585H77V64.4371H75.9798V64.4357ZM51.1332 67.5824C49.9226 68.7262 49.0581 69.7116 48.8677 69.9326H48.833C48.8594 69.6727 48.9817 68.3704 48.9817 67.3364V64.4357H46.1936V75.1572H47.0289L50.5495 71.6672C51.76 70.5233 52.6217 69.5379 52.8121 69.3169H52.8483C52.8219 69.5768 52.6982 70.8805 52.6982 71.9132V75.1585H55.4863V64.4371H54.4675L51.1332 67.5824Z" fill="white"/>
<path d="M7.48306 23.8696C7.48306 23.8696 11.3427 24.6104 17.7319 28.0003C21.6611 30.0837 23.4415 31.8349 23.7834 32.1629C24.3449 32.6952 24.88 33.4805 24.9009 34.0518C24.9398 34.9705 24.2879 35.5959 23.7084 36.1866C23.019 36.8913 20.8119 38.8593 18.8675 40.3548C10.4588 46.8371 6.7645 48.8733 6.7645 48.8733L6.85067 49.0039C8.21691 48.6315 20.4894 43.4097 20.4894 43.4097C18.5659 45.2221 9.24819 54.0214 9.24819 54.0214L9.35521 54.152C9.35521 54.152 27.215 42.6411 27.4568 42.4785C27.8599 42.2019 28.4228 41.8586 28.9412 41.949C29.6751 42.0713 29.7293 43.2749 29.6945 43.8434C29.2039 52.537 24.8925 59.1931 24.8925 59.1931L25.026 59.2792C26.3449 57.8643 33.2734 48.6203 34.5757 45.4598C35.8794 42.2909 35.2498 41.1901 34.8885 39.0456C34.5313 36.8968 35.3554 36.1727 35.8933 35.4569C36.673 34.4215 37.0302 33.4096 37.0302 33.4096C35.3582 32.4423 34.3089 32.6591 33.7543 32.7244C33.1984 32.7925 32.8898 32.8801 31.9989 32.6424C31.1094 32.4048 30.566 31.5959 29.935 30.666C29.3054 29.7321 29.1636 28.0614 25.1177 26.6465C21.0718 25.2247 7.49974 23.7445 7.49974 23.7445L7.48306 23.8696Z" fill="white"/>
<path d="M43.1609 0L43.0622 0.0236275C43.0622 0.0236275 43.7877 3.15778 43.3735 9.0522C43.1192 12.677 42.3992 14.5894 42.2686 14.948C42.0559 15.5457 41.6445 16.2058 41.2318 16.4129C40.5549 16.7423 39.8711 16.463 39.2401 16.2267C38.4882 15.9445 36.2852 14.948 34.5243 13.989C26.8994 9.85415 24.1489 7.77214 24.1489 7.77214L24.085 7.88055C24.8119 8.78118 32.7786 16.2114 32.7786 16.2114C30.7855 15.3803 21.1246 11.3344 21.1246 11.3344L21.0648 11.4608C21.0648 11.4608 35.5806 20.9884 35.7807 21.1121C36.1226 21.3206 36.5604 21.6249 36.6674 22.0433C36.8203 22.6312 35.9364 23.076 35.5041 23.2372C28.8467 25.7473 22.4463 24.2156 22.4463 24.2156L22.4255 24.3463C23.9154 24.8633 33.1135 27.4916 35.9127 27.4137C38.7064 27.3401 39.3235 26.5089 40.8078 25.5291C42.2922 24.5478 43.1067 24.9245 43.8239 25.0857C44.8524 25.3261 45.7252 25.2608 45.7252 25.2608C45.8948 23.6903 45.3805 22.9759 45.1526 22.5839C44.9163 22.1878 44.7495 21.9891 44.6314 21.2455C44.516 20.5033 44.9371 19.8292 45.425 19.0467C45.91 18.267 47.1164 17.6124 46.8343 14.1169C46.5522 10.6325 43.179 0.0555947 43.1609 0Z" fill="white"/>
<path d="M38.3867 42.7147C38.4076 42.9663 38.4423 43.1081 38.3228 43.5111C38.2019 43.9128 37.828 44.1519 37.3957 44.4229C36.9635 44.6967 36.2019 44.7384 35.5014 46.5591C34.8009 48.384 33.9419 54.537 33.9419 54.537L34.0031 54.5453C34.0031 54.5453 34.3922 52.801 36.0184 49.9393C37.0219 48.1797 37.8447 47.3917 37.9962 47.2429C38.2463 46.9955 38.6091 46.7607 38.8718 46.7579C39.2887 46.7537 39.5639 47.0581 39.8252 47.3291C40.1352 47.6516 41.0024 48.6856 41.6557 49.5876C44.4938 53.5057 45.3694 55.2152 45.3694 55.2152L45.4278 55.168C45.2805 54.5425 43.0678 48.8941 43.0678 48.8941C43.8684 49.7933 47.7461 54.1533 47.7461 54.1533L47.8045 54.1019C47.8045 54.1019 42.8093 45.8211 42.7384 45.7127C42.6175 45.5223 42.4688 45.2638 42.5188 45.0289C42.5841 44.6953 43.1345 44.687 43.3889 44.712C47.3375 45.0525 50.3062 47.1012 50.3062 47.1012L50.3479 47.0456C49.7225 46.4201 45.6113 43.147 44.1908 42.5091C42.7676 41.8767 42.2575 42.1449 41.2776 42.2839C40.2936 42.4173 39.9767 42.0337 39.6557 41.7752C39.197 41.4138 38.7425 41.2332 38.7425 41.2332C38.2797 41.9781 38.3631 42.4604 38.3867 42.7147Z" fill="white"/>
<path d="M53.4403 23.5972C53.3389 23.903 53.1818 24.3088 52.8774 24.4672C52.4466 24.6966 51.9351 24.0934 51.7252 23.7848C48.5035 19.0579 48.0866 13.8612 48.0866 13.8612L47.9865 13.8709C47.8586 15.1315 47.949 22.7216 48.5355 24.8939C49.1248 27.0635 49.8892 27.3818 50.9386 28.363C51.9893 29.3346 51.8462 30.0434 51.8517 30.6313C51.8614 31.4819 52.0769 32.1546 52.0769 32.1546C53.3361 31.9878 53.7989 31.4555 54.0602 31.1998C54.3229 30.9426 54.4494 30.7745 55.0095 30.541C55.5682 30.3075 56.1728 30.509 56.8733 30.7453C57.5766 30.9788 58.3188 31.7946 60.9943 30.9121C63.6698 30.0323 71.3349 25.379 71.3349 25.379L71.2932 25.3026C71.2932 25.3026 68.9832 26.4575 64.298 27.2511C61.4196 27.739 59.7892 27.5347 59.4821 27.5027C58.9748 27.4499 58.3827 27.2525 58.145 26.9648C57.7531 26.502 57.8462 25.9169 57.9129 25.379C57.988 24.7369 58.3535 22.8272 58.7677 21.2664C60.5565 14.5283 61.6614 11.9849 61.6614 11.9849L61.5655 11.9557C61.0012 12.6923 56.6968 20.3241 56.6968 20.3241C56.9734 18.609 58.3063 10.292 58.3063 10.292L58.1992 10.2739C58.1978 10.2725 53.4973 23.4179 53.4403 23.5972Z" fill="white"/>
<path d="M52.2423 35.4569C50.7607 36.4243 50.7037 37.0803 50.2298 38.1004C49.7572 39.1192 49.1929 39.1887 48.7537 39.3374C48.1158 39.5473 47.6696 39.8739 47.6696 39.8739C48.0991 40.7787 48.6092 40.9914 48.8663 41.129C49.1234 41.261 49.2791 41.3138 49.5877 41.6738C49.899 42.0407 49.8948 42.5425 49.8907 43.1206C49.8865 43.7044 49.4598 44.4577 50.7635 46.2464C52.0783 48.038 57.4279 52.637 57.4279 52.637L57.4682 52.5884C57.4682 52.5884 56.0422 51.1429 54.3118 47.8309C53.2486 45.7906 53.004 44.5244 52.9511 44.2853C52.865 43.8976 52.8691 43.4028 53.0248 43.1526C53.2805 42.7481 53.742 42.6731 54.1617 42.5925C54.6621 42.4952 56.1784 42.302 57.4446 42.2353C62.9248 41.9351 65.0972 42.1449 65.0972 42.1449V42.0643C64.405 41.8239 57.6503 40.4576 57.6503 40.4576C58.9984 40.2464 65.5475 39.2234 65.5475 39.2234L65.535 39.1359C65.535 39.1359 54.555 38.8148 54.4049 38.8148C54.1534 38.8148 53.8129 38.794 53.6155 38.605C53.3389 38.3395 53.6683 37.8086 53.849 37.5765C56.6023 34.0142 60.3869 32.4395 60.3869 32.4395L60.3577 32.3658C59.3834 32.5799 53.7239 34.4896 52.2423 35.4569Z" fill="white"/>
</svg>
