<svg width="114" height="31" viewBox="0 0 114 31" fill="none" xmlns="http://www.w3.org/2000/svg">
<g clip-path="url(#clip0_231_130)">
<path d="M39.787 3.90967L33.2396 15.2014H107.457L114.004 3.90967H39.787ZM48.9968 6.25141L47.8305 12.8556C47.7782 13.1684 47.6414 13.2766 47.3277 13.2766H46.5395C46.2258 13.2766 46.1293 13.1724 46.1936 12.8556L46.6159 10.4738C46.7205 9.8362 46.9296 9.1425 47.372 8.11598H47.2875C46.9417 8.82973 46.5194 9.49937 46.1011 10.0648L45.1319 11.396C44.975 11.6166 44.8584 11.7008 44.597 11.7008H44.1667C43.9133 11.7008 43.8288 11.6366 43.7444 11.396L43.2175 10.0648C42.9963 9.49937 42.8717 8.88186 42.7751 8.11598H42.6907C42.755 9.1866 42.7229 9.78407 42.5942 10.4858L42.1719 12.8556C42.1196 13.1684 41.9909 13.2766 41.6652 13.2766H40.8648C40.5391 13.2766 40.4546 13.1724 40.5069 12.8556L41.6732 6.25141C41.7375 5.93463 41.8622 5.83038 42.1799 5.83038H42.8435C43.2015 5.83038 43.294 5.89453 43.3905 6.14314L44.6935 9.69585L47.2594 6.15116C47.4484 5.87849 47.5449 5.82637 47.8787 5.82637H48.6348C48.9606 5.82637 49.0571 5.93062 48.9927 6.2474L48.9968 6.25141ZM52.0493 13.433C50.0505 13.433 49.1898 12.186 49.4834 10.4978L50.2395 6.26344C50.2918 5.93864 50.4164 5.83439 50.7422 5.83439H51.5948C51.9085 5.83439 52.005 5.93864 51.9407 6.26344L51.1645 10.6983C51.0277 11.4522 51.4058 11.8812 52.2906 11.8812C53.1753 11.8812 53.6982 11.4522 53.8269 10.6983L54.6151 6.26344C54.6795 5.93864 54.7921 5.83439 55.1178 5.83439H55.9704C56.2841 5.83439 56.3807 5.93864 56.3163 6.26344L55.508 10.8146C55.2144 12.5027 54.036 13.437 52.0493 13.437V13.433ZM62.5379 7.80321L61.7296 8.12801C61.436 8.25632 61.3314 8.20019 61.2228 7.9195C61.074 7.47842 60.7603 7.2258 60.1088 7.2258C59.2361 7.2258 58.8138 7.44634 58.7294 7.94757C58.6328 8.51295 59.3286 8.62924 60.1812 8.72547C61.3797 8.87384 62.7873 9.41918 62.4615 11.2436C62.2001 12.6912 61.0539 13.433 59.035 13.433C57.3941 13.433 56.5013 12.8035 56.2922 11.7369C56.2399 11.4321 56.3445 11.2958 56.6582 11.1915L57.4786 10.9189C57.7843 10.8026 57.9009 10.8547 57.9813 11.1715C58.106 11.6206 58.5403 11.8932 59.212 11.8932C60.1048 11.8932 60.6437 11.6647 60.7483 11.0632C60.8448 10.5379 60.2335 10.3936 59.4653 10.3094C58.2226 10.161 56.6783 9.76402 57.0161 7.83529C57.2574 6.47195 58.3714 5.67399 60.3381 5.67399C61.8744 5.67399 62.5339 6.33562 62.8396 7.27793C62.9361 7.56262 62.8516 7.6749 62.5339 7.80321H62.5379ZM65.9484 6.25141L64.7821 12.8556C64.7298 13.1684 64.6051 13.2766 64.2874 13.2766H63.4267C63.113 13.2766 63.0286 13.1724 63.0809 12.8556L64.2472 6.25141C64.3115 5.93463 64.4282 5.83038 64.7418 5.83038H65.6025C65.9162 5.83038 66.0127 5.93463 65.9484 6.25141ZM72.4475 8.01172L71.6793 8.26434C71.3656 8.3686 71.249 8.30444 71.1726 8.0037C71.068 7.49045 70.698 7.23783 69.9942 7.23783C69.0813 7.23783 68.5223 7.65886 68.3735 8.48488L67.9954 10.6221C67.8466 11.4481 68.2568 11.8692 69.1738 11.8692C69.8776 11.8692 70.3401 11.6166 70.6337 11.1033C70.8026 10.7986 70.9393 10.7264 71.2209 10.8427L72.0091 11.1474C72.2947 11.2517 72.3469 11.4 72.1861 11.6927C71.5667 12.8235 70.4728 13.433 68.9164 13.433C66.9297 13.433 66.0047 12.2702 66.2983 10.5299L66.6763 8.39266C66.9819 6.65239 68.2528 5.678 70.2396 5.678C71.796 5.678 72.5641 6.33963 72.7732 7.4704C72.8255 7.76311 72.7612 7.91148 72.4354 8.01573L72.4475 8.01172ZM81.3476 8.01172L80.5794 8.26434C80.2657 8.3686 80.1491 8.30444 80.0727 8.0037C79.9681 7.49045 79.5981 7.23783 78.8943 7.23783C77.9814 7.23783 77.4224 7.65886 77.2736 8.48488L76.8955 10.6221C76.7467 11.4481 77.1569 11.8692 78.0739 11.8692C78.7777 11.8692 79.2402 11.6166 79.5338 11.1033C79.7027 10.7986 79.8394 10.7264 80.1209 10.8427L80.9092 11.1474C81.1947 11.2517 81.247 11.4 81.0862 11.6927C80.4668 12.8235 79.3729 13.433 77.8165 13.433C75.8298 13.433 74.9048 12.2702 75.1983 10.5299L75.5764 8.39266C75.882 6.65239 77.1529 5.678 79.1396 5.678C80.6961 5.678 81.4642 6.33963 81.6733 7.4704C81.7256 7.76311 81.6613 7.91148 81.3355 8.01573L81.3476 8.01172ZM85.1562 12.8436C85.1039 13.1684 84.9792 13.2726 84.6534 13.2726H83.8008C83.4871 13.2726 83.3906 13.1684 83.455 12.8436L83.8853 10.3575L82.1399 6.25943C82.0433 6.01884 82.1198 5.83038 82.4334 5.83038H83.3786C83.8853 5.83038 84.01 5.84241 84.1467 6.2073L85.0395 8.64929L86.8171 6.2073C87.0705 5.8384 87.2153 5.83038 87.71 5.83038H88.647C88.9607 5.83038 88.9728 6.01884 88.7958 6.25943L85.5985 10.3815L85.1562 12.8436ZM94.4785 8.01172L93.7104 8.26434C93.3967 8.3686 93.28 8.30444 93.2077 8.0037C93.1031 7.49045 92.7331 7.23783 92.0293 7.23783C91.1164 7.23783 90.5573 7.65886 90.4085 8.48488L90.0305 10.6221C89.8817 11.4481 90.2919 11.8692 91.2089 11.8692C91.9127 11.8692 92.3752 11.6166 92.6687 11.1033C92.8377 10.7986 92.9744 10.7264 93.2559 10.8427L94.0442 11.1474C94.3297 11.2517 94.382 11.4 94.2211 11.6927C93.6018 12.8235 92.5079 13.433 90.9515 13.433C88.9647 13.433 88.0397 12.2702 88.3333 10.5299L88.7114 8.39266C89.017 6.65239 90.2879 5.678 92.2746 5.678C93.831 5.678 94.5992 6.33963 94.8083 7.4704C94.8606 7.76311 94.7962 7.91148 94.4705 8.01573L94.4785 8.01172ZM99.8355 12.1419L99.7188 12.8436C99.6545 13.1684 99.5298 13.2726 99.2161 13.2726H95.2185C94.8928 13.2726 94.8083 13.1684 94.8606 12.8436L96.0269 6.25943C96.0912 5.93463 96.2039 5.83038 96.5296 5.83038H97.3822C97.6959 5.83038 97.7924 5.93463 97.7281 6.25943L96.7709 11.7128H99.4856C99.7993 11.7128 99.8958 11.8291 99.8315 12.1419H99.8355ZM106.725 6.25943L106.6 6.96115C106.548 7.27392 106.419 7.38218 106.093 7.38218H103.137L102.908 8.73349H105.337C105.651 8.73349 105.735 8.83775 105.683 9.15453L105.558 9.85625C105.506 10.181 105.369 10.2853 105.056 10.2853H102.627L102.373 11.7128H105.434C105.747 11.7128 105.844 11.8291 105.78 12.1419L105.655 12.8436C105.603 13.1684 105.478 13.2726 105.16 13.2726H100.829C100.503 13.2726 100.419 13.1684 100.471 12.8436L101.637 6.25943C101.702 5.93463 101.814 5.83038 102.144 5.83038H106.371C106.697 5.83038 106.793 5.93463 106.729 6.25943H106.725Z" fill="white"/>
<path d="M70.1149 21.0276H70.0304C70.0304 21.0276 69.8937 21.7734 69.5157 22.5152L68.6751 24.1512H70.3803L70.1189 22.5273C70.0144 21.7734 70.1189 21.0276 70.1189 21.0276H70.1149Z" fill="white"/>
<path d="M31.8803 17.543L25.3409 28.8347H78.5887L85.1361 17.543H31.8803ZM37.752 21.0195H34.796L34.5346 22.5192H36.9637C37.2774 22.5192 37.374 22.6234 37.3096 22.9482L37.193 23.6499C37.1407 23.9667 37.004 24.071 36.6862 24.071H34.2571L33.8268 26.4809C33.7745 26.8057 33.6498 26.9099 33.3321 26.9099H32.4795C32.1538 26.9099 32.0693 26.8057 32.1216 26.4809L33.2879 19.8967C33.3522 19.5719 33.4648 19.4677 33.7906 19.4677H38.0174C38.3432 19.4677 38.4397 19.5719 38.3754 19.8967L38.2507 20.5985C38.1984 20.9152 38.0737 21.0195 37.748 21.0195H37.752ZM43.7806 21.0195H40.8246L40.5954 22.3708H43.0245C43.3382 22.3708 43.4226 22.4751 43.3704 22.7918L43.2457 23.4936C43.1934 23.8184 43.0567 23.9226 42.743 23.9226H40.3138L40.0605 25.3501H43.121C43.4347 25.3501 43.5312 25.4664 43.4669 25.7792L43.3422 26.4809C43.2899 26.8057 43.1653 26.9099 42.8475 26.9099H38.5161C38.1904 26.9099 38.1059 26.8057 38.1582 26.4809L39.3245 19.8967C39.3889 19.5719 39.5015 19.4677 39.8272 19.4677H44.0541C44.3798 19.4677 44.4763 19.5719 44.412 19.8967L44.2873 20.5985C44.235 20.9152 44.1104 21.0195 43.7846 21.0195H43.7806ZM50.4285 21.4405L49.6201 21.7653C49.3265 21.8896 49.222 21.8375 49.1134 21.5568C48.9646 21.1157 48.6509 20.8631 47.9994 20.8631C47.1267 20.8631 46.7044 21.0836 46.6199 21.5889C46.5234 22.1543 47.2192 22.2706 48.0718 22.3668C49.2702 22.5152 50.6779 23.0565 50.3521 24.881C50.0907 26.3285 48.9445 27.0703 46.9256 27.0703C45.2847 27.0703 44.3919 26.4408 44.1828 25.3702C44.1305 25.0654 44.235 24.9291 44.5487 24.8248L45.3692 24.5522C45.6748 24.4359 45.7914 24.488 45.8759 24.8048C46.0006 25.2539 46.4349 25.5306 47.1066 25.5306C47.9994 25.5306 48.5383 25.298 48.6429 24.7005C48.7394 24.1752 48.1281 24.0309 47.3599 23.9467C46.1172 23.7983 44.5729 23.4013 44.9107 21.4726C45.152 20.1093 46.266 19.3113 48.2326 19.3113C49.7689 19.3113 50.4285 19.9729 50.7342 20.9152C50.8307 21.1959 50.7462 21.3122 50.4285 21.4405ZM55.0897 21.0195L54.1205 26.4809C54.0682 26.8057 53.9435 26.9099 53.6177 26.9099H52.7651C52.4514 26.9099 52.367 26.8057 52.4193 26.4809L53.3845 21.0195H51.7356C51.4219 21.0195 51.3254 20.9152 51.3897 20.5985L51.5063 19.8967C51.5707 19.5719 51.6954 19.4677 52.0131 19.4677H57.0201C57.3338 19.4677 57.4303 19.5719 57.366 19.8967L57.2494 20.5985C57.185 20.9152 57.0603 21.0195 56.7466 21.0195H55.0977H55.0897ZM59.8554 19.8847L58.6891 26.4889C58.6369 26.8017 58.5122 26.9099 58.1945 26.9099H57.3338C57.0201 26.9099 56.9357 26.8057 56.9879 26.4889L58.1543 19.8847C58.2186 19.5719 58.3312 19.4637 58.6489 19.4637H59.5096C59.8233 19.4637 59.9198 19.5679 59.8554 19.8847ZM63.1492 26.9099H62.2966C62.003 26.9099 61.8744 26.8458 61.8341 26.5731L60.6035 19.8847C60.5512 19.604 60.6558 19.4637 60.9614 19.4637H61.7497C62.2444 19.4637 62.3811 19.5479 62.4213 19.8526L62.9562 23.7622C63.0286 24.3276 63.0085 25.0213 63.0085 25.0213H63.0809C63.0809 25.0213 63.282 24.3517 63.5635 23.7742L65.4979 19.8526C65.6467 19.5479 65.7835 19.4637 66.2983 19.4637H67.1066C67.4203 19.4637 67.4646 19.6 67.3077 19.8847L63.7324 26.5531C63.5755 26.8458 63.4267 26.9099 63.1452 26.9099H63.1492ZM72.174 26.9099H71.438C70.9031 26.9099 70.7664 26.8257 70.7222 26.521L70.5734 25.5346H67.9673L67.4646 26.521C67.3077 26.8257 67.1589 26.9099 66.6361 26.9099H65.8559C65.5422 26.9099 65.4859 26.7736 65.6467 26.4889L69.3467 19.8206C69.4955 19.5278 69.6323 19.4637 69.9259 19.4637H70.7342C71.0278 19.4637 71.1565 19.5278 71.2088 19.8005L72.5319 26.4889C72.5842 26.7696 72.4797 26.9099 72.174 26.9099ZM78.2348 25.7752L78.1181 26.4769C78.0538 26.8017 77.9291 26.9059 77.6154 26.9059H73.6178C73.2921 26.9059 73.2076 26.8017 73.2599 26.4769L74.4262 19.8927C74.4905 19.5679 74.6072 19.4637 74.9329 19.4637H75.7855C76.0992 19.4637 76.1957 19.5679 76.1314 19.8927L75.1742 25.3461H77.8889C78.2026 25.3461 78.2991 25.4624 78.2348 25.7752Z" fill="white"/>
<path d="M34.9971 1.56383H14.4823L13.5774 0H35.902L34.9971 1.56383Z" fill="white"/>
<path d="M11.1523 19.2632L12.0572 17.6994L1.79369 0H0L11.1523 19.2632Z" fill="white"/>
<path d="M32.7369 5.46949H16.7465L15.8416 3.90967H33.6418L32.7369 5.46949Z" fill="white"/>
<path d="M13.4165 15.3536L14.3214 13.7898L6.32219 0H4.52448L13.4165 15.3536Z" fill="white"/>
<path d="M31.3775 7.81519L30.4727 9.37902H19.0067L18.1018 7.81519H31.3775Z" fill="white"/>
<path d="M15.6807 11.4441L16.5856 9.88423L10.8627 0H9.05292L15.6807 11.4441Z" fill="white"/>
<path d="M20.0644 11.7249L13.4245 23.1849L12.5197 21.6211L18.2546 11.7249H20.0644Z" fill="white"/>
<path d="M29.1133 11.7249L17.953 31.0001L17.0361 29.4202L27.3036 11.7249H29.1133Z" fill="white"/>
<path d="M24.5889 11.7249L15.6848 27.0865L14.7919 25.5467L22.7791 11.7249H24.5889Z" fill="white"/>
</g>
<defs>
<clipPath id="clip0_231_130">
<rect width="114" height="31" fill="white"/>
</clipPath>
</defs>
</svg>
