<svg width="131" height="29" viewBox="0 0 131 29" fill="none" xmlns="http://www.w3.org/2000/svg">
<g clip-path="url(#clip0_315_395)">
<path d="M110.316 -0.000100378C109.435 -0.000100378 108.719 0.721975 108.719 1.61146V12.8883H99.1427V1.61146C99.1447 0.721975 98.4294 -0.000100378 97.5482 -0.000100378C96.6671 -0.000100378 95.9517 0.721975 95.9517 1.61146V27.3883C95.9517 28.2778 96.6671 28.9999 97.5482 28.9999C98.4294 28.9999 99.1447 28.2778 99.1447 27.3883V16.1094H108.721V27.3883C108.721 28.2778 109.437 28.9999 110.318 28.9999C111.199 28.9999 111.914 28.2778 111.914 27.3883V1.61146C111.912 0.721975 111.199 -0.000100378 110.316 -0.000100378ZM14.4921 -0.000100378C14.4761 -0.000100378 14.4621 -0.000100378 14.4461 0.00191659C13.8327 -0.0303549 13.2293 0.300428 12.9356 0.889384L7.97836 10.8956L3.02312 0.891401C3.02312 0.891401 3.01513 0.879299 3.01313 0.873248C2.99915 0.84501 2.98316 0.816773 2.96718 0.788535C2.95519 0.768365 2.9452 0.748196 2.93121 0.730043C2.91723 0.707856 2.90124 0.687687 2.88725 0.6655C2.87127 0.643313 2.85529 0.61911 2.8373 0.596923C2.82531 0.580787 2.81133 0.566668 2.79734 0.550533C2.77536 0.526329 2.75338 0.500108 2.73141 0.477922C2.71942 0.46582 2.70743 0.455735 2.69544 0.443633C2.67146 0.419429 2.64549 0.395226 2.61951 0.373039C2.60553 0.360937 2.59154 0.350852 2.57755 0.338751C2.55158 0.318581 2.5256 0.298411 2.49963 0.280259C2.47965 0.26614 2.45967 0.254038 2.43969 0.241936C2.41771 0.227817 2.39573 0.213698 2.37175 0.19958C2.34578 0.185461 2.3198 0.173359 2.29183 0.15924C2.27385 0.151172 2.25386 0.141088 2.23588 0.131003C2.20591 0.118901 2.17594 0.106799 2.14597 0.0967142C2.12799 0.0906633 2.11 0.0825954 2.09202 0.0765445C2.06405 0.0664596 2.03408 0.0604087 2.0041 0.0523408C1.98213 0.0462899 1.96214 0.040239 1.94017 0.0362051C1.91419 0.0301542 1.89021 0.0261202 1.86424 0.0220863C1.83627 0.0180524 1.80829 0.0120014 1.78032 0.00998447C1.76034 0.0079675 1.73836 0.00595053 1.71838 0.00393356C1.68441 0.00191659 1.65044 -0.000100378 1.61848 -0.000100378C1.61248 -0.000100378 1.60449 -0.000100378 1.59849 -0.000100378C1.58651 -0.000100378 1.57452 -0.000100378 1.56253 -0.000100378C1.52856 -0.000100378 1.4926 0.00191659 1.45863 0.00595053C1.43865 0.00595053 1.41867 0.00998447 1.39869 0.0140184C1.36872 0.0180524 1.33675 0.0220863 1.30678 0.0281372C1.2828 0.0321711 1.25882 0.0382221 1.23484 0.044273C1.20887 0.0503239 1.18289 0.0563748 1.15692 0.0644427C1.12895 0.0725105 1.10097 0.0825954 1.075 0.0906633C1.05302 0.0987312 1.03304 0.104782 1.01106 0.114867C0.981089 0.126969 0.951117 0.141088 0.921146 0.155206C0.909158 0.161257 0.897169 0.165291 0.885181 0.171342C0.879187 0.175376 0.873192 0.17941 0.8652 0.181427C0.837227 0.195546 0.811252 0.211682 0.783279 0.227817C0.763298 0.239919 0.743317 0.252021 0.723336 0.264123C0.701358 0.278242 0.681377 0.294377 0.661396 0.308496C0.637419 0.324632 0.61544 0.340768 0.593461 0.35892C0.577477 0.371022 0.56349 0.385141 0.549504 0.397243C0.525527 0.419429 0.499552 0.441616 0.477573 0.463803C0.465584 0.475905 0.455594 0.488006 0.443606 0.500108C0.419629 0.526329 0.395652 0.550533 0.373673 0.57877C0.361684 0.592889 0.351694 0.607008 0.341704 0.621126C0.321723 0.647347 0.301742 0.673568 0.283759 0.699788C0.269773 0.719958 0.259782 0.740128 0.245796 0.758281C0.231809 0.780467 0.217823 0.804671 0.203836 0.828874C0.18985 0.855095 0.177861 0.881316 0.163875 0.907536C0.153884 0.925689 0.143894 0.945859 0.135901 0.966028C0.123913 0.994266 0.111925 1.02452 0.101934 1.05679C0.0959399 1.07494 0.0879476 1.0931 0.0819534 1.11125C0.071963 1.13949 0.0659687 1.16974 0.0579764 1.2C0.0519822 1.22218 0.045988 1.24437 0.0419918 1.26454C0.0359976 1.29076 0.0320014 1.31698 0.0280053 1.34118C0.0240091 1.36942 0.0180149 1.39564 0.0160168 1.42388C0.0140187 1.44607 0.0120206 1.46624 0.0100226 1.48842C0.00802448 1.52271 0.0060264 1.55498 0.00402832 1.58927C0.00402832 1.59532 0.00402832 1.60339 0.00402832 1.60944V27.3863C0.00402832 28.2758 0.71934 28.9979 1.60049 28.9979C2.48165 28.9979 3.19696 28.2758 3.19696 27.3863V8.43689L6.55772 15.222C6.55772 15.222 6.56572 15.2361 6.56971 15.2442C6.60168 15.3047 6.63365 15.3632 6.67361 15.4196V15.4237C6.71358 15.4781 6.75753 15.5306 6.80149 15.581C6.81348 15.5951 6.82547 15.6072 6.83945 15.6213C6.87542 15.6597 6.91538 15.696 6.95534 15.7323C6.96533 15.7424 6.97532 15.7524 6.98731 15.7605C7.03726 15.8008 7.08921 15.8371 7.14516 15.8735C7.16114 15.8835 7.17513 15.8916 7.19112 15.8997C7.21709 15.9158 7.24307 15.9319 7.27104 15.9461C7.28503 15.9541 7.30101 15.9582 7.31699 15.9662C7.34097 15.9783 7.36695 15.9884 7.39092 15.9985C7.43288 16.0146 7.47284 16.0308 7.5148 16.0429C7.53678 16.0489 7.55876 16.057 7.58274 16.0631C7.63069 16.0752 7.68064 16.0852 7.7286 16.0933C7.74658 16.0953 7.76456 16.0994 7.78255 16.1034C7.85048 16.1115 7.91642 16.1175 7.98435 16.1175H7.98635C8.05429 16.1175 8.12022 16.1115 8.18816 16.1034C8.20614 16.1014 8.22412 16.0973 8.24011 16.0933C8.29006 16.0852 8.33801 16.0752 8.38597 16.0631C8.40795 16.057 8.42992 16.0509 8.4519 16.0429C8.49386 16.0288 8.53582 16.0146 8.57778 15.9985C8.60176 15.9884 8.62773 15.9783 8.65171 15.9662C8.6657 15.9602 8.68168 15.9541 8.69767 15.9461C8.72564 15.9319 8.75161 15.9158 8.77759 15.8997C8.79357 15.8916 8.80756 15.8835 8.82355 15.8735C8.87949 15.8392 8.93144 15.8008 8.98139 15.7605C8.99138 15.7524 9.00137 15.7424 9.01336 15.7323C9.05532 15.698 9.09329 15.6597 9.13125 15.6213C9.14324 15.6072 9.15523 15.5951 9.16921 15.581C9.21517 15.5306 9.25713 15.4781 9.29509 15.4237V15.4196C9.33505 15.3632 9.36902 15.3047 9.40099 15.2442C9.40499 15.2361 9.41098 15.23 9.41498 15.222L12.9036 8.18073V27.3904C12.9036 28.2798 13.6189 29.0019 14.5001 29.0019C15.3812 29.0019 16.0965 28.2798 16.0965 27.3904V1.61146C16.0886 0.721975 15.3732 -0.000100378 14.4921 -0.000100378ZM91.9256 1.49447C91.9256 1.47229 91.9216 1.44808 91.9196 1.4259C91.9156 1.39968 91.9116 1.37346 91.9076 1.34925C91.9036 1.32102 91.8996 1.29278 91.8937 1.26656C91.8897 1.24639 91.8837 1.22622 91.8777 1.20605C91.8697 1.17378 91.8617 1.14352 91.8517 1.11327C91.8457 1.09713 91.8397 1.081 91.8337 1.06486C91.8217 1.03259 91.8097 1.00032 91.7977 0.970062C91.7897 0.95191 91.7818 0.935774 91.7738 0.917621C91.7598 0.889384 91.7478 0.861146 91.7318 0.832908C91.7198 0.810722 91.7058 0.788535 91.6918 0.766348C91.6779 0.746179 91.6659 0.723992 91.6519 0.703822C91.6339 0.677602 91.6139 0.653398 91.5959 0.627177C91.584 0.613059 91.574 0.596923 91.562 0.582804C91.54 0.556583 91.518 0.53238 91.494 0.506159C91.482 0.494057 91.4701 0.479939 91.4581 0.467837C91.4361 0.44565 91.4121 0.423463 91.3861 0.403294C91.3702 0.389175 91.3562 0.375056 91.3402 0.362954C91.3182 0.344802 91.2962 0.328666 91.2742 0.31253C91.2543 0.296394 91.2323 0.282275 91.2103 0.26614C91.1923 0.254038 91.1723 0.241936 91.1524 0.229834C91.1244 0.213698 91.0984 0.197563 91.0684 0.183444C91.0624 0.17941 91.0565 0.175376 91.0505 0.173359C91.0385 0.167308 91.0265 0.163274 91.0145 0.157223C90.9845 0.143105 90.9566 0.128986 90.9246 0.116884C90.9026 0.108816 90.8806 0.100748 90.8606 0.0926803C90.8347 0.0825954 90.8067 0.0745275 90.7807 0.0664596C90.7547 0.0583918 90.7268 0.0523409 90.7008 0.0462899C90.6788 0.040239 90.6548 0.0362051 90.6329 0.0321711C90.6009 0.0261202 90.5689 0.0220863 90.537 0.0180524C90.519 0.0160354 90.499 0.0140184 90.481 0.0120014C90.445 0.0079675 90.4091 0.0079675 90.3731 0.00595053C90.3631 0.00595053 90.3511 0.00595053 90.3411 0.00595053C90.3352 0.00595053 90.3292 0.00595053 90.3232 0.00595053C90.2872 0.00595053 90.2532 0.0079675 90.2173 0.0120014C90.1973 0.0120014 90.1793 0.0140184 90.1593 0.0160354C90.1293 0.0200693 90.0994 0.0241033 90.0714 0.0301542C90.0474 0.0341881 90.0234 0.0382221 89.9995 0.042256C89.9755 0.0483069 89.9535 0.0543578 89.9295 0.0604087C89.9016 0.0684766 89.8736 0.0745275 89.8476 0.0846124C89.8276 0.0906633 89.8077 0.0987312 89.7897 0.106799C89.7617 0.116884 89.7317 0.126969 89.7038 0.141088C89.6838 0.149155 89.6638 0.15924 89.6438 0.169325C89.6178 0.181427 89.5919 0.193529 89.5679 0.207648C89.5439 0.221766 89.5219 0.235885 89.498 0.250004C89.478 0.262106 89.458 0.274208 89.438 0.288326C89.412 0.306479 89.3861 0.326649 89.3601 0.346819C89.3461 0.35892 89.3301 0.369005 89.3161 0.381107C89.2902 0.403294 89.2662 0.42548 89.2402 0.449684C89.2282 0.461786 89.2142 0.473888 89.2022 0.48599C89.1803 0.508176 89.1603 0.53238 89.1383 0.556583C89.1243 0.572719 89.1103 0.588855 89.0963 0.604991C89.0804 0.62516 89.0644 0.647347 89.0484 0.669534C89.0324 0.69172 89.0164 0.713907 89.0004 0.738111C88.9884 0.756264 88.9785 0.774416 88.9665 0.792569C88.9485 0.820807 88.9325 0.849044 88.9185 0.879299C88.9145 0.88535 88.9125 0.891401 88.9085 0.897451L79.1639 20.571V1.61146C79.1619 0.721975 78.4486 -0.000100378 77.5674 -0.000100378C76.6863 -0.000100378 75.971 0.721975 75.971 1.61146V27.3883C75.971 27.3883 75.971 27.4025 75.971 27.4105C75.971 27.4428 75.973 27.4731 75.975 27.5053C75.975 27.5275 75.977 27.5517 75.9809 27.5739C75.9849 27.6001 75.9889 27.6243 75.9929 27.6505C75.9969 27.6788 76.0009 27.707 76.0069 27.7353C76.0109 27.7554 76.0169 27.7736 76.0209 27.7938C76.0289 27.826 76.0369 27.8583 76.0469 27.8885C76.0529 27.9047 76.0589 27.9208 76.0649 27.9349C76.0769 27.9672 76.0889 28.0015 76.1028 28.0318C76.1108 28.0479 76.1188 28.064 76.1268 28.0802C76.1408 28.1104 76.1548 28.1387 76.1708 28.1669C76.1828 28.1871 76.1947 28.2072 76.2067 28.2274C76.2207 28.2496 76.2347 28.2738 76.2487 28.296C76.2647 28.3202 76.2827 28.3424 76.3006 28.3666C76.3146 28.3847 76.3266 28.4009 76.3406 28.419C76.3606 28.4432 76.3826 28.4654 76.4045 28.4896C76.4185 28.5037 76.4305 28.5199 76.4465 28.534C76.4665 28.5541 76.4905 28.5743 76.5124 28.5945C76.5304 28.6106 76.5464 28.6247 76.5644 28.6409C76.5844 28.657 76.6044 28.6711 76.6243 28.6873C76.6483 28.7034 76.6703 28.7216 76.6943 28.7377C76.7103 28.7478 76.7282 28.7599 76.7462 28.77C76.7762 28.7881 76.8042 28.8043 76.8361 28.8204C76.8421 28.8224 76.8461 28.8264 76.8521 28.8305C76.8601 28.8345 76.8701 28.8365 76.8781 28.8426C76.9181 28.8627 76.958 28.8789 77 28.895C77.016 28.9011 77.0319 28.9071 77.0499 28.9132C77.0879 28.9273 77.1259 28.9374 77.1658 28.9475C77.1858 28.9535 77.2038 28.9575 77.2238 28.9616C77.2597 28.9696 77.2957 28.9757 77.3317 28.9797C77.3536 28.9838 77.3756 28.9878 77.3976 28.9898C77.4296 28.9938 77.4635 28.9938 77.4975 28.9959C77.5215 28.9959 77.5435 28.9999 77.5654 28.9999C77.5714 28.9999 77.5774 28.9999 77.5834 28.9999C77.6434 28.9999 77.7033 28.9939 77.7612 28.9878C77.7792 28.9858 77.7972 28.9817 77.8152 28.9797C77.8671 28.9717 77.9191 28.9616 77.969 28.9475C77.983 28.9434 77.995 28.9414 78.009 28.9374C78.0729 28.9192 78.1369 28.897 78.1988 28.8688C78.2028 28.8688 78.2048 28.8648 78.2088 28.8648C78.2648 28.8406 78.3187 28.8103 78.3727 28.7801C78.3886 28.772 78.4026 28.7619 78.4166 28.7538C78.4646 28.7236 78.5105 28.6913 78.5525 28.657C78.5605 28.651 78.5705 28.6449 78.5785 28.6368C78.6264 28.5965 78.6744 28.5521 78.7163 28.5057C78.7303 28.4916 78.7423 28.4775 78.7563 28.4614C78.7923 28.419 78.8282 28.3767 78.8602 28.3303C78.8662 28.3202 78.8742 28.3121 78.8802 28.302C78.9201 28.2456 78.9541 28.185 78.9861 28.1225C78.9881 28.1185 78.9921 28.1144 78.9941 28.1104L88.7387 8.43689V27.3904C88.7387 28.2798 89.454 29.0019 90.3351 29.0019C91.2163 29.0019 91.9316 28.2798 91.9316 27.3904V1.61146C91.9316 1.61146 91.9316 1.59734 91.9316 1.58927C91.9316 1.557 91.9296 1.52675 91.9276 1.49447H91.9256ZM72.1846 0.471871C71.5612 -0.157424 70.5502 -0.157424 69.9268 0.471871L59.8844 10.6112V1.61146C59.8824 0.721975 59.1671 -0.000100378 58.286 -0.000100378C57.4048 -0.000100378 56.6895 0.721975 56.6895 1.61146V27.3883C56.6895 28.2778 57.4048 28.9999 58.286 28.9999C59.1671 28.9999 59.8824 28.2778 59.8824 27.3883V18.3886L69.9248 28.5279C70.2365 28.8426 70.6441 28.9999 71.0537 28.9999C71.4633 28.9999 71.8709 28.8426 72.1826 28.5279C72.806 27.8986 72.806 26.878 72.1826 26.2488L60.5438 14.4999L72.1826 2.75105C72.806 2.12175 72.806 1.10117 72.1826 0.471871H72.1846ZM27.2598 -0.000100378C24.9181 -0.000100378 22.8081 1.65785 21.3175 4.66515C20.0028 7.31949 19.2795 10.8109 19.2795 14.4999C19.2795 18.1889 20.0028 21.6803 21.3175 24.3346C22.8081 27.344 24.9181 28.9999 27.2598 28.9999C29.6016 28.9999 31.7115 27.344 33.2021 24.3346C34.5168 21.6803 35.2401 18.1889 35.2401 14.4999C35.2401 10.8109 34.5168 7.31949 33.2021 4.66515C31.7115 1.65785 29.6016 -0.000100378 27.2598 -0.000100378ZM27.2598 25.7768C25 25.7768 22.4724 20.9542 22.4724 14.4999C22.4724 8.04559 25 3.22302 27.2598 3.22302C29.5196 3.22302 32.0472 8.04559 32.0472 14.4999C32.0472 20.9542 29.5196 25.7768 27.2598 25.7768ZM128.962 4.66515C127.471 1.65785 125.361 -0.000100378 123.022 -0.000100378C120.682 -0.000100378 118.57 1.65785 117.079 4.66515C115.765 7.31949 115.041 10.8109 115.041 14.4999C115.041 18.1889 115.765 21.6803 117.079 24.3346C118.57 27.344 120.68 28.9999 123.022 28.9999C125.363 28.9999 127.473 27.3419 128.964 24.3346C130.279 21.6803 131.002 18.1889 131.002 14.4999C131.002 10.8109 130.279 7.31949 128.964 4.66515H128.962ZM123.02 25.7768C120.76 25.7768 118.232 20.9542 118.232 14.4999C118.232 8.04559 120.76 3.22302 123.02 3.22302C125.28 3.22302 127.807 8.04559 127.807 14.4999C127.807 20.9542 125.28 25.7768 123.02 25.7768ZM51.7742 3.22302C52.6554 3.22302 53.3707 2.50094 53.3707 1.61146C53.3707 0.721975 52.6554 -0.000100378 51.7742 -0.000100378C43.8539 -0.000100378 37.41 6.50463 37.41 14.4999C37.41 22.4952 43.8539 28.9999 51.7742 28.9999C52.6554 28.9999 53.3707 28.2778 53.3707 27.3883C53.3707 26.4989 52.6554 25.7768 51.7742 25.7768C45.6142 25.7768 40.603 20.7182 40.603 14.4999C40.603 8.28158 45.6142 3.22302 51.7742 3.22302Z" fill="white"/>
</g>
<defs>
<clipPath id="clip0_315_395">
<rect width="131" height="29" fill="white"/>
</clipPath>
</defs>
</svg>
