<?xml version="1.0" encoding="utf-8"?>
<!-- Generator: Adobe Illustrator 17.1.0, SVG Export Plug-In . SVG Version: 6.00 Build 0)  -->
<!DOCTYPE svg PUBLIC "-//W3C//DTD SVG 1.1//EN" "http://www.w3.org/Graphics/SVG/1.1/DTD/svg11.dtd">
<svg version="1.1" id="Слой_1" xmlns="http://www.w3.org/2000/svg" xmlns:xlink="http://www.w3.org/1999/xlink" x="0px" y="0px"
	 width="400.3px" height="138.3px" viewBox="187.9 230.9 400.3 138.3" enable-background="new 187.9 230.9 400.3 138.3"
	 xml:space="preserve">
<g>
	<g>
		<g>
			<path fill="#ffff" d="M371.8,292.8h-19.5l-0.3-4.9l6.1-0.8l10.8-28.9l-7.6-0.7l0.4-5h30.2l0.4,5L385,258l11,29.3l5.7,0.6
				l-0.3,4.9h-23.2l-0.3-4.9l7.8-0.6l-2.3-6.4h-16.6l-2.3,6.3l7.7,0.7L371.8,292.8z M375.1,258.7h-0.2l-6.3,17.1h12.8L375.1,258.7z"
				/>
			<path fill="#ffff" d="M414.8,302.2l7.3-0.6V292l0.8-6.6h-0.3c-1.5,6.5-5.3,8.2-9.6,8.2c-6.7,0-10.5-5.7-10.5-14.7
				c0-9.4,4.3-14.4,10.9-14.4c4.9,0,7.8,2.5,9.2,7.4h0.3l-0.7-5.9v-10.4l-6.7-0.6l0.3-4.7h15.4V266l-0.7,5.9h0.3
				c1.4-4.9,4.3-7.4,9.2-7.4c6.6,0,10.9,5,10.9,14.4c0,9-3.8,14.7-10.5,14.7c-4.3,0-8.1-1.7-9.6-8.2h-0.2l0.7,6.6v9.6l7.3,0.6
				l-0.2,4.4h-23.1L414.8,302.2z M422,278.7c0-6.2-2-8.4-4.8-8.4c-3,0-4.8,2.6-4.8,8.3c0,5.8,1.7,8.6,4.8,8.6
				C419.8,287.3,422,285.5,422,278.7z M440.7,278.6c0-5.8-1.7-8.3-4.7-8.3c-2.8,0-4.8,2.2-4.8,8.4c0,6.8,2.2,8.6,4.8,8.6
				C439,287.3,440.7,284.5,440.7,278.6z"/>
			<path fill="#ffff" d="M453.2,288.4l4.7-0.7v-17.2l-4.7-0.6l0.3-4.7h16.9l0.3,4.7l-3.3,0.5v12.3l10.1-12.2v-0.1l-3.3-0.5
				l0.3-4.7h16.9l0.3,4.7l-4.7,0.6v17.2l4.7,0.7l-0.3,4.4h-17.2l-0.1-4.4l3.3-0.5v-12.5l-10.1,12.3v0.1l3.3,0.5l-0.2,4.4h-17.2
				L453.2,288.4z"/>
			<path fill="#ffff" d="M494.4,292.8l-0.2-4.4l4.7-0.7v-17.2l-4.7-0.6l0.3-4.7h16.9l0.1,4.7l-3,0.5v17.3h8.7v-17.3l-3-0.5
				l0.2-4.7h15.4l0.1,4.7l-3,0.5v17.3h8.7v-17.3l-2.9-0.5l0.1-4.7h16.9l0.3,4.7l-4.7,0.6v17.2l4.7,0.7l-0.3,4.4H494.4z"/>
			<path fill="#ffff" d="M571.4,287.3c-1.5,3.8-4.5,6.3-10,6.3c-5.2,0-8.8-2.6-8.8-7.6c0-4.2,2.4-6.7,9-7.4
				c5.7-0.5,8.7-1.2,10.1-2.3l0.1-1.1c0.4-6.5-2.5-8.3-5.5-8.3c-2.4,0-3,0.7-3,1.5c0,0.7,1,1.8,1,4.1c0,3.2-2.7,4.4-4.7,4.4
				c-3,0-5-1.8-5-4.8c0-5.1,6.3-7.6,13.8-7.6c10.3,0,13.6,3.9,13.1,11.8l-0.4,6.3c-0.2,3.3,0.2,4.9,1.5,4.9s1.5-1,1.4-3.6l-0.1-1.5
				l3.1-0.4l0.3,2.6c0.8,6.3-2.7,8.9-8,8.9C575,293.4,572,291.7,571.4,287.3z M571.5,282.5l0.2-3.9c-0.9,0.6-2.2,1-3.9,1.4
				c-3.8,1-5.1,2-5.1,4.5c0,2,1.4,3.3,3.6,3.3C569,287.9,570.9,286.1,571.5,282.5z"/>
		</g>
	</g>
	<g>
		<path fill="#ffff" d="M325.2,233.9c-2.2-2.4-6.2-3.1-9.1-3c-0.8,0-1.6,0.1-2.4,0.1c-8.9,0.8-14.4,4.8-18.4,8.5
			c-2.1,1.9-2.8,2.7-4,4.1c-6-6.1-14.2-9.5-22.8-9.5c-2.2,0-4.7,0-7.3,0l0,0c-27.6,0-73.1,0-73.1,0l14.7,7.9l0,0l5.1,2.8
			c0,0,4.1,2.2,9.4,5.1c5.6,3,12.5,6.8,17.4,9.6c5.4,3,11.8,5,17.6,6.6c4,1.1,7.7,2,10.6,2.9c-0.4,0.3-2.3,2-5.2,4.6
			c-8.4,7.5-25.5,22.6-39.8,35.3c-13,11.5-23.7,21.1-23.7,21.1l57.6-26l2-0.9l1.5-0.7l0.7-0.3l0.1-0.1l-27.9,61.9
			c0,0,20.6-23.2,37.9-42.6c4-4.5,7.8-8.7,11.1-12.5c4.4-5,8-9,10.1-11.4c0.3-0.3,0.6-0.6,0.8-0.9c0.6-0.7,1-1.1,1.1-1.2
			c3.1,11.8,6,21.6,9.7,28.2c5.5,9.6,15.6,28.2,21.2,38.5c0.1,0.2,0.2,0.3,0.3,0.5c1.4,2.6,2.5,4.6,3.1,5.7c0.1,0.3,0.3,0.5,0.3,0.6
			c0.1,0.2,0.2,0.4,0.2,0.4s0,0,0-0.1V369c0-2.2,0-24,0.1-45.8l0,0l0,0l0,0c0-12,0-24,0-32.9c0-5-1.1-9.8-3.2-14.2l0,0
			c-1.6-3.4-3.8-6.5-6.6-9.2c2.7-2.4,8-6.5,11.1-16.3l0,0c0.6-1.9,1.1-4,1.5-6.4L338,235C334.3,234.3,329.6,233.9,325.2,233.9z"/>
		<g>
			<polygon fill="#ffff" points="255.4,302.4 256.1,302.1 256.2,301.9 			"/>
			<path fill="#ffff" d="M202.8,242L202.8,242c0.7,0,1.4,0,2.1,0.1C204.2,242.1,203.5,242,202.8,242z"/>
			<path fill="#ffff" d="M230.4,248.8c-3.9,0.7-7.9,1.1-12,1.1c-0.4,0-0.7,0-1.1,0c5.6,3,12.5,6.8,17.4,9.6c5.4,3,11.8,5,17.6,6.6
				C246.4,258.9,238.9,252.9,230.4,248.8z"/>
			<path fill="#ffff" d="M300,264c-0.2,1.9-0.4,3.8-0.5,5.8C299.7,267.8,299.8,265.9,300,264z"/>
			<path fill="#ffff" d="M266.2,295.4c-1.5-7.9-4.4-15.2-8.5-21.8c-8.4,7.5-25.5,22.6-39.8,35.3c2.5,0.3,5,0.5,7.6,0.5
				c9.4,0,18.2-1.9,26.3-5.4l2-0.9c0.8-0.4,1.6-0.8,2.4-1.2C259.8,300,263.1,297.8,266.2,295.4z"/>
			<path fill="#ffff" d="M317.1,344c0-0.6,0.1-1.2,0.1-1.8C317.1,342.8,317.1,343.4,317.1,344z"/>
			<path fill="#ffff" d="M300.9,284.8c3.3-2.3,6.9-4.2,10.6-5.8c-3.8,1.6-7.4,3.6-10.8,5.9l0,0c-5.1,3.5-9.5,7.7-13.3,12.6
				c0.3-0.3,0.6-0.6,0.8-0.9C291.8,292,296.1,288.1,300.9,284.8z"/>
			<path fill="#ffff" d="M317,346.1L317,346.1c0-0.6,0-1.3,0.1-1.9C317,344.8,317,345.5,317,346.1z"/>
			<path fill="#ffff" d="M211.3,242.8c-0.4-0.1-0.7-0.1-1.1-0.2C210.5,242.7,210.9,242.7,211.3,242.8z"/>
			<path fill="#ffff" d="M235.7,247.6c-0.7,0.2-1.4,0.4-2.1,0.5C234.3,247.9,235,247.8,235.7,247.6z"/>
			<path fill="#ffff" d="M208.1,242.4c-0.9-0.1-1.8-0.2-2.7-0.2C206.4,242.2,207.3,242.3,208.1,242.4z"/>
			<path fill="#ffff" d="M261.2,234.1L261.2,234.1c-5.1,4.3-10.8,7.9-17,10.6C250.4,242,256.1,238.4,261.2,234.1z"/>
			<path fill="#ffff" d="M244.1,244.7c-0.8,0.3-1.6,0.7-2.4,1C242.5,245.4,243.3,245,244.1,244.7z"/>
			<path fill="#ffff" d="M317.2,342c0.2-2,0.6-3.9,1-5.8C317.8,338.1,317.4,340,317.2,342z"/>
			<path fill="#ffff" d="M233,248.3c-0.9,0.2-1.7,0.4-2.6,0.5C231.3,248.6,232.1,248.5,233,248.3z"/>
			<path fill="#ffff" d="M230.4,248.8c-0.7-0.4-1.5-0.7-2.2-1C228.9,248.1,229.7,248.4,230.4,248.8z"/>
			<path fill="#ffff" d="M241.4,245.8c-1.7,0.6-3.4,1.2-5.2,1.7C238,247,239.7,246.4,241.4,245.8z"/>
			<path fill="#ffff" d="M324.2,323.2L324.2,323.2c-1.6,2.2-2.9,4.6-4,7.2C321.3,327.8,322.6,325.4,324.2,323.2z"/>
			<path fill="#ffff" d="M318.8,334.1c0.4-1.3,0.9-2.5,1.4-3.7C319.7,331.6,319.2,332.9,318.8,334.1z"/>
			<path fill="#ffff" d="M318.3,336c0.2-0.6,0.3-1.2,0.5-1.8C318.6,334.7,318.5,335.3,318.3,336z"/>
			<path fill="#ffff" d="M266.2,295.4c0.8,4.2,1.3,8.5,1.3,12.9s-0.4,8.8-1.3,13c4-4.5,7.8-8.7,11.1-12.5
				c1.4-17.8,9.9-33.7,22.7-44.8c1.5-12.4,6.4-23.7,13.7-33c-8.9,0.8-14.4,4.8-18.4,8.5c-2.1,1.9-2.8,2.7-4,4.1
				C291.3,264.6,281.5,283.3,266.2,295.4z"/>
			<path fill="#ffff" d="M217.9,308.9c-13,11.5-23.7,21.1-23.7,21.1l57.6-26c-8.1,3.5-16.9,5.4-26.3,5.4
				C223,309.4,220.4,309.2,217.9,308.9z"/>
			<path fill="#ffff" d="M253.8,303.1l1.5-0.7l0.8-0.5C255.4,302.3,254.6,302.7,253.8,303.1z"/>
			<path fill="#ffff" d="M266.2,295.4c-3.1,2.4-6.4,4.6-10,6.5l-0.1,0.2l0.1-0.1l-27.9,61.9c0,0,20.6-23.2,37.9-42.6
				c0.8-4.2,1.3-8.5,1.3-13C267.5,303.9,267,299.6,266.2,295.4z"/>
			<path fill="#ffff" d="M230.4,248.8c-0.7-0.4-1.5-0.7-2.2-1c-5.3-2.4-11-4.1-16.9-5c-0.4-0.1-0.7-0.1-1.1-0.2
				c-0.7-0.1-1.3-0.2-2-0.2c-0.9-0.1-1.8-0.2-2.7-0.2c-0.2,0-0.4,0-0.6,0c-0.7,0-1.4,0-2-0.1l5.1,2.8c0,0,4.1,2.2,9.4,5.1
				c0.4,0,0.7,0,1.1,0C222.5,249.9,226.5,249.5,230.4,248.8z"/>
			<path fill="#ffff" d="M261.2,234.1c-5.1,4.3-10.8,7.9-17,10.6c0,0-0.1,0-0.1,0.1c-0.8,0.3-1.6,0.7-2.4,1
				c-0.1,0-0.2,0.1-0.2,0.1c-1.7,0.6-3.4,1.2-5.2,1.7c-0.2,0-0.3,0.1-0.5,0.1c-0.7,0.2-1.4,0.4-2.1,0.5c-0.2,0-0.4,0.1-0.6,0.1
				c-0.9,0.2-1.7,0.4-2.6,0.5c8.5,4.1,16,10.1,21.9,17.3c4,1.1,7.7,2,10.6,2.9c-0.4,0.3-2.3,2-5.2,4.6c4,6.6,7,13.9,8.5,21.8
				c15.3-12.1,25.1-30.8,25.1-51.8c-6-6.1-14.2-9.5-22.8-9.5C266.3,234.1,263.8,234.1,261.2,234.1z"/>
			<path fill="#ffff" d="M320.2,330.4c-0.5,1.2-1,2.5-1.4,3.7l0,0c-0.2,0.6-0.4,1.2-0.5,1.8c0,0.1,0,0.1-0.1,0.2
				c-0.5,1.9-0.8,3.8-1,5.8c0,0.1,0,0.1,0,0.2c-0.1,0.6-0.1,1.2-0.1,1.8c0,0.1,0,0.1,0,0.2c0,0.7,0,1.3,0,2c0,5.8,1.2,11.3,3.5,16.3
				c1.4,2.6,2.5,4.6,3.1,5.7c0.2,0.3,0.4,0.6,0.6,0.8c0-2.2,0-24,0.1-45.8C322.6,325.4,321.3,327.8,320.2,330.4L320.2,330.4z"/>
			<path fill="#ffff" d="M300.9,284.8c-4.8,3.3-9.1,7.2-12.7,11.7c0.6-0.7,1-1.1,1.1-1.2c3.1,11.8,6,21.6,9.7,28.2
				c5.5,9.6,15.6,28.2,21.2,38.5c-2.1-4.9-3.2-10.2-3.2-15.8c0,0,0,0,0-0.1s0,0,0,0c0-0.6,0-1.3,0.1-1.9c0-0.1,0-0.1,0-0.2
				c0-0.6,0.1-1.2,0.1-1.8c0-0.1,0-0.1,0-0.2c0.2-2,0.6-3.9,1-5.8c0-0.1,0-0.1,0.1-0.2c0.2-0.6,0.3-1.2,0.5-1.8l0,0
				c0.4-1.3,0.9-2.5,1.4-3.7l0,0c1.1-2.6,2.4-5,4-7.3l0,0C312.4,313.6,304,300.2,300.9,284.8z"/>
			<path fill="#ffff" d="M324.1,369.2L324.1,369.2c-0.1-0.2-0.1-0.3-0.2-0.4C324,369.1,324.1,369.2,324.1,369.2z"/>
			<path fill="#ffff" d="M317.2,342.2c0-0.1,0-0.1,0-0.2C317.2,342,317.2,342.1,317.2,342.2z"/>
			<path fill="#ffff" d="M323.9,368.8c0.1,0.1,0.1,0.2,0.2,0.3V369c-0.2-0.3-0.4-0.6-0.6-0.8C323.7,368.4,323.8,368.7,323.9,368.8
				z"/>
			<path fill="#ffff" d="M317,346.2c0,5.6,1.1,10.9,3.2,15.8c0.1,0.2,0.2,0.3,0.3,0.5C318.3,357.5,317,352,317,346.2L317,346.2z"
				/>
			<path fill="#ffff" d="M318.3,336.2c0-0.1,0-0.1,0.1-0.2C318.3,336,318.3,336.1,318.3,336.2z"/>
			<path fill="#ffff" d="M318.8,334.1L318.8,334.1L318.8,334.1z"/>
			<path fill="#ffff" d="M317.1,344.2c0-0.1,0-0.1,0-0.2C317.1,344,317.1,344.1,317.1,344.2z"/>
			<path fill="#ffff" d="M320.2,330.4L320.2,330.4L320.2,330.4z"/>
			<path fill="#ffff" d="M300.7,284.9c-0.8-4.2-1.3-8.6-1.3-13c0.1-0.7,0.1-1.4,0.1-2.1c0.1-1.9,0.2-3.8,0.5-5.8
				c-12.8,11.1-21.3,27-22.7,44.8c4.4-5,8-9,10.1-11.4C291.2,292.6,295.6,288.4,300.7,284.9z"/>
			<path fill="#ffff" d="M300.9,284.8c3.1,15.4,11.5,28.8,23.3,38.3c0-12,0-24,0-32.9c0-5-1.1-9.8-3.2-14.2
				c-3.3,0.7-6.5,1.8-9.5,3C307.8,280.6,304.2,282.5,300.9,284.8z"/>
			<path fill="#ffff" d="M300.9,284.8c3.1,15.4,11.5,28.8,23.3,38.3l0,0C312.4,313.6,304,300.2,300.9,284.8z"/>
			<path fill="#ffff" d="M299.5,269.8c0,0.7,0,1.4,0,2c0,4.5,0.4,8.8,1.3,13l-0.1,0.1l0,0c3.4-2.3,7-4.3,10.8-5.9
				c3-1.3,6.2-2.3,9.5-3.1c-1.6-3.4-3.8-6.5-6.6-9.2c2.7-2.4,8-6.5,11.1-16.3c-9.5,2.6-18.2,7.3-25.5,13.6
				C299.8,265.9,299.7,267.8,299.5,269.8z"/>
			<path fill="#ffff" d="M300.7,284.9l0.1-0.1c-0.9-4.2-1.3-8.5-1.3-13c0-0.7,0-1.4,0-2c0,0.7-0.1,1.4-0.1,2.1
				C299.4,276.3,299.9,280.7,300.7,284.9z"/>
			<path fill="#ffff" d="M321,276L321,276c-3.3,0.7-6.5,1.8-9.5,3C314.5,277.8,317.7,276.7,321,276z"/>
			<path fill="#ffff" d="M325.5,250.4c0.6-1.9,1.1-4,1.5-6.4l11.1-9.2c-3.8-0.5-8.5-0.9-12.9-0.9c-2.2-2.4-6.2-3.1-9.1-3
				c-0.8,0-1.6,0.1-2.4,0.1c-7.3,9.3-12.2,20.6-13.7,33C307.3,257.7,316,253,325.5,250.4z"/>
			<path fill="#ffff" d="M325.5,250.4L325.5,250.4c-9.5,2.6-18.2,7.3-25.5,13.6C307.3,257.7,316,253,325.5,250.4z"/>
			<path fill="#ffff" d="M205.4,242.1c0.9,0.1,1.8,0.1,2.7,0.2c0.7,0.1,1.4,0.2,2,0.2c0.4,0.1,0.7,0.1,1.1,0.2
				c5.9,0.9,11.6,2.6,16.9,5c0.7,0.3,1.5,0.7,2.2,1c0.9-0.2,1.7-0.3,2.6-0.5c0.2,0,0.4-0.1,0.6-0.1c0.7-0.2,1.4-0.3,2.1-0.5
				c0.2,0,0.3-0.1,0.5-0.1c1.8-0.5,3.5-1.1,5.2-1.7c0.1,0,0.2-0.1,0.2-0.1c0.8-0.3,1.6-0.6,2.4-1c0,0,0.1,0,0.1-0.1
				c6.2-2.6,11.9-6.2,17-10.6c-27.6,0-73.1,0-73.1,0l14.7,7.9c0.7,0,1.4,0,2.1,0.1C205,242.1,205.2,242.1,205.4,242.1z"/>
			<path fill="#ffff" d="M210.2,242.6c-0.7-0.1-1.3-0.2-2-0.2C208.8,242.4,209.5,242.5,210.2,242.6z"/>
			<path fill="#ffff" d="M205.4,242.1c-0.2,0-0.4,0-0.6,0C205,242.1,205.2,242.1,205.4,242.1z"/>
			<path fill="#ffff" d="M228.2,247.8c-5.3-2.4-11-4.1-16.9-5C217.2,243.7,222.9,245.4,228.2,247.8z"/>
			<path fill="#ffff" d="M236.2,247.4c-0.2,0-0.3,0.1-0.5,0.1C235.9,247.5,236.1,247.5,236.2,247.4z"/>
			<path fill="#ffff" d="M233.6,248.1c-0.2,0-0.4,0.1-0.6,0.1C233.2,248.2,233.4,248.2,233.6,248.1z"/>
			<path fill="#ffff" d="M244.2,244.7c0,0-0.1,0-0.1,0.1C244.1,244.7,244.2,244.7,244.2,244.7z"/>
			<path fill="#ffff" d="M241.6,245.7c-0.1,0-0.2,0.1-0.2,0.1C241.5,245.7,241.6,245.7,241.6,245.7z"/>
		</g>
	</g>
	<g>
		<path fill="#ffff" d="M369.9,322.2v17.7h-5.6V327h-6.1v12.9h-5.6v-17.7L369.9,322.2L369.9,322.2z"/>
		<path fill="#ffff" d="M382.1,339.9h-5.6v-17.7h8.8c5.4,0,8,2.7,8,6.3c0,3.7-2.7,6.3-8,6.3h-3.2L382.1,339.9L382.1,339.9z
			 M382.1,326.5v4h3.2c1.3,0,2.2-0.9,2.2-2s-0.9-2-2.2-2H382.1z"/>
		<path fill="#ffff" d="M407.1,340.4c-5.9,0-10-4-10-9.3s4.1-9.3,10-9.3s10,4,10,9.3S413,340.4,407.1,340.4z M407.1,336
			c2.2,0,4.1-1.9,4.1-4.9s-1.9-4.9-4.1-4.9s-4.1,1.9-4.1,4.9S405,336,407.1,336z"/>
		<path fill="#ffff" d="M422.4,322.2h15.1v4.5H428v2h6.1v4.5H428v2h9.7v4.5h-15.3L422.4,322.2L422.4,322.2z"/>
		<path fill="#ffff" d="M450.5,328.5c1.4,0,2.1-0.8,2.4-1.8l1.1-4.5h5.9l-1.1,4.5c-0.5,2-1.2,3.2-1.8,3.9
			c-0.4,0.4-0.7,0.7-1.1,0.9v0.3l5.5,8.1h-6.5l-4.2-6.6h-1.9v6.6h-5.6v-17.7h5.6v6.3L450.5,328.5L450.5,328.5z"/>
		<path fill="#ffff" d="M480.7,322.2v4.8h-5.4v12.9h-5.6V327h-5.4v-4.8H480.7z"/>
		<path fill="#ffff" d="M501.6,339.9H496v-17.7h5.6v6.3h0.3l5.1-6.3h6.6l-6.3,7.6l6.8,10.1h-6.4l-4.2-6.2l-1.9,2.3L501.6,339.9
			L501.6,339.9z"/>
		<path fill="#ffff" d="M524.4,339.9h-5.6v-17.7h8.8c5.4,0,8,2.7,8,6.3c0,3.7-2.7,6.3-8,6.3h-3.2V339.9z M524.4,326.5v4h3.2
			c1.3,0,2.2-0.9,2.2-2s-0.9-2-2.2-2H524.4z"/>
		<path fill="#ffff" d="M540.2,340.1c-1.5,0-2.8-1.2-2.8-2.5s1.3-2.5,2.8-2.5c1.6,0,2.8,1.2,2.8,2.5S541.7,340.1,540.2,340.1z"/>
		<path fill="#ffff" d="M557.1,322.2c5.1,0,7.8,2.7,7.8,6.1c0,1.6-0.7,2.7-1.5,3.4c-0.4,0.4-0.9,0.7-1.5,0.9v0.3l4.6,7.1h-6.4
			l-3.4-5.6H554v5.6h-5.6v-17.7L557.1,322.2L557.1,322.2z M553.9,330h3.2c1.1,0,1.9-0.8,1.9-1.8s-0.8-1.8-1.9-1.8h-3.2V330z"/>
		<path fill="#ffff" d="M576.4,332.8c0,1.9,1.3,3.2,3.1,3.2s3.1-1.2,3.1-3.2v-10.6h5.6v10.6c0,4.3-3.3,7.6-8.7,7.6
			s-8.7-3.3-8.7-7.6v-10.6h5.6L576.4,332.8L576.4,332.8z"/>
	</g>
</g>
</svg>
