<svg width="47" height="64" viewBox="0 0 47 64" fill="none" xmlns="http://www.w3.org/2000/svg">
<g clip-path="url(#clip0_111_932)">
<path d="M13.85 12.07V9.66H16.96V12.55C16.96 16.72 15.1 20.5 12.11 23.25C10.47 24.75 8.49004 25.95 6.29004 26.72V23.61C7.64004 23.01 8.86004 22.2 9.91004 21.24C12.34 19.01 13.84 15.94 13.84 12.56V12.08L13.85 12.07ZM29.11 12.07V9.66H32.22V12.55C32.22 15.93 33.73 19 36.15 21.23C37.21 22.2 38.44 23.01 39.79 23.61V26.72C37.58 25.95 35.59 24.76 33.95 23.25C30.96 20.51 29.1 16.72 29.1 12.55V12.07H29.11ZM6.29004 31.82C9.87004 30.89 13.07 29.12 15.63 26.77C17.56 25 19.12 22.9 20.21 20.57C20.92 22.49 21.86 24.28 23.03 25.97C24.16 24.51 25.06 22.6 25.87 20.57C26.96 22.9 28.52 25 30.45 26.76C33.01 29.11 36.21 30.88 39.79 31.81V28.82C37.08 27.98 34.64 26.57 32.65 24.74C29.32 21.68 27.25 17.47 27.25 12.83V0H24.14V12.84C24.14 15.1 23.75 17.73 23.04 19.78C22.32 17.73 21.94 15.1 21.94 12.84V0H18.83V12.84C18.83 17.47 16.76 21.69 13.43 24.75C11.44 26.57 9.00004 27.99 6.29004 28.83V31.82ZM19.96 25.05C19.16 26.1 18.27 27.08 17.29 27.98C14.3 30.72 10.52 32.73 6.29004 33.67V36.6C11.38 35.61 15.93 33.26 19.49 29.99C20.25 29.29 20.96 28.55 21.63 27.77L21.52 27.61C20.96 26.78 20.43 25.92 19.96 25.03M24.56 27.87C25.2 28.61 25.88 29.31 26.61 29.98C30.16 33.24 34.72 35.59 39.8 36.58V33.65C35.58 32.7 31.79 30.7 28.81 27.96C27.87 27.1 27.01 26.16 26.23 25.16C25.77 26 25.27 26.82 24.73 27.61C24.67 27.7 24.61 27.78 24.55 27.87" fill="white"/>
<path d="M2.65003 49.7999C2.98003 48.1199 3.40003 46.2499 3.60003 44.5499H5.27003V52.3999H4.18003V49.2899L4.31003 46.4799C4.15003 47.3799 3.54003 50.7099 2.77003 52.3099H2.54003C1.76003 50.7199 1.15003 47.3899 1.00003 46.4799L1.13003 49.2899V52.3999H0.0300293V44.5499H1.70003C1.90003 46.2399 2.32003 48.1199 2.65003 49.7999ZM27.84 45.9199V46.8799C27.84 47.5099 27.57 47.9599 27.15 48.2599C27.61 48.6099 27.84 49.1499 27.84 49.8199V52.3899C27.08 52.3899 26.33 52.3899 25.57 52.3899H24.33V44.5399H25.57C26.33 44.5399 27.08 44.5399 27.84 44.5399V45.9199ZM25.57 48.8899V51.2699H26.59C26.59 50.7599 26.59 50.2499 26.59 49.7399C26.59 48.9399 26.03 48.8599 25.57 48.8899ZM25.57 45.6599V47.7699C26.03 47.7899 26.59 47.7699 26.59 46.9699V46.2599V45.6699H25.57V45.6599ZM21 52.3899H19.76V44.5399H23.45V52.3899H21ZM22.18 45.6599H21.02V51.2699H22.18V45.6599ZM7.39003 52.3899H6.15003V44.5399H9.84003V52.3899H7.39003ZM8.57003 45.6599H7.41003V51.2699H8.57003V45.6599ZM29.91 52.3899H28.67V44.5399H32.36V47.6899H31.09V45.6599H29.91V51.2699H31.09V49.2399H32.36V52.3899H29.91ZM11.96 52.3899H10.72V44.5399H14.41V47.6899H13.14V45.6599H11.96V51.2699H13.14V49.2399H14.41V52.3899H11.96ZM34.48 52.3999H33.24V44.5499H34.48V47.6299H34.69C35.36 47.6299 35.58 46.9199 35.58 46.3999V44.5499H36.82V46.3499C36.82 47.1799 36.5 47.7999 35.89 48.1999C36.56 48.6499 36.82 49.2199 36.82 50.0499V52.4099H35.58V49.9999C35.58 49.4899 35.33 48.8799 34.7 48.8799H34.48V52.4099V52.3999ZM45.55 43.6099H42.81V42.6899H45.55V43.6099ZM42.3 52.3999V44.5499H43.41V49.1399L44.69 44.5499H46.08V52.3999H44.96V46.9399L43.43 52.4099H42.3V52.3999ZM37.65 52.3999V44.5499H38.76V49.1399L40.04 44.5499H41.43V52.3999H40.31V46.9399L38.78 52.4099H37.65V52.3999ZM16.54 52.3999H15.3V44.5499H16.54V47.6299H16.75C17.42 47.6299 17.64 46.9199 17.64 46.3999V44.5499H18.88V46.3499C18.88 47.1799 18.56 47.7999 17.95 48.1999C18.62 48.6499 18.88 49.2199 18.88 50.0499V52.4099H17.64V49.9999C17.64 49.4899 17.39 48.8799 16.76 48.8799H16.54V52.4099V52.3999Z" fill="white"/>
<path d="M18.1801 63.32H16.9401V55.47H20.6301V63.32H19.3601V56.59H18.1801V63.32ZM13.6101 63.32H12.3701V55.47H16.0601V58.62H14.7901V56.59H13.6101V62.2H14.7901V60.17H16.0601V63.32H13.6101ZM22.7401 63.32H21.5001V55.47H25.1901V63.32H22.7401ZM23.9201 56.59H22.7601V62.2H23.9201V56.59ZM29.8901 55.47H33.7301V56.59H32.4301V63.32H31.1901V56.59H29.8901V55.47ZM29.5501 58.2V59.16C29.5501 60.37 28.9001 61.21 27.7001 61.21H27.2901V63.32H26.0501V55.47C27.2201 55.47 28.3901 55.47 29.5601 55.47V58.2H29.5501ZM27.2801 56.6V60.1C27.7401 60.12 28.3001 60.05 28.3001 59.25V58.54V56.61H27.2801V56.6Z" fill="white"/>
</g>
<defs>
<clipPath id="clip0_111_932">
<rect width="46.04" height="63.32" fill="white" transform="translate(0.0300293)"/>
</clipPath>
</defs>
</svg>
