<svg width="64" height="64" viewBox="0 0 64 64" fill="none" xmlns="http://www.w3.org/2000/svg">
<g clip-path="url(#clip0_111_936)">
<path d="M49.88 36.77H49.74C46.83 36.74 44.04 35.64 41.89 33.67L41.8 33.59L41.87 33.49C42.06 33.23 42.43 32.74 42.69 32.32L42.78 32.18L42.9 32.29C44.76 34.05 47.19 35.03 49.74 35.06H49.87V36.77H49.88ZM42.17 33.55C44.23 35.39 46.86 36.43 49.61 36.49V35.33C47.09 35.26 44.7 34.3 42.84 32.6C42.61 32.94 42.35 33.31 42.17 33.55ZM31.12 36.77V35.07H31.25C33.8 35.03 36.23 34.05 38.09 32.29L38.21 32.18L38.3 32.32C38.6 32.79 38.97 33.3 39.12 33.49L39.19 33.59L39.1 33.67C36.94 35.63 34.16 36.73 31.25 36.77H31.11H31.12ZM31.39 35.34V36.5C34.14 36.44 36.77 35.4 38.83 33.56C38.67 33.35 38.4 32.98 38.16 32.61C36.3 34.31 33.9 35.28 31.39 35.34ZM49.89 33.44H49.75C46.61 33.42 43.76 31.67 42.31 28.88C42.06 29.59 41.73 30.27 41.36 30.91C41.1 31.37 40.85 31.76 40.61 32.06L40.5 32.19L40.39 32.06C40.15 31.76 39.9 31.38 39.64 30.91C39.26 30.25 38.94 29.57 38.69 28.88C37.24 31.68 34.39 33.43 31.25 33.44H31.11V31.74H31.25C34.93 31.71 37.92 28.7 37.92 25.02V14.49H39.7V24.89C39.7 26.24 39.97 27.57 40.5 28.82C41.03 27.57 41.3 26.25 41.3 24.89V14.49H43.08V25.01C43.08 28.69 46.07 31.71 49.75 31.73H49.88V33.44H49.89ZM42.28 28.2L42.57 28.75C43.95 31.42 46.65 33.1 49.63 33.16V32C47.82 31.95 46.13 31.22 44.85 29.94C43.54 28.62 42.82 26.87 42.82 25.01V14.76H41.59V24.88C41.59 26.27 41.32 27.63 40.77 28.91L40.52 29.51L40.27 28.91C39.73 27.63 39.45 26.27 39.45 24.88V14.76H38.22V25.01C38.22 26.87 37.5 28.62 36.18 29.94C34.9 31.23 33.21 31.96 31.41 32V33.16C34.39 33.09 37.09 31.41 38.47 28.75L38.76 28.19L38.97 28.78C39.21 29.46 39.52 30.13 39.9 30.76C40.11 31.15 40.32 31.47 40.52 31.74C40.72 31.47 40.93 31.15 41.14 30.77C41.51 30.14 41.82 29.47 42.07 28.78L42.28 28.19V28.2ZM49.89 30.12H49.75C48.41 30.08 47.15 29.53 46.21 28.56C45.27 27.59 44.75 26.32 44.75 24.97V20.36H46.45V24.97C46.45 26.83 47.9 28.34 49.76 28.41H49.89V30.12ZM45.02 20.63V24.97C45.02 27.54 47.07 29.7 49.62 29.84V28.68C48.71 28.61 47.86 28.22 47.22 27.55C46.55 26.85 46.18 25.94 46.18 24.97V20.63H45.02ZM31.13 30.12V28.42H31.26C33.12 28.34 34.57 26.83 34.57 24.97V20.36H36.28V24.97C36.28 26.32 35.76 27.59 34.82 28.56C33.88 29.53 32.62 30.08 31.28 30.11H31.14L31.13 30.12ZM31.4 28.68V29.84C33.95 29.7 36 27.54 36 24.97V20.63H34.84V24.97C34.84 25.94 34.47 26.85 33.8 27.55C33.16 28.21 32.31 28.61 31.4 28.68Z" fill="white"/>
<path d="M31.11 6.66991C28.27 6.66991 25.96 8.97991 25.96 11.8199V24.9699C25.96 27.8099 28.27 30.1199 31.11 30.1199V28.4099C29.21 28.4099 27.67 26.8599 27.67 24.9699V11.8099C27.67 9.90991 29.21 8.36991 31.11 8.36991C33.01 8.36991 34.55 9.90991 34.55 11.8099V20.3399H36.26V11.8099C36.26 8.96991 33.95 6.65991 31.11 6.65991V6.66991Z" fill="white"/>
<path d="M15.69 0.469961C15.69 8.55996 9.53003 15.24 1.66003 16.07V17.78C7.85003 17.19 13.11 13.35 15.69 7.97996V36.89H17.39V0.459961H15.69V0.469961Z" fill="white"/>
<path d="M12.3201 19.24V36.89H14.0201V18L13.9201 18.09C13.4201 18.52 12.8801 18.91 12.3101 19.25L12.3201 19.24Z" fill="white"/>
<path d="M14.03 0.459961H12.33C12.33 6.68996 7.68004 11.85 1.67004 12.67V14.39C8.62004 13.56 14.03 7.62996 14.03 0.459961Z" fill="white"/>
<path d="M1.66003 19.4501V21.1601C6.41003 20.7801 10.71 18.8101 14.02 15.7601V13.3501C10.89 16.7601 6.53003 19.0201 1.66003 19.4401V19.4501Z" fill="white"/>
<path d="M55.03 24.9599V11.8099C55.03 8.96991 52.72 6.65991 49.88 6.65991C47.04 6.65991 44.73 8.96991 44.73 11.8099V20.3499H46.44V11.8099C46.44 9.90991 47.98 8.36991 49.88 8.36991C51.78 8.36991 53.32 9.90991 53.32 11.8099V24.9599C53.32 26.8599 51.78 28.3999 49.88 28.3999V30.0999C52.72 30.0999 55.03 27.7899 55.03 24.9499V24.9599Z" fill="white"/>
<path d="M39.71 11.7101C39.71 11.1801 39.64 9.52009 38.69 7.89009C37.29 5.19009 34.46 3.34009 31.2 3.34009H31.02C26.37 3.34009 22.59 7.12009 22.59 11.7601V25.0001C22.59 29.6501 26.37 33.4301 31.02 33.4301H31.11V31.7201H31.03C27.32 31.7201 24.31 28.7001 24.31 25.0001V11.7601C24.31 8.05009 27.33 5.04009 31.03 5.04009H31.21C34.92 5.04009 37.93 8.06009 37.93 11.7601V14.4801H39.7V11.8801C39.7 11.8201 39.7 11.7601 39.7 11.7001L39.71 11.7101Z" fill="white"/>
<path d="M49.8801 -9.76585e-06C49.7101 -9.76585e-06 49.5401 -9.76585e-06 49.3701 0.00999023H49.3001C49.3001 0.00999023 49.2601 0.00999023 49.2401 0.00999023C48.9001 0.0299902 48.5601 0.0599902 48.2201 0.10999C48.2001 0.10999 48.1801 0.10999 48.1601 0.10999C48.1401 0.10999 48.1201 0.10999 48.1001 0.10999C47.7601 0.15999 47.4201 0.22999 47.0901 0.30999H47.0601L47.0301 0.32999H47.0101C46.6701 0.41999 46.3401 0.50999 46.0101 0.62999L45.9601 0.64999C45.6201 0.76999 45.2901 0.89999 44.9801 1.04999H44.9601C43.2001 1.85999 41.6701 3.07999 40.4901 4.58999C38.3201 1.79999 34.9201 -0.0100098 31.1101 -0.0100098C26.6801 -0.0100098 22.8001 2.42999 20.7601 6.04999V0.45999H19.0601V36.89H20.7601V30.71C22.8001 34.32 26.6701 36.77 31.1101 36.77V35.07C25.5001 35.07 20.9301 30.5 20.9301 24.89V11.89C20.9301 6.27999 25.5001 1.70999 31.1101 1.70999C36.7201 1.70999 41.2901 6.27999 41.2901 11.89V14.49H43.0701V11.76C43.0701 8.04999 46.0901 5.03999 49.7901 5.03999H49.9701C53.6801 5.03999 56.6901 8.05999 56.6901 11.76V25C56.6901 28.71 53.6701 31.72 49.9701 31.72H49.8801V33.43H49.9801C54.6301 33.44 58.4101 29.66 58.4101 25.01V11.77C58.4101 7.11999 54.6301 3.34999 49.9801 3.34999H49.8001C46.5501 3.34999 43.7201 5.20999 42.3101 7.90999C42.0901 7.28999 41.8101 6.69999 41.5001 6.12999C41.8801 5.57999 42.3201 5.05999 42.8001 4.58999C43.7101 3.69999 44.7901 2.98999 45.9901 2.48999C45.9901 2.48999 46.0001 2.48999 46.0101 2.48999C46.3001 2.36999 46.6001 2.25999 46.9001 2.16999C46.9201 2.16999 46.9401 2.16999 46.9501 2.15999C47.0501 2.12999 47.1601 2.09999 47.2701 2.06999L47.3701 2.03999H47.4001C47.5501 1.98999 47.7001 1.95999 47.8501 1.92999C47.8701 1.92999 47.9001 1.92999 47.9201 1.91999H48.0001L48.0201 1.89999C48.1201 1.87999 48.2101 1.85999 48.3101 1.84999H48.3301C48.3301 1.84999 48.3801 1.83999 48.4001 1.83999H48.4501C48.5801 1.81999 48.7201 1.79999 48.8501 1.77999H48.9101C48.9801 1.76999 49.0401 1.75999 49.1101 1.75999C49.1701 1.75999 49.2401 1.75999 49.3001 1.73999H49.3601C49.3601 1.73999 49.4001 1.73999 49.4201 1.73999C49.5701 1.73999 49.7201 1.72999 49.8801 1.72999C55.4901 1.72999 60.0601 6.29999 60.0601 11.91V24.91C60.0601 30.52 55.4901 35.09 49.8801 35.09V36.79C56.4401 36.79 61.7701 31.47 61.7701 24.91V11.89C61.7701 5.32999 56.4401 -9.76585e-06 49.8801 -9.76585e-06Z" fill="white"/>
<path d="M1.64001 52.7999H0.0700073V51.6699H0.520007L0.900007 44.8899H3.80001V52.7999H2.61001V46.0199H2.02001L1.63001 52.7999H1.64001Z" fill="white"/>
<path d="M4.66003 44.8899H7.60003V46.0199H5.85003V47.9399H7.55003V49.0699H5.85003V51.6699H7.60003V52.7999H4.66003V44.8899Z" fill="white"/>
<path d="M8.16003 44.8899H11.61V46.0199H10.48V52.7999H9.29003V46.0199H8.16003V44.8899Z" fill="white"/>
<path d="M16.83 44.8899H18.28V52.7999H17.09V49.4099L17.28 47.1499H17.22L16.39 51.2199H15.28L14.43 47.1499H14.37L14.59 49.4099V52.7999H13.4V44.8899H14.85L15.81 49.4099H15.84L16.81 44.8899H16.83Z" fill="white"/>
<path d="M19.66 52.8299C19.34 52.8299 19.14 52.6099 19.14 52.3099V45.4199C19.14 45.1099 19.34 44.8999 19.66 44.8999H22.17C22.49 44.8999 22.69 45.1199 22.69 45.4199V52.3199C22.69 52.6299 22.49 52.8399 22.17 52.8399H19.66V52.8299ZM21.51 46.0199H20.33V51.6899H21.51V46.0199Z" fill="white"/>
<path d="M24.08 52.7999C23.76 52.7999 23.56 52.5899 23.56 52.2799V45.4099C23.56 45.0999 23.76 44.8899 24.08 44.8899H27.01V47.1499H25.82V46.0199H24.74V51.6699H25.82V50.1999H27.01V52.7999H24.08Z" fill="white"/>
<path d="M31.6 52.7999H30.34L29.3 49.0699H28.99V52.7999H27.8V44.8899H28.99V47.9399H29.33L30.34 44.8899H31.6L30.37 48.5099L31.6 52.8099V52.7999Z" fill="white"/>
<path d="M32.68 52.8299C32.36 52.8299 32.16 52.6099 32.16 52.3099V45.4199C32.16 45.1099 32.36 44.8999 32.68 44.8999H35.19C35.51 44.8999 35.71 45.1199 35.71 45.4199V52.3199C35.71 52.6299 35.51 52.8399 35.19 52.8399H32.68V52.8299ZM34.53 46.0199H33.35V51.6899H34.53V46.0199Z" fill="white"/>
<path d="M40.02 47.6199C40.02 48.0699 39.78 48.3799 39.43 48.4999C39.78 48.6199 40.02 48.9199 40.02 49.3799V52.2699C40.02 52.5799 39.82 52.7899 39.5 52.7899H36.57V44.8799H39.5C39.82 44.8799 40.02 45.0899 40.02 45.3999V47.6199ZM38.83 46.0099H37.76V47.9299H38.83V46.0099ZM37.75 51.6699H38.82V49.0699H37.75V51.6699Z" fill="white"/>
<path d="M41.41 52.7999C41.09 52.7999 40.89 52.5899 40.89 52.2799V45.4099C40.89 45.0999 41.09 44.8899 41.41 44.8899H44.34V47.1499H43.15V46.0199H42.07V51.6699H43.15V50.1999H44.34V52.7999H41.41Z" fill="white"/>
<path d="M48.93 52.7999H47.67L46.63 49.0699H46.32V52.7999H45.13V44.8899H46.32V47.9399H46.66L47.67 44.8899H48.93L47.7 48.5099L48.93 52.8099V52.7999Z" fill="white"/>
<path d="M50.01 52.8299C49.69 52.8299 49.49 52.6099 49.49 52.3099V45.4199C49.49 45.1099 49.69 44.8999 50.01 44.8999H52.54C52.86 44.8999 53.06 45.1199 53.06 45.4199V52.3199C53.06 52.6299 52.86 52.8399 52.54 52.8399H50.01V52.8299ZM51.87 46.0199H50.68V51.6899H51.87V46.0199Z" fill="white"/>
<path d="M57.32 44.8899H58.77V52.7999H57.58V49.4099L57.77 47.1499H57.71L56.89 51.2199H55.78L54.93 47.1499H54.87L55.08 49.4099V52.7999H53.89V44.8899H55.34L56.3 49.4099H56.33L57.3 44.8899H57.32Z" fill="white"/>
<path d="M62.06 52.7999H60.45V51.6699H61.06L61.3 50.1999H60.45L59.33 44.8799H60.55L61.44 49.0599H61.5L62.19 44.8799H63.37L62.07 52.7899L62.06 52.7999Z" fill="white"/>
<path d="M19.75 63.8299C19.43 63.8299 19.23 63.6199 19.23 63.3099V56.4299C19.23 56.1199 19.43 55.9099 19.75 55.9099H22.67V58.1699H21.49V57.0399H20.42V62.6899H21.49V61.2199H22.67V63.8199H19.75V63.8299Z" fill="white"/>
<path d="M27.07 55.9099V63.8299H25.89V57.0499H24.66V63.8299H23.48V55.9099H27.07Z" fill="white"/>
<path d="M28.45 63.8299C28.14 63.8299 27.93 63.6199 27.93 63.3099V56.4299C27.93 56.1199 28.13 55.9099 28.45 55.9099H30.96C31.27 55.9099 31.48 56.1199 31.48 56.4299V63.3099C31.48 63.6199 31.28 63.8299 30.96 63.8299H28.45ZM30.29 57.0499H29.11V62.6999H30.29V57.0499Z" fill="white"/>
<path d="M33.52 61.2199V63.8199H32.34V55.8999H35.31C35.63 55.8999 35.83 56.1099 35.83 56.4199V60.6899C35.83 60.9999 35.63 61.2099 35.31 61.2099H33.52V61.2199ZM33.52 60.0899H34.65V57.0399H33.52V60.0899Z" fill="white"/>
<path d="M36.41 55.9099H39.85V57.0399H38.72V63.8199H37.54V57.0399H36.41V55.9099Z" fill="white"/>
<path d="M42.9 63.8299H41.29V62.6999H41.9L42.14 61.2299H41.29L40.17 55.9199H41.38L42.26 60.0999H42.32L43.01 55.9199H44.19L42.9 63.8399V63.8299Z" fill="white"/>
</g>
<defs>
<clipPath id="clip0_111_936">
<rect width="63.29" height="63.83" fill="white" transform="translate(0.0700073)"/>
</clipPath>
</defs>
</svg>
