<svg width="25" height="25" viewBox="0 0 25 25" fill="none" xmlns="http://www.w3.org/2000/svg">
<path fill-rule="evenodd" clip-rule="evenodd" d="M4.26721 0.777344C2.05807 0.777344 0.267212 2.5682 0.267212 4.77734V20.712C0.267212 22.9211 2.05807 24.712 4.26721 24.712H20.2018C22.411 24.712 24.2018 22.9211 24.2018 20.712V4.77734C24.2018 2.5682 22.411 0.777344 20.2018 0.777344H4.26721ZM18.4528 10.32C18.4528 11.7852 17.7224 12.9525 16.5843 13.8056L19.9916 19.6554H15.6167L13.1121 14.7552H9.2699V19.6554L5.53184 19.628L5.5271 5.19092L13.4413 5.21947C16.2086 5.21947 18.4528 7.10985 18.4528 9.68272V10.32ZM12.6366 11.7509C13.7391 11.7509 14.6331 11.1694 14.6331 10.145V10.0285C14.6331 9.00365 13.7391 8.28395 12.6366 8.28395H9.27008V11.7509H12.6366Z" fill="white"/>
</svg>
