<svg width="25" height="25" viewBox="0 0 25 25" fill="none" xmlns="http://www.w3.org/2000/svg">
<path fill-rule="evenodd" clip-rule="evenodd" d="M4.13361 0.777344C1.92447 0.777344 0.133606 2.5682 0.133606 4.77734V20.712C0.133606 22.9211 1.92447 24.712 4.1336 24.712H20.0682C22.2774 24.712 24.0682 22.9211 24.0682 20.712V4.77734C24.0682 2.5682 22.2774 0.777344 20.0682 0.777344H4.13361ZM7.31871 13.5551L3.08632 12.1336C2.6559 12.0044 2.6559 11.4228 3.08632 11.2936L20.518 5.21993C20.8767 5.0907 21.2353 5.41377 21.1636 5.73684L18.0073 19.3057C17.9355 19.6288 17.5051 19.758 17.2182 19.5642L12.9858 16.7858C12.6989 16.5919 12.3402 16.5919 12.125 16.7858L9.75771 18.5303C9.47077 18.7242 9.04035 18.6596 8.96862 18.3365L7.31871 13.5551ZM17.0747 8.25677L8.75342 12.8443C8.39474 12.9736 8.25126 13.3612 8.46646 13.6843L9.32729 16.5273C9.39903 16.7858 9.75771 16.7212 9.75771 16.5273L9.97291 14.9766C9.97291 14.6535 10.1881 14.3951 10.4033 14.2012L17.2182 8.45061C17.3616 8.386 17.2182 8.19216 17.0747 8.25677Z" fill="white"/>
</svg>
