<?xml version="1.0" encoding="UTF-8"?>
<svg id="_Слой_2" data-name="Слой 2" xmlns="http://www.w3.org/2000/svg" viewBox="0 0 168.01 180">
  <defs>
    <style>
      .cls-1 {
        fill: #fff;
        fill-rule: evenodd;
      }
    </style>
  </defs>
  <g id="_Слой_1-2" data-name="Слой 1">
    <path class="cls-1" d="M75.66,0C80.83,0,86,0,91.17,0c0,2.27,0,4.54,0,6.81-5.17,0-10.34,0-15.51,0,0-2.27,0-4.54,0-6.8h0Zm2.02,12.45c3.82,0,7.65,0,11.47,0-1.91,2.58-3.82,5.15-5.73,7.72-1.91-2.57-3.83-5.14-5.73-7.72h0Zm-4.8,12.79c7.02,0,14.05,0,21.07,0,0,2.28,0,4.57,0,6.85-7.03,0-14.05,0-21.07,0,0-2.28,0-4.57,0-6.85h0ZM2.79,38.28c1.72-2.28,3.42-4.57,5.15-6.85,1.69,2.29,3.39,4.57,5.08,6.85-1.69,2.29-3.39,4.57-5.09,6.86-1.72-2.28-3.44-4.57-5.15-6.86h0Zm30.81-6.67c1.26-.42,2.76-.07,3.64,.94,1.11,1.2,1.14,3.23,.06,4.46-.37,.46-.91,.74-1.44,.98,1.09,2.2,2.17,4.4,3.25,6.61-2.93,0-5.85,0-8.78,0,1.08-2.19,2.17-4.38,3.25-6.57-1.2-.47-2.17-1.58-2.27-2.89-.18-1.53,.83-3.08,2.3-3.53h0Zm95.26,2.56c.21-1.25,1.22-2.32,2.45-2.62,1.32-.35,2.83,.15,3.63,1.26,.85,1.12,.88,2.79,.05,3.94-.4,.6-1.03,1-1.68,1.3,1.08,2.19,2.17,4.37,3.25,6.57-2.93,0-5.86,0-8.79,0,1.08-2.21,2.16-4.41,3.25-6.61-1.55-.52-2.53-2.23-2.17-3.83h0Zm30.1-2.74c1.72,2.28,3.43,4.57,5.14,6.85-1.71,2.29-3.43,4.56-5.13,6.85-1.73-2.26-3.4-4.57-5.1-6.85,1.69-2.29,3.39-4.57,5.09-6.85h0Zm-101.53,6.32c17.33,0,34.65,0,51.98,0,0,2.28,0,4.57,0,6.85-17.33,0-34.65,0-51.98,0,0-2.28,0-4.57,0-6.85h0ZM.01,49.34c55.62,0,111.25,0,166.87,0,0,2.28,0,4.57,0,6.85-55.62,0-111.25,0-166.87,0,0-2.29,0-4.57,0-6.85H.01ZM0,61.85c55.63,0,111.25,0,166.88,0,0,2.28,0,4.57,0,6.85h-3.53c0,21.33,0,42.65,0,63.98-2.92,0-5.85,0-8.77,0,0-21.32,0-42.65,0-63.98h-17.96c0,21.33,0,42.65,0,63.98-2.92,0-5.85,0-8.77,0,0-21.32,0-42.65,0-63.97-6.14,0-12.29,0-18.43,0,0,21.33,0,42.65,0,63.98h-8.83c0-14.49,0-28.98,0-43.47-.02-2.46-.07-4.96-.7-7.36-.77-2.89-2.09-5.63-3.92-7.99-1.21-1.55-2.66-2.95-4.41-3.87-2.82-1.47-6.08-1.88-9.22-1.74-3.17,.14-6.4,1.03-8.95,2.97-2.03,1.58-3.54,3.73-4.69,6.01-.84,1.69-1.5,3.48-1.92,5.32-.44,2.06-.47,4.18-.49,6.28,0,14.62,0,29.24,0,43.85h-8.83c0-21.33,0-42.65,0-63.98h-18.43c0,21.32,0,42.65,0,63.98-2.94,0-5.89,0-8.83,0,0-21.33,0-42.65,0-63.98-5.95,0-11.89,0-17.84,0,0,21.32,0,42.65,0,63.98-2.93,0-5.86,0-8.78,0,0-21.33,0-42.65,0-63.98-1.18,0-2.36,0-3.53,0C0,66.42,0,64.13,0,61.85H0Zm2.47,79.05h15.02c2.14,0,4.32,.07,6.4,.66,2.3,.66,4.37,2.22,5.49,4.36,1.16,2.17,1.38,4.75,.98,7.15-.4,2.37-1.75,4.58-3.76,5.91-.34,.21-.68,.42-.97,.7,2.05,.95,3.82,2.56,4.75,4.64,1.16,2.51,1.14,5.44,.42,8.07-.76,2.8-2.77,5.3-5.48,6.43-2.89,1.2-6.07,1.18-9.14,1.18-4.57,0-9.14,0-13.71,0,0-13.03,0-26.06,0-39.09h0Zm6.21,5.2c0,3.92,0,7.83,0,11.75,3.18,0,6.37,.01,9.55,0,1.56,0,3.22-.4,4.36-1.53,1.32-1.33,1.72-3.31,1.62-5.12-.07-1.56-.74-3.18-2.07-4.07-1.31-.88-2.94-1.02-4.47-1.02-3,0-5.99,0-8.99,0h0Zm0,28.76c3.19,0,6.37,0,9.56,0,1.53-.02,3.2-.12,4.47-1.09,1.46-1.05,2.05-2.91,2.1-4.64,.11-1.7-.34-3.56-1.65-4.73-1.22-1.12-2.94-1.39-4.53-1.4-3.31,0-6.63,0-9.94,0,0,3.95,0,7.91,0,11.86h0Zm50.09-33.96c4.35,0,8.7,0,13.05,0v33.52c3.03-.05,6.07-.11,9.1-.15-1.38,1.91-2.78,3.81-4.17,5.72-13.09,.02-26.18,0-39.27,0,7.1-13.03,14.19-26.07,21.29-39.09h0Zm2.9,4.78c-5.15,9.67-10.3,19.34-15.45,29.01,6.5,.01,13,0,19.5,0,0-9.67,0-19.35,0-29.02-1.35,0-2.7,0-4.05,0h0Zm27.9-4.78c2.06,.02,4.12-.04,6.18,.03-.04,5.19,0,10.38-.02,15.58,6.61,0,13.21,0,19.82,0,0-5.2,0-10.4,0-15.6,2.07,0,4.14,0,6.21,0,.01,13.02-.02,26.05,.02,39.07-2.07,.05-4.15,0-6.22,.02,0-6.04,0-12.08,0-18.12-6.61,0-13.21,0-19.82,0,0,6.04,0,12.08,0,18.12-2.05,0-4.1,0-6.16,0,0-13.03,0-26.06,0-39.1h0Zm43.5,0c2.48,0,4.96,0,7.44,0,3.25,4.59,6.49,9.18,9.73,13.78,3.09-4.59,6.17-9.18,9.25-13.78,2,0,4.01,0,6.01,0-4.11,5.99-8.24,11.98-12.35,17.97,4.95,7.04,9.91,14.08,14.86,21.12-2.47,0-4.93,0-7.4,0-3.74-5.31-7.47-10.62-11.22-15.91-3.59,5.3-7.16,10.62-10.74,15.92-2.07,0-4.14,0-6.21,0,4.66-6.72,9.34-13.44,14.01-20.16-4.45-6.31-8.91-12.62-13.37-18.93Z"/>
  </g>
</svg>