<svg width="24" height="25" viewBox="0 0 24 25" fill="none" xmlns="http://www.w3.org/2000/svg">
<path fill-rule="evenodd" clip-rule="evenodd" d="M4 0.777344C1.79086 0.777344 0 2.5682 0 4.77734V20.712C0 22.9211 1.79086 24.712 4 24.712H19.9346C22.1438 24.712 23.9346 22.9211 23.9346 20.712V4.77734C23.9346 2.5682 22.1438 0.777344 19.9346 0.777344H4ZM3.84742 7.55677C3.98877 14.3523 7.38096 18.4361 13.3283 18.4361H13.6654V14.5483C15.8508 14.7661 17.5033 16.367 18.1665 18.4361H21.2544C20.4064 15.3433 18.1774 13.6335 16.7857 12.9801C18.1774 12.1742 20.1344 10.214 20.602 7.55677H17.7968C17.1879 9.71304 15.3833 11.6733 13.6654 11.8584V7.55677H10.8602V15.0928C9.12057 14.6572 6.92437 12.5445 6.82651 7.55677H3.84742Z" fill="white"/>
</svg>
